<svg width="137" height="45" viewBox="0 0 137 45" fill="none" xmlns="http://www.w3.org/2000/svg">
<path d="M47.264 31.128C47.264 33.536 42.952 34.488 41.664 35.384C41.104 37.456 42.448 44.12 40.04 44.12C39.312 44.12 38.304 43.672 38.248 42.832L37.856 36.28L37.24 35.664C34.384 35.776 31.136 35.72 28.392 34.992C26.768 34.6 22.96 33.592 21.392 32.864C19.488 34.264 17.696 36.728 15.568 37.904C11.48 40.088 6.16 42.72 1.344 42.72C1.288 42.72 1.176 42.664 1.176 42.664C1.064 42.608 0.616 42.16 0.56 42.048V41.88C0.56 40.592 7.728 38.576 9.184 37.904C10.64 37.232 13.44 36.056 14.952 34.712C15.904 33.816 18.144 31.576 18.144 31.52V30.848C15.12 29.224 12.992 26.256 12.992 22.728C12.992 22.448 12.992 21.664 13.048 21.608L14.952 16.792C15.792 14.72 19.544 13.264 21.504 13.264C25.48 13.264 27.552 13.712 30.52 15.616C30.52 15.672 30.632 15.672 30.688 15.672C32.48 15.672 41.272 0.159997 43.568 0.159997C44.856 0.159997 45.024 0.719997 45.024 1.784C45.024 2.008 45.024 2.68 44.968 2.736C43.456 11.752 42.112 20.936 42.112 30.176C42.112 30.68 42.112 31.52 42.896 31.52C44.128 31.52 45.08 30.512 46.256 30.512C46.704 30.512 47.264 30.624 47.264 31.128ZM41.104 8.56C41.104 8.504 40.88 8.28 40.824 8.28C40.824 8.28 40.712 8.224 40.656 8.224C40.6 8.224 40.488 8.28 40.488 8.28C38.416 10.016 36.568 12.928 35.056 15.168C34.552 15.896 33.488 17.688 33.488 17.744V18.696L35.392 21.608C35.896 22.392 38.64 29.728 39.032 31.296C39.032 31.352 39.424 30.848 39.424 30.848C39.592 25.92 40.376 18.752 40.208 13.936C40.6 12.984 40.544 12.2 40.544 11.192C40.544 10.968 41.16 8.784 41.104 8.56ZM29.008 18.752C29.008 16.792 23.856 16.456 22.792 16.456H20.384C17.36 16.848 16.128 20.712 16.128 23.176C16.128 23.456 16.184 24.8 16.24 25.08C17.08 26.424 18.536 28.384 20.328 28.384C20.496 28.384 21 28.328 21 28.272L28.672 19.592L29.008 18.92V18.752ZM36.624 31.8C36.624 29.784 33.432 22.168 31.248 21.272C30.688 21.048 30.072 22.28 29.96 22.56L23.912 29.56C23.856 29.616 23.856 29.784 23.856 29.896C23.856 32.024 33.096 32.808 34.328 32.808L36.288 32.752C36.68 32.696 36.624 32.08 36.624 31.8ZM69.9729 32.864C69.9729 33.088 69.9169 33.368 69.8609 33.592C69.4689 35.16 68.4049 37.232 67.0609 38.632C65.7729 40.032 63.3649 41.992 61.1249 42.776C59.7809 43.28 57.5969 43.672 56.1969 43.672C51.5489 43.672 49.1969 39.864 49.1969 36.448C49.1969 34.544 49.5329 32.92 50.2049 30.792C51.8849 25.416 54.7969 22.112 60.3969 22.112C62.5249 22.112 64.2609 23.904 64.2609 26.032C64.2609 27.432 64.3729 32.36 62.0209 32.36C61.2929 32.36 60.3969 31.688 60.3969 30.904C60.3969 29.56 61.0689 28.328 61.0689 26.928V25.64C60.8449 25.136 59.6129 25.024 59.4449 25.024C55.9169 25.024 53.6209 29.056 52.7249 32.024C52.1649 33.816 52.0529 35.888 52.3329 37.456C52.5569 38.632 53.5089 40.424 55.0209 40.424C56.6449 40.984 58.0449 41.096 59.6689 40.76C61.0129 40.48 64.3729 37.68 65.2129 36.784C66.1089 35.832 66.6689 34.488 68.2369 32.36C68.6289 31.8 68.5729 31.856 69.1329 31.856C69.8049 31.856 69.9729 32.304 69.9729 32.864ZM88.0744 32.864C88.0744 33.088 88.0184 33.368 87.9624 33.592C87.5704 35.16 86.5064 37.232 85.1624 38.632C83.8744 40.032 81.4664 41.992 79.2264 42.776C77.8824 43.28 75.6984 43.672 74.2984 43.672C69.6504 43.672 67.2984 39.864 67.2984 36.448C67.2984 34.544 67.6344 32.92 68.3064 30.792C69.9864 25.416 72.8984 22.112 78.4984 22.112C80.6264 22.112 82.3624 23.904 82.3624 26.032C82.3624 27.432 82.4744 32.36 80.1224 32.36C79.3944 32.36 78.4984 31.688 78.4984 30.904C78.4984 29.56 79.1704 28.328 79.1704 26.928V25.64C78.9464 25.136 77.7144 25.024 77.5464 25.024C74.0184 25.024 71.7224 29.056 70.8264 32.024C70.2664 33.816 70.1544 35.888 70.4344 37.456C70.6584 38.632 71.6104 40.424 73.1224 40.424C74.7464 40.984 76.1464 41.096 77.7704 40.76C79.1144 40.48 82.4744 37.68 83.3144 36.784C84.2104 35.832 84.7704 34.488 86.3384 32.36C86.7304 31.8 86.6744 31.856 87.2344 31.856C87.9064 31.856 88.0744 32.304 88.0744 32.864ZM105.112 32.864C105.112 33.088 105.056 33.368 105 33.592C104.608 35.16 103.544 37.232 102.256 38.632C99.736 41.264 96.656 43.28 92.96 43.28C91.28 43.28 89.152 42.944 87.64 41.824C86.016 40.704 84.952 38.688 85.008 36.896C85.176 33.256 86.296 29.392 89.04 26.032C90.832 23.848 93.352 22.056 96.432 22.056C98.168 22.056 99.68 23.4 99.68 25.136C99.68 27.152 98.84 29 97.496 30.568C96.152 32.08 94.416 33.312 92.512 34.152C91.56 34.6 89.04 35.72 87.864 36.168C87.752 36.672 87.696 37.12 87.808 37.624C87.864 38.296 88.76 39.528 89.656 39.976C89.768 40.032 91.056 40.984 92.96 40.984C95.928 40.648 98.336 38.968 100.408 36.784C101.304 35.832 101.808 34.488 103.376 32.36C103.824 31.8 103.712 31.856 104.272 31.856C104.944 31.856 105.112 32.304 105.112 32.864ZM97.272 25.808C97.328 25.416 96.6 24.576 96.096 24.688C94.304 24.912 92.624 25.808 91.448 27.04C89.936 28.552 88.312 30.848 88.256 32.64C88.2 32.92 87.864 33.592 88.2 33.536C90.216 33.2 92.4 31.632 93.688 30.736C95.144 29.672 96.264 28.272 97.216 26.144C97.272 26.088 97.272 25.864 97.272 25.808ZM120.999 32.864C120.999 33.088 120.999 33.368 120.943 33.592C120.551 35.16 119.487 37.232 118.143 38.632C116.463 40.424 112.711 43.168 109.183 43.168C108.343 43.168 107.839 43 107.559 42.72C106.495 43.112 106.495 43.336 105.375 43.336C102.91 43.336 101.511 41.376 101.511 39.136C101.511 38.632 101.847 38.128 102.463 38.016C104.815 37.68 105.935 40.256 108.399 40.256C111.927 40.256 112.487 35.552 112.487 33.088C112.487 32.416 110.415 27.712 109.407 26.928C109.183 27.04 108.903 27.432 108.679 27.88L107.951 29.336C107.839 29.56 107.503 30.12 107.167 30.792C106.607 31.912 106.831 31.912 106.383 32.696L106.159 33.088C105.543 34.152 104.927 34.88 104.591 35.104C104.199 35.384 103.247 35.496 102.91 34.936C102.631 34.432 102.91 33.144 103.079 32.808L103.527 32.192L104.479 30.848C105.375 29.616 105.039 29.784 106.383 27.32C106.999 26.2 107.447 25.36 108.062 24.52C107.839 23.848 107.167 23.232 107.167 22.056L107.223 20.824C108.062 19.424 109.743 18.08 111.367 18.08H111.815C112.375 18.416 113.439 19.536 113.439 20.32C113.439 22.616 111.311 23.512 111.311 24.856V24.968C112.319 26.76 114.223 29.672 114.727 31.8C115.007 32.92 114.895 35.104 114.727 36.224C114.559 37.288 113.999 38.352 113.383 39.36C114.615 38.408 115.791 37.288 116.295 36.784C117.191 35.832 117.695 34.488 119.319 32.36C119.711 31.8 119.655 31.856 120.159 31.856C120.887 31.856 120.999 32.304 120.999 32.864ZM110.751 20.768C110.751 20.712 110.639 20.712 110.527 20.712C109.967 20.712 109.575 20.768 109.575 21.384C109.575 21.608 109.799 22.672 109.855 22.672C110.471 22.168 110.751 21.384 110.751 20.768ZM136.913 32.864C136.913 33.088 136.913 33.368 136.857 33.592C136.465 35.16 135.401 37.232 134.057 38.632C132.377 40.424 128.625 43.168 125.097 43.168C124.257 43.168 123.753 43 123.473 42.72C122.409 43.112 122.409 43.336 121.289 43.336C118.825 43.336 117.425 41.376 117.425 39.136C117.425 38.632 117.761 38.128 118.377 38.016C120.729 37.68 121.849 40.256 124.313 40.256C127.841 40.256 128.401 35.552 128.401 33.088C128.401 32.416 126.329 27.712 125.321 26.928C125.097 27.04 124.817 27.432 124.593 27.88L123.865 29.336C123.753 29.56 123.417 30.12 123.081 30.792C122.521 31.912 122.745 31.912 122.297 32.696L122.073 33.088C121.457 34.152 120.841 34.88 120.505 35.104C120.113 35.384 119.161 35.496 118.825 34.936C118.545 34.432 118.825 33.144 118.993 32.808L119.441 32.192L120.393 30.848C121.289 29.616 120.953 29.784 122.297 27.32C122.913 26.2 123.361 25.36 123.977 24.52C123.753 23.848 123.081 23.232 123.081 22.056L123.137 20.824C123.977 19.424 125.657 18.08 127.281 18.08H127.729C128.289 18.416 129.353 19.536 129.353 20.32C129.353 22.616 127.225 23.512 127.225 24.856V24.968C128.233 26.76 130.137 29.672 130.641 31.8C130.921 32.92 130.809 35.104 130.641 36.224C130.473 37.288 129.913 38.352 129.297 39.36C130.529 38.408 131.705 37.288 132.209 36.784C133.105 35.832 133.609 34.488 135.233 32.36C135.625 31.8 135.569 31.856 136.073 31.856C136.801 31.856 136.913 32.304 136.913 32.864ZM126.665 20.768C126.665 20.712 126.553 20.712 126.441 20.712C125.881 20.712 125.489 20.768 125.489 21.384C125.489 21.608 125.713 22.672 125.769 22.672C126.385 22.168 126.665 21.384 126.665 20.768Z" fill="#FEC46E"/>
</svg>
