<svg width="232" height="45" viewBox="0 0 232 45" fill="none" xmlns="http://www.w3.org/2000/svg">
<path d="M47.264 31.128C47.264 33.536 42.952 34.488 41.664 35.384C41.104 37.456 42.448 44.12 40.04 44.12C39.312 44.12 38.304 43.672 38.248 42.832L37.856 36.28L37.24 35.664C34.384 35.776 31.136 35.72 28.392 34.992C26.768 34.6 22.96 33.592 21.392 32.864C19.488 34.264 17.696 36.728 15.568 37.904C11.48 40.088 6.16 42.72 1.344 42.72C1.288 42.72 1.176 42.664 1.176 42.664C1.064 42.608 0.616 42.16 0.56 42.048V41.88C0.56 40.592 7.728 38.576 9.184 37.904C10.64 37.232 13.44 36.056 14.952 34.712C15.904 33.816 18.144 31.576 18.144 31.52V30.848C15.12 29.224 12.992 26.256 12.992 22.728C12.992 22.448 12.992 21.664 13.048 21.608L14.952 16.792C15.792 14.72 19.544 13.264 21.504 13.264C25.48 13.264 27.552 13.712 30.52 15.616C30.52 15.672 30.632 15.672 30.688 15.672C32.48 15.672 41.272 0.159997 43.568 0.159997C44.856 0.159997 45.024 0.719997 45.024 1.784C45.024 2.008 45.024 2.68 44.968 2.736C43.456 11.752 42.112 20.936 42.112 30.176C42.112 30.68 42.112 31.52 42.896 31.52C44.128 31.52 45.08 30.512 46.256 30.512C46.704 30.512 47.264 30.624 47.264 31.128ZM41.104 8.56C41.104 8.504 40.88 8.28 40.824 8.28C40.824 8.28 40.712 8.224 40.656 8.224C40.6 8.224 40.488 8.28 40.488 8.28C38.416 10.016 36.568 12.928 35.056 15.168C34.552 15.896 33.488 17.688 33.488 17.744V18.696L35.392 21.608C35.896 22.392 38.64 29.728 39.032 31.296C39.032 31.352 39.424 30.848 39.424 30.848C39.592 25.92 40.376 18.752 40.208 13.936C40.6 12.984 40.544 12.2 40.544 11.192C40.544 10.968 41.16 8.784 41.104 8.56ZM29.008 18.752C29.008 16.792 23.856 16.456 22.792 16.456H20.384C17.36 16.848 16.128 20.712 16.128 23.176C16.128 23.456 16.184 24.8 16.24 25.08C17.08 26.424 18.536 28.384 20.328 28.384C20.496 28.384 21 28.328 21 28.272L28.672 19.592L29.008 18.92V18.752ZM36.624 31.8C36.624 29.784 33.432 22.168 31.248 21.272C30.688 21.048 30.072 22.28 29.96 22.56L23.912 29.56C23.856 29.616 23.856 29.784 23.856 29.896C23.856 32.024 33.096 32.808 34.328 32.808L36.288 32.752C36.68 32.696 36.624 32.08 36.624 31.8ZM69.0209 16.96C69.0209 17.912 67.4529 18.472 66.7809 18.584C66.0529 18.696 58.4929 18.64 57.8209 18.696C56.5329 20.432 54.1249 27.432 53.4529 29.952C53.3409 30.344 52.2209 33.424 52.1649 33.816C52.1649 33.872 51.7729 36.84 51.7729 38.408C51.7729 39.528 52.9489 40.872 53.9569 40.872C55.4129 40.872 56.2529 40.648 57.3169 40.312C58.9969 39.304 60.8449 37.568 61.5729 36.84C62.6369 35.384 63.7009 33.816 64.6529 32.36C65.0449 31.8 64.9889 31.856 65.4929 31.856C66.2209 31.856 66.3329 32.304 66.3329 32.864C66.3329 33.088 66.3329 33.368 66.2769 33.592C65.8849 35.16 64.8209 37.232 63.4769 38.632C62.4129 39.752 61.3489 41.04 59.5569 41.992C58.4929 42.72 56.0849 43.56 54.4609 43.56C50.4289 43.56 48.8609 40.536 48.8609 37.008C48.8609 36.672 49.1969 34.264 49.1969 33.928C49.6449 32.136 52.1649 26.088 52.6129 24.296C52.8929 23.288 54.2929 20.152 54.6849 18.696C54.1809 18.752 52.3329 18.864 51.8289 18.696C51.4369 18.584 49.1969 18.136 49.1969 17.072C49.1969 16.12 50.4849 15.84 51.1569 15.784C52.8369 15.672 54.6289 15.952 55.8049 15.728C55.8609 15.672 57.5409 12.592 58.0449 11.472L59.6129 7.664L61.2369 4.472C61.5729 3.856 62.9169 0.887998 64.2609 0.887998C64.8769 0.887998 65.7169 1.336 65.7169 2.064C65.7169 3.352 64.2049 5.088 63.6449 6.208L59.1089 15.672C60.3969 15.728 65.2689 15.672 67.7329 15.672C68.2369 15.672 69.0209 16.512 69.0209 16.96ZM83.5131 16.96C83.5131 17.912 81.9451 18.472 81.2731 18.584C80.5451 18.696 72.9851 18.64 72.3131 18.696C71.0251 20.432 68.6171 27.432 67.9451 29.952C67.8331 30.344 66.7131 33.424 66.6571 33.816C66.6571 33.872 66.2651 36.84 66.2651 38.408C66.2651 39.528 67.4411 40.872 68.4491 40.872C69.9051 40.872 70.7451 40.648 71.8091 40.312C73.4891 39.304 75.3371 37.568 76.0651 36.84C77.1291 35.384 78.1931 33.816 79.1451 32.36C79.5371 31.8 79.4811 31.856 79.9851 31.856C80.7131 31.856 80.8251 32.304 80.8251 32.864C80.8251 33.088 80.8251 33.368 80.7691 33.592C80.3771 35.16 79.3131 37.232 77.9691 38.632C76.9051 39.752 75.8411 41.04 74.0491 41.992C72.9851 42.72 70.5771 43.56 68.9531 43.56C64.9211 43.56 63.3531 40.536 63.3531 37.008C63.3531 36.672 63.6891 34.264 63.6891 33.928C64.1371 32.136 66.6571 26.088 67.1051 24.296C67.3851 23.288 68.7851 20.152 69.1771 18.696C68.6731 18.752 66.8251 18.864 66.3211 18.696C65.9291 18.584 63.6891 18.136 63.6891 17.072C63.6891 16.12 64.9771 15.84 65.6491 15.784C67.3291 15.672 69.1211 15.952 70.2971 15.728C70.3531 15.672 72.0331 12.592 72.5371 11.472L74.1051 7.664L75.7291 4.472C76.0651 3.856 77.4091 0.887998 78.7531 0.887998C79.3691 0.887998 80.2091 1.336 80.2091 2.064C80.2091 3.352 78.6971 5.088 78.1371 6.208L73.6011 15.672C74.8891 15.728 79.7611 15.672 82.2251 15.672C82.7291 15.672 83.5131 16.512 83.5131 16.96ZM97.8933 32.864C97.8933 33.088 97.8373 33.368 97.7813 33.592C97.3893 35.16 96.3253 37.232 95.0373 38.632C92.5173 41.264 89.4373 43.28 85.7413 43.28C84.0613 43.28 81.9333 42.944 80.4213 41.824C78.7973 40.704 77.7333 38.688 77.7893 36.896C77.9573 33.256 79.0773 29.392 81.8213 26.032C83.6133 23.848 86.1333 22.056 89.2133 22.056C90.9493 22.056 92.4613 23.4 92.4613 25.136C92.4613 27.152 91.6213 29 90.2773 30.568C88.9333 32.08 87.1973 33.312 85.2933 34.152C84.3413 34.6 81.8213 35.72 80.6453 36.168C80.5333 36.672 80.4772 37.12 80.5893 37.624C80.6453 38.296 81.5413 39.528 82.4373 39.976C82.5493 40.032 83.8373 40.984 85.7413 40.984C88.7093 40.648 91.1173 38.968 93.1893 36.784C94.0853 35.832 94.5893 34.488 96.1573 32.36C96.6053 31.8 96.4933 31.856 97.0533 31.856C97.7253 31.856 97.8933 32.304 97.8933 32.864ZM90.0533 25.808C90.1093 25.416 89.3813 24.576 88.8773 24.688C87.0853 24.912 85.4053 25.808 84.2293 27.04C82.7173 28.552 81.0933 30.848 81.0373 32.64C80.9813 32.92 80.6453 33.592 80.9813 33.536C82.9973 33.2 85.1813 31.632 86.4693 30.736C87.9253 29.672 89.0453 28.272 89.9973 26.144C90.0533 26.088 90.0533 25.864 90.0533 25.808ZM123.132 32.864C123.132 33.088 123.076 33.368 123.02 33.648C122.628 35.216 121.564 37.344 120.22 38.744C118.988 40.032 117.756 41.376 116.188 42.328C114.9 43.168 113.444 43.672 111.82 43.672C111.148 43.672 110.252 43.672 109.692 43.392C108.404 42.776 108.404 41.096 108.404 39.864C108.404 37.848 109.524 36.28 110.364 34.6C111.652 32.136 113.276 28.552 113.836 26.088C113.612 26.088 113.332 26.032 113.332 26.032C110.924 26.032 108.068 31.016 106.724 32.752C106.612 32.92 106.276 33.592 105.828 34.264C105.38 34.992 104.876 35.776 104.54 36.112C104.148 36.504 103.7 37.176 103.252 37.904L101.796 40.256C100.844 41.712 99.8358 43.168 98.9958 43.168C98.2118 43.168 97.9318 42.72 97.7078 41.992C98.9398 37.96 101.012 34.264 102.804 30.456C103.14 29.784 103.532 28.888 103.868 28.048C104.428 26.032 104.54 24.912 104.204 24.8C103.588 24.632 101.684 27.488 100.62 29.28C100.172 30.008 98.9958 32.304 98.4918 33.312C97.9878 34.432 97.4838 34.712 97.1478 34.936C96.7558 35.216 95.9158 35.384 95.5798 34.824C95.2438 34.32 95.5238 33.144 95.6917 32.808L96.0838 32.192C96.3078 31.912 96.3638 31.744 96.8118 31.072C97.7078 29.84 97.8758 29.616 99.1078 27.152C100.284 24.8 102.524 22.28 104.428 22.28C106.332 22.28 106.724 23.624 106.892 24.688C107.06 25.584 106.836 26.424 106.668 26.984L105.66 30.512C107.956 26.872 111.484 23.232 114.9 22.56C116.244 23.064 116.692 24.296 116.692 25.584V25.92C115.516 29.784 113.892 33.424 112.548 36.224C112.044 37.232 111.26 38.52 111.26 39.64C111.26 40.032 111.148 40.536 111.54 40.816C111.652 40.872 112.268 40.872 112.436 40.872C112.996 40.872 113.612 40.704 114.172 40.48C115.628 39.64 117.364 38.016 117.98 37.344C118.484 36.784 118.932 35.944 119.268 35.272C119.94 34.152 120.556 32.976 121.396 31.968C121.62 31.688 121.788 31.744 122.124 31.744C122.964 31.744 123.132 32.248 123.132 32.864ZM148.232 3.016C148.232 3.128 148.232 3.688 148.176 3.8C147.728 5.088 147.224 6.32 146.664 7.552C144.984 11.304 141.064 18.92 139.272 22.728C137.424 26.48 135.856 30.288 135.184 34.32C134.904 35.776 134.792 37.176 134.792 38.688C134.792 39.36 135.24 41.04 136.192 41.04C138.768 40.984 140 40.592 143.472 37.12C144.368 36.168 145.096 34.488 146.496 32.36C146.888 31.8 146.832 31.856 147.336 31.856C148.064 31.856 148.176 32.304 148.176 32.864C148.176 33.088 148.176 33.368 148.12 33.592C147.728 35.16 146.664 37.232 145.32 38.632C142.52 41.6 139.888 43.448 136.136 43.448C131.264 43.448 132.272 38.688 132.216 37.96C130.032 40.368 127.344 43.168 123.984 43.168C121.072 43.168 120.064 39.808 120.064 37.4C120.064 32.528 125.552 21.44 131.376 21.44C133.84 21.44 133.84 24.016 135.184 24.016C135.464 24.016 135.632 24.072 135.8 23.68L143.416 6.992C144.48 5.816 145.6 1.56 147.056 1.56C148.008 1.56 148.232 2.232 148.232 3.016ZM133.28 28.384C133.28 26.872 132.776 24.632 130.872 24.632C130.312 24.632 130.032 24.688 129.416 24.968C125.328 28.104 122.696 32.584 122.696 37.68C122.696 37.96 123.032 40.032 123.032 40.312C123.144 40.76 123.76 40.648 124.04 40.648C127.96 40.648 133.28 31.688 133.28 28.384ZM171.372 32.864C171.372 33.088 171.316 33.368 171.26 33.592C170.868 35.16 169.804 37.232 168.46 38.632C166.78 40.424 163.308 43.168 160.676 43.168H160.62C158.38 43.168 156.924 41.768 156.588 38.52C156.42 38.464 154.684 40.312 154.572 40.368C152.78 41.376 151.716 43.448 148.636 43.448C147.18 43.448 145.948 41.88 145.164 40.984V39.248C145.164 36.168 146.06 32.584 147.628 29.504C149.868 25.248 153.508 21.944 158.212 21.944C160.9 21.944 160.788 25.696 161.236 27.544C162.076 26.2 162.86 26.312 163.476 26.592C164.036 26.872 163.756 27.936 163.364 28.552C162.188 30.288 159.388 34.824 159.108 37.456C158.884 39.416 159.668 40.76 161.068 40.76C162.412 40.76 165.716 37.68 166.612 36.784C167.508 35.832 168.068 34.488 169.636 32.36C170.028 31.8 169.972 31.856 170.532 31.856C171.204 31.856 171.372 32.304 171.372 32.864ZM158.492 27.6C158.492 26.76 158.436 24.744 157.036 24.744C154.404 24.744 151.94 27.544 150.204 30.792C148.636 33.76 147.628 37.12 147.628 39.248C147.628 39.696 147.628 39.864 148.02 40.312H148.86C150.036 40.312 151.324 39.696 152.164 38.912C152.836 38.296 156.14 34.6 156.7 33.872C157.82 32.024 158.492 29.672 158.492 27.6ZM196.851 32.864C196.851 33.088 196.795 33.368 196.739 33.648C196.346 35.216 195.283 37.344 193.939 38.744C192.707 40.032 191.475 41.376 189.907 42.328C188.619 43.168 187.163 43.672 185.539 43.672C184.867 43.672 183.971 43.672 183.411 43.392C182.123 42.776 182.123 41.096 182.123 39.864C182.123 37.848 183.243 36.28 184.083 34.6C185.371 32.136 186.995 28.552 187.555 26.088C187.331 26.088 187.051 26.032 187.051 26.032C184.643 26.032 181.787 31.016 180.443 32.752C180.331 32.92 179.995 33.592 179.547 34.264C179.099 34.992 178.595 35.776 178.259 36.112C177.867 36.504 177.419 37.176 176.971 37.904L175.515 40.256C174.562 41.712 173.555 43.168 172.715 43.168C171.931 43.168 171.651 42.72 171.427 41.992C172.659 37.96 174.731 34.264 176.523 30.456C176.859 29.784 177.251 28.888 177.587 28.048C178.147 26.032 178.259 24.912 177.923 24.8C177.307 24.632 175.403 27.488 174.339 29.28C173.891 30.008 172.715 32.304 172.211 33.312C171.707 34.432 171.203 34.712 170.867 34.936C170.475 35.216 169.635 35.384 169.299 34.824C168.963 34.32 169.243 33.144 169.41 32.808L169.803 32.192C170.027 31.912 170.083 31.744 170.531 31.072C171.427 29.84 171.595 29.616 172.827 27.152C174.003 24.8 176.243 22.28 178.147 22.28C180.051 22.28 180.443 23.624 180.611 24.688C180.779 25.584 180.555 26.424 180.387 26.984L179.379 30.512C181.675 26.872 185.203 23.232 188.619 22.56C189.963 23.064 190.411 24.296 190.411 25.584V25.92C189.235 29.784 187.611 33.424 186.267 36.224C185.763 37.232 184.979 38.52 184.979 39.64C184.979 40.032 184.867 40.536 185.259 40.816C185.371 40.872 185.987 40.872 186.155 40.872C186.715 40.872 187.331 40.704 187.891 40.48C189.347 39.64 191.083 38.016 191.699 37.344C192.203 36.784 192.651 35.944 192.987 35.272C193.659 34.152 194.275 32.976 195.115 31.968C195.339 31.688 195.507 31.744 195.842 31.744C196.683 31.744 196.851 32.248 196.851 32.864ZM214.895 32.864C214.895 33.088 214.839 33.368 214.783 33.592C214.391 35.16 213.327 37.232 211.983 38.632C210.695 40.032 208.287 41.992 206.047 42.776C204.703 43.28 202.519 43.672 201.119 43.672C196.471 43.672 194.119 39.864 194.119 36.448C194.119 34.544 194.455 32.92 195.127 30.792C196.807 25.416 199.719 22.112 205.319 22.112C207.447 22.112 209.183 23.904 209.183 26.032C209.183 27.432 209.295 32.36 206.943 32.36C206.215 32.36 205.319 31.688 205.319 30.904C205.319 29.56 205.991 28.328 205.991 26.928V25.64C205.767 25.136 204.535 25.024 204.367 25.024C200.839 25.024 198.543 29.056 197.647 32.024C197.087 33.816 196.975 35.888 197.255 37.456C197.479 38.632 198.431 40.424 199.943 40.424C201.567 40.984 202.967 41.096 204.591 40.76C205.935 40.48 209.295 37.68 210.135 36.784C211.031 35.832 211.591 34.488 213.159 32.36C213.551 31.8 213.495 31.856 214.055 31.856C214.727 31.856 214.895 32.304 214.895 32.864ZM231.932 32.864C231.932 33.088 231.876 33.368 231.82 33.592C231.428 35.16 230.364 37.232 229.076 38.632C226.556 41.264 223.476 43.28 219.78 43.28C218.1 43.28 215.972 42.944 214.46 41.824C212.836 40.704 211.772 38.688 211.828 36.896C211.996 33.256 213.116 29.392 215.86 26.032C217.652 23.848 220.172 22.056 223.252 22.056C224.988 22.056 226.5 23.4 226.5 25.136C226.5 27.152 225.66 29 224.316 30.568C222.972 32.08 221.236 33.312 219.332 34.152C218.38 34.6 215.86 35.72 214.684 36.168C214.572 36.672 214.516 37.12 214.628 37.624C214.684 38.296 215.58 39.528 216.476 39.976C216.588 40.032 217.876 40.984 219.78 40.984C222.748 40.648 225.156 38.968 227.228 36.784C228.124 35.832 228.628 34.488 230.196 32.36C230.644 31.8 230.532 31.856 231.092 31.856C231.764 31.856 231.932 32.304 231.932 32.864ZM224.092 25.808C224.148 25.416 223.42 24.576 222.916 24.688C221.124 24.912 219.444 25.808 218.268 27.04C216.756 28.552 215.132 30.848 215.076 32.64C215.02 32.92 214.684 33.592 215.02 33.536C217.036 33.2 219.22 31.632 220.508 30.736C221.964 29.672 223.084 28.272 224.036 26.144C224.092 26.088 224.092 25.864 224.092 25.808Z" fill="#FEC46E"/>
</svg>
