<svg width="122" height="23" viewBox="0 0 122 23" fill="none" xmlns="http://www.w3.org/2000/svg">
<path d="M22.5098 3.2C22.5098 3.272 22.4858 3.368 22.4858 3.464C21.2378 4.664 20.4458 6.248 19.4618 7.64C18.9578 8.384 18.4538 9.032 18.0458 9.824C17.4938 10.88 17.0138 12.008 16.4858 13.112C15.9098 14.312 14.9258 15.488 14.9258 16.832C16.4138 16.832 17.8538 16.28 19.1738 15.776V15.992C19.1738 17.36 15.4538 18.008 14.3978 18.272C14.0138 19.112 13.1018 20.936 12.5258 21.464C12.4778 21.44 12.2137 21.56 12.1658 21.56C11.9738 21.56 11.9258 21.536 11.7338 21.536C11.5658 21.536 11.5418 21.416 11.5418 21.296C11.5418 20.912 12.7898 18.944 12.8378 18.584C12.0698 18.776 10.9658 18.896 10.3418 18.896C9.11775 18.896 7.77375 18.512 6.66975 18.008C6.28575 17.84 6.18975 17.696 5.78175 17.696C5.08575 17.696 3.57375 20.624 2.58975 20.624C2.03775 20.624 1.26975 20.12 1.29375 19.592L1.41375 19.472C2.56575 19.448 3.35775 17.84 4.22175 17.144C4.36575 17.048 4.36575 17.024 4.36575 16.856C4.36575 16.472 2.20575 15.44 2.20575 13.808C2.20575 11.408 6.26175 9.8 8.25375 9.824C8.63775 9.488 10.0778 7.4 10.0778 6.92C10.0298 6.896 9.88575 6.992 9.83775 6.992C9.74175 6.992 9.23775 7.28 9.06975 7.352C7.72575 7.928 6.23775 8.672 4.74975 8.672C2.39775 8.672 0.71775 7.76 0.71775 5.192C0.71775 3.8 2.70975 0.584 4.24575 0.584C4.46175 0.584 5.06175 0.775999 5.06175 0.943999C5.06175 1.376 1.72575 3.632 1.72575 5.192C1.72575 6.776 3.06975 7.52 4.53375 7.52C8.10975 7.52 10.6058 4.664 12.9338 2.336C13.1498 2.12 13.2698 2.024 13.6058 2.024C13.8698 2.024 14.1098 2.24 14.1098 2.528V2.624C14.1098 3.464 12.7898 4.448 12.3578 5.216C11.8058 6.176 11.4698 7.256 10.9178 8.24C10.7738 8.504 10.0058 9.656 10.1498 9.92C10.2938 10.184 11.6138 10.184 12.1178 10.376C12.7418 10.616 14.0858 11.624 14.3018 12.272C14.3498 12.392 14.5898 13.568 14.6858 13.952C14.9498 13.64 15.7418 11.744 15.8858 11.384C16.1498 10.712 17.2058 8.984 17.6378 8.24C18.6938 6.44 19.8698 4.664 21.1898 3.032C21.3818 2.816 21.5978 2.6 21.9098 2.6C22.2698 2.6 22.5098 2.816 22.5098 3.2ZM7.82175 11.168C6.47775 11.192 3.47775 12.368 3.47775 13.976C3.47775 14.744 4.60575 15.416 5.22975 15.704H5.37375C6.16575 15.032 7.24575 12.56 7.79775 11.552L7.82175 11.168ZM13.6778 15.392C13.6778 14.768 13.3658 14.168 13.2938 13.544C13.1018 11.984 11.0378 11.384 9.71775 11.384C8.99775 11.384 8.66175 12.752 8.39775 13.28C8.10975 13.856 6.66975 15.968 6.66975 16.424L6.81375 16.568C7.46175 16.88 8.85375 17.456 9.52575 17.504C10.6058 17.6 12.4778 17.408 13.1258 17.264C13.5578 16.76 13.6778 15.968 13.6778 15.392ZM25.1668 7.376C25.1668 7.928 24.6148 8.984 23.9668 8.984C23.4868 8.984 23.0308 8.408 23.0308 7.904C23.0308 7.256 23.8228 6.632 24.4468 6.632C24.9508 6.632 25.1668 6.872 25.1668 7.376ZM26.2708 15.656C26.2708 15.752 26.2468 15.872 26.2228 15.968C26.0548 16.64 25.5988 17.528 25.0228 18.128C24.3028 18.896 22.8148 20.072 21.6628 20.072C21.2548 20.072 20.8708 20.048 20.7748 19.928C20.0788 19.424 19.8628 18.104 19.8628 17.456C19.8628 15.128 21.4228 13.232 22.2868 11.264C22.3828 11.12 22.7188 10.808 22.9108 10.88C23.0788 10.952 23.4148 11.336 23.4148 11.576V11.648C22.4308 13.544 21.0388 15.488 21.0388 17.648C21.0388 17.912 21.2548 18.968 21.6628 18.968C21.9268 18.968 22.1908 18.92 22.4548 18.8C23.1268 18.416 23.9668 17.624 24.2308 17.336C24.6148 16.928 24.9268 16.352 25.5268 15.44C25.6948 15.2 25.6708 15.224 25.9108 15.224C26.1988 15.224 26.2708 15.416 26.2708 15.656ZM36.8008 15.728C36.7528 16.112 36.1768 17.336 36.0328 17.504C35.0248 18.728 34.4488 19.544 32.6728 20C32.4088 20.072 32.0968 20.096 31.8328 20.096C31.5688 20.096 31.4488 20.096 31.2088 20C30.5848 19.784 30.1288 18.824 30.1288 17.984C30.1288 17.144 30.3208 16.976 30.3208 16.112C30.3208 15.464 29.1928 15.56 29.1928 14.72C29.1928 14.24 29.7208 14.12 30.1048 14.12C30.5368 14.12 30.8968 14.408 31.3288 14.408C32.1448 14.408 32.9848 13.568 32.9848 12.776C32.9848 12.44 32.8408 12.152 32.5768 12.152C32.4808 12.152 31.4008 12.512 31.2808 12.584C29.8888 13.376 28.5448 13.76 27.1768 15.704C26.6968 16.4 26.3608 18.128 25.6408 19.352C25.4008 19.736 25.1608 20 24.9208 20C24.7528 20 24.6088 20.048 24.4408 20.048C24.2968 20.048 24.2008 19.976 24.2008 19.808C24.2008 19.4 24.8728 17.96 25.0648 17.504C25.4968 16.496 26.9128 12.584 26.9128 11.672C26.7928 11.432 26.7688 11.192 26.7688 10.928C26.7688 10.544 27.1768 10.472 27.4168 10.256C27.9208 8.432 28.3768 6.536 29.0248 4.76C29.3848 3.776 30.7768 1.4 31.9768 1.4C32.9368 1.4 33.0328 2.816 33.0328 3.512C33.0328 5.72 31.6168 8.672 30.0568 10.208C29.5288 10.712 28.9048 11.072 28.3048 11.48C28.1368 11.816 27.3208 13.712 27.2728 14.072C28.6648 12.248 31.4488 11.024 32.8648 11.024C33.5128 11.024 34.1368 11.552 34.1368 12.104C34.1368 14.072 32.9848 15.176 31.1128 15.368C31.3048 15.584 31.3528 15.848 31.3528 16.112C31.3528 16.856 31.2088 16.904 31.2088 17.624C31.2088 18.44 31.0408 19.064 32.1208 19.064C33.3448 19.064 34.4248 17.768 35.1928 16.712C35.5288 16.232 35.8408 15.728 36.0568 15.464C36.2008 15.296 36.2968 15.272 36.4408 15.272C36.7048 15.272 36.8248 15.44 36.8008 15.728ZM32.0248 3.224C32.0248 3.032 31.9768 2.768 31.7368 2.768C30.4888 2.768 28.7608 8.792 28.7608 9.968C29.0248 9.896 29.3848 9.392 29.5768 9.176C30.8248 7.712 31.4968 6.08 31.8568 4.208C31.9288 3.872 32.0248 3.56 32.0248 3.224ZM46.7031 15.656C46.7031 15.752 46.6791 15.872 46.6551 15.968C46.4871 16.64 46.0311 17.528 45.4551 18.128C44.7351 18.896 43.2471 20.072 42.1191 20.072H42.0951C41.1351 20.072 40.5111 19.472 40.3671 18.08C40.2951 18.056 39.5511 18.848 39.5031 18.872C38.7351 19.304 38.2791 20.192 36.9591 20.192C36.3351 20.192 35.8071 19.52 35.4711 19.136V18.392C35.4711 17.072 35.8551 15.536 36.5271 14.216C37.4871 12.392 39.0471 10.976 41.0631 10.976C42.2151 10.976 42.1671 12.584 42.3591 13.376C42.7191 12.8 43.0551 12.848 43.3191 12.968C43.5591 13.088 43.4391 13.544 43.2711 13.808C42.7671 14.552 41.5671 16.496 41.4471 17.624C41.3511 18.464 41.6871 19.04 42.2871 19.04C42.8631 19.04 44.2791 17.72 44.6631 17.336C45.0471 16.928 45.2871 16.352 45.9591 15.44C46.1271 15.2 46.1031 15.224 46.3431 15.224C46.6311 15.224 46.7031 15.416 46.7031 15.656ZM41.1831 13.4C41.1831 13.04 41.1591 12.176 40.5591 12.176C39.4311 12.176 38.3751 13.376 37.6311 14.768C36.9591 16.04 36.5271 17.48 36.5271 18.392C36.5271 18.584 36.5271 18.656 36.6951 18.848H37.0551C37.5591 18.848 38.1111 18.584 38.4711 18.248C38.7591 17.984 40.1751 16.4 40.4151 16.088C40.8951 15.296 41.1831 14.288 41.1831 13.4ZM53.9794 15.656C53.9794 15.752 53.9554 15.872 53.9314 15.968C53.7634 16.64 53.3074 17.528 52.7554 18.128C52.0594 18.848 50.6434 19.976 49.5394 20.072C49.3954 20.096 49.2514 20.12 49.1074 20.12C48.4114 20.12 47.5714 19.832 47.5714 18.944C47.5714 18.152 47.8594 17.12 48.3874 16.136C48.9154 15.128 49.7794 13.952 50.3314 13.112C49.6354 13.28 48.7474 13.16 48.5074 13.112C48.2914 13.28 48.3394 13.328 48.1234 13.616C47.9074 13.88 47.0674 15.536 46.8514 15.896C46.4194 16.592 46.3714 16.976 45.7954 16.976C45.6274 16.976 45.2434 16.88 45.2914 16.568L45.3634 16.136C45.6994 15.68 45.6514 15.776 46.1074 15.008C46.7314 14 47.2114 13.184 47.5954 12.536C47.5714 12.368 47.3794 12.368 47.3314 12.272L47.1394 11.96C46.9954 11.744 47.0434 11.168 47.0434 10.904C47.0434 9.824 48.1714 8.888 49.3234 8.888C49.8034 8.888 50.2594 9.416 50.2594 9.896C50.2594 10.472 50.1634 10.64 49.9474 11.12C49.7554 11.528 49.6354 11.672 49.3954 12.032C49.6354 12.104 50.2114 12.08 50.4514 12.056C51.0034 11.984 51.2194 11.552 51.8434 11.552C52.2274 11.552 52.3714 11.888 52.3714 12.176C52.3714 12.416 52.2754 12.56 52.1074 12.728L52.0354 12.8C51.5074 13.328 50.2114 15.08 49.8514 15.632C49.1794 16.664 48.6754 17.696 48.6754 18.632C48.6754 18.968 49.0114 19.016 49.5154 19.016C50.0914 19.016 51.5794 17.72 51.9394 17.336C52.3234 16.928 52.6354 16.352 53.2354 15.44C53.4034 15.2 53.3794 15.224 53.6194 15.224C53.9074 15.224 53.9794 15.416 53.9794 15.656ZM49.0114 9.944C48.2674 9.896 48.0514 10.448 48.0514 11.072C48.0514 11.312 48.4114 11.576 48.4354 11.576C48.6754 11.384 49.2754 10.4 49.0114 9.944ZM62.5148 15.656C62.5148 15.752 62.4908 15.872 62.4668 15.968C62.2988 16.64 61.8428 17.528 61.2908 18.128C60.6428 18.8 59.5148 19.712 58.6268 20.024C58.4108 20.072 58.0508 20.168 57.9068 20.168C57.4988 20.168 56.9948 19.832 56.8988 19.352C56.8268 18.992 56.9948 18.344 57.0668 17.744C56.9708 17.744 57.0668 17.48 57.0908 17.384C56.7068 18.296 55.5548 20.144 54.4268 20.12C53.8988 20.12 53.2268 19.952 52.9148 19.4C52.5548 18.752 52.4588 17.72 52.5068 17.312C52.5548 16.88 53.0588 15.488 53.0588 15.344C53.2988 14.936 53.4428 14.264 53.5628 13.928C53.8027 13.28 54.7628 11.384 55.2908 11.336C55.5548 11.312 55.6748 11.504 55.6748 11.792V11.96C55.1948 13.088 55.0028 13.376 54.6188 14.24C54.2588 15.056 53.8508 16.208 53.6588 17.384C53.5628 18.008 53.7068 18.32 53.8508 18.728C53.9468 18.992 54.2348 18.992 54.4748 18.992C54.9548 18.992 55.9148 17.456 56.6588 16.256C57.0908 15.56 57.4508 14.936 57.5948 14.672C58.2908 13.4 58.3388 12.416 59.5148 11.528L59.7068 11.504C60.0188 11.504 60.1388 11.696 60.1148 11.984C60.0908 12.368 60.1148 12.128 59.9468 12.488C59.4668 13.52 58.9388 14.456 58.4588 15.824C58.1468 16.712 57.9788 17.72 57.9068 18.464L57.9308 18.968L57.9788 19.04C58.0988 19.04 58.2188 19.088 58.3628 19.04C58.8668 18.824 60.1148 17.72 60.4748 17.336C60.8588 16.928 61.0988 16.352 61.7708 15.44C61.9628 15.2 61.9148 15.224 62.1548 15.224C62.4428 15.224 62.5148 15.416 62.5148 15.656ZM77.4769 19.544C77.5489 19.688 77.4529 19.808 77.3329 19.976C77.1649 20.024 76.3969 20.216 76.2289 20.24H76.1569C74.8129 20.24 73.0129 19.328 72.0289 18.296H71.6209C70.3249 19.352 68.4529 20.504 66.7249 20.504C65.2609 20.504 64.3009 19.616 63.4129 18.56C63.2209 18.344 62.7889 18.08 62.7169 17.744V16.712C62.7169 13.544 64.6129 11.48 66.8209 9.392C67.1809 7.016 66.7489 3.056 70.3249 3.056L71.0689 3.08C71.8849 3.296 72.1969 4.448 72.1969 5.144C72.1969 5.672 72.1729 5.984 71.8849 6.512C70.8049 7.784 69.5809 8.72 68.4769 9.944C68.7169 10.76 71.1409 16.112 71.8369 16.112C71.8609 16.112 72.0049 16.112 72.0289 16.088C72.8449 15.176 73.1329 14.264 73.1329 12.992C73.1329 12.824 73.1569 12.368 72.9169 12.368C72.9169 12.368 72.8689 12.392 72.8449 12.392L72.0289 13.208C72.0289 13.232 71.8609 13.232 71.8129 13.232C71.3329 13.232 70.8049 12.872 70.8049 12.344C70.8049 11.096 71.4769 10.328 72.7009 10.328C73.9729 10.328 74.3569 11.552 74.3569 12.728C74.3569 13.592 74.2849 14.696 73.9489 15.56C73.7089 16.136 72.9889 16.616 72.9889 17.264V17.456C73.3489 18.008 74.3089 18.44 75.2689 18.704C76.2769 18.992 77.3089 19.112 77.4769 19.544ZM70.9489 5.072C70.9489 5 70.9489 4.664 70.9249 4.592C70.7329 4.28 70.3969 4.16 70.0369 4.16L69.8449 4.184C68.5729 5.192 68.2369 6.608 68.2369 8.144H68.4769C68.5009 8.144 69.1729 7.568 69.4369 7.328L70.8049 5.96C70.9729 5.672 70.9489 5.384 70.9489 5.072ZM70.8049 17.048C70.3969 16.496 70.2289 15.8 69.8449 15.272C69.0049 14.168 68.4529 13.136 67.9249 11.84L67.5169 11.024C67.4209 10.88 67.3729 10.88 67.2289 10.88H67.1089C65.2609 12.488 63.7969 14.456 63.7969 16.976C63.7969 18.2 65.6689 19.28 66.7249 19.28C67.4449 19.28 70.8049 18.128 70.8049 17.192V17.048ZM99.6077 19.52C98.2397 20.984 97.5197 22.304 95.2157 22.304C94.2797 22.304 93.7997 21.776 93.1037 21.032C92.5037 20.36 92.3837 18.992 92.3837 18.176C92.3837 16.856 93.2237 15.08 93.5357 13.76C93.8957 12.128 94.1837 10.76 94.6637 9.152C94.9277 8.288 96.5597 5.336 96.5597 4.376C96.5357 4.376 96.6077 3.848 96.5597 3.872C95.9357 4.496 93.2957 9.848 92.6957 10.784C92.3357 11.312 89.7437 14.576 89.2637 14.576C88.8077 14.576 88.4237 14.192 88.4237 13.76C88.4237 13.4 88.5917 13.208 88.5917 12.824C88.5917 12.416 88.5677 10.496 88.6397 9.776C88.7357 8.84 89.2397 5.216 89.2637 3.68C89.2157 3.68 88.4717 5.96 88.4237 5.984C88.0157 6.152 87.6317 8.312 87.4397 8.648C87.1997 9.152 85.8077 11.792 85.4717 12.416C85.4237 12.488 85.1837 12.896 85.1357 12.944L84.9677 13.256C84.3677 14.264 82.7597 16.904 82.6637 17.024C81.7997 18.32 80.4557 20 78.6557 20C76.3517 20 76.4477 19.328 75.7517 17.528C75.7517 17.456 75.4637 16.952 75.4397 16.88V16.712C75.4397 16.28 75.9197 16.208 76.2797 16.208C77.5037 16.208 76.1597 18.728 78.2957 18.728C79.8557 18.728 80.2397 18.128 81.3677 16.904C83.4797 13.688 85.0877 10.328 86.7917 6.848C87.4877 5.384 88.3037 2.12 89.8157 1.184H90.0317C90.1757 1.184 90.4157 1.16 90.4397 1.352C90.4637 1.52 90.3917 2.168 90.4637 2.6C90.6557 3.656 90.2717 4.712 90.2717 5.816C90.2717 7.304 89.4797 11.192 89.5757 12.8C89.5997 12.8 90.9197 11.168 91.1357 10.88C91.5917 10.28 93.2717 6.968 93.8477 6.032C94.1837 5.48 95.7917 2.96 96.1517 2.408C96.6317 1.856 97.3277 1.088 98.1437 1.088C98.4797 1.088 98.6237 1.328 98.6237 1.664C98.6237 2.696 97.9997 3.608 97.6397 4.544C96.4157 7.784 95.5757 11.072 94.6877 14.408C94.3277 15.728 93.8477 16.976 93.8477 18.368C93.8477 18.896 93.9197 19.592 94.2077 20.144C94.4717 20.648 94.8797 21.008 95.5517 21.008C96.7277 21.008 97.4237 20.216 98.2157 19.496C98.4797 19.256 98.4797 18.776 99.3437 18.776C99.7997 18.776 99.5837 19.28 99.6077 19.52ZM104.784 7.376C104.784 7.928 104.232 8.984 103.584 8.984C103.104 8.984 102.648 8.408 102.648 7.904C102.648 7.256 103.44 6.632 104.064 6.632C104.568 6.632 104.784 6.872 104.784 7.376ZM105.888 15.656C105.888 15.752 105.864 15.872 105.84 15.968C105.672 16.64 105.216 17.528 104.64 18.128C103.92 18.896 102.432 20.072 101.28 20.072C100.872 20.072 100.488 20.048 100.392 19.928C99.696 19.424 99.48 18.104 99.48 17.456C99.48 15.128 101.04 13.232 101.904 11.264C102 11.12 102.336 10.808 102.528 10.88C102.696 10.952 103.032 11.336 103.032 11.576V11.648C102.048 13.544 100.656 15.488 100.656 17.648C100.656 17.912 100.872 18.968 101.28 18.968C101.544 18.968 101.808 18.92 102.072 18.8C102.744 18.416 103.584 17.624 103.848 17.336C104.232 16.928 104.544 16.352 105.144 15.44C105.312 15.2 105.288 15.224 105.528 15.224C105.816 15.224 105.888 15.416 105.888 15.656ZM116.418 15.728C116.37 16.112 115.794 17.336 115.65 17.504C114.642 18.728 114.066 19.544 112.29 20C112.026 20.072 111.714 20.096 111.45 20.096C111.186 20.096 111.066 20.096 110.826 20C110.202 19.784 109.746 18.824 109.746 17.984C109.746 17.144 109.938 16.976 109.938 16.112C109.938 15.464 108.81 15.56 108.81 14.72C108.81 14.24 109.338 14.12 109.722 14.12C110.154 14.12 110.514 14.408 110.946 14.408C111.762 14.408 112.602 13.568 112.602 12.776C112.602 12.44 112.458 12.152 112.194 12.152C112.098 12.152 111.018 12.512 110.898 12.584C109.506 13.376 108.162 13.76 106.794 15.704C106.314 16.4 105.978 18.128 105.258 19.352C105.018 19.736 104.778 20 104.538 20C104.37 20 104.226 20.048 104.058 20.048C103.914 20.048 103.818 19.976 103.818 19.808C103.818 19.4 104.49 17.96 104.682 17.504C105.114 16.496 106.53 12.584 106.53 11.672C106.41 11.432 106.386 11.192 106.386 10.928C106.386 10.544 106.794 10.472 107.034 10.256C107.538 8.432 107.994 6.536 108.642 4.76C109.002 3.776 110.394 1.4 111.594 1.4C112.554 1.4 112.65 2.816 112.65 3.512C112.65 5.72 111.234 8.672 109.674 10.208C109.146 10.712 108.522 11.072 107.922 11.48C107.754 11.816 106.938 13.712 106.89 14.072C108.282 12.248 111.066 11.024 112.482 11.024C113.13 11.024 113.754 11.552 113.754 12.104C113.754 14.072 112.602 15.176 110.73 15.368C110.922 15.584 110.97 15.848 110.97 16.112C110.97 16.856 110.826 16.904 110.826 17.624C110.826 18.44 110.658 19.064 111.738 19.064C112.962 19.064 114.042 17.768 114.81 16.712C115.146 16.232 115.458 15.728 115.674 15.464C115.818 15.296 115.914 15.272 116.058 15.272C116.322 15.272 116.442 15.44 116.418 15.728ZM111.642 3.224C111.642 3.032 111.594 2.768 111.354 2.768C110.106 2.768 108.378 8.792 108.378 9.968C108.642 9.896 109.002 9.392 109.194 9.176C110.442 7.712 111.114 6.08 111.474 4.208C111.546 3.872 111.642 3.56 111.642 3.224ZM120.44 7.376C120.44 7.928 119.888 8.984 119.24 8.984C118.76 8.984 118.304 8.408 118.304 7.904C118.304 7.256 119.096 6.632 119.72 6.632C120.224 6.632 120.44 6.872 120.44 7.376ZM121.544 15.656C121.544 15.752 121.52 15.872 121.496 15.968C121.328 16.64 120.872 17.528 120.296 18.128C119.576 18.896 118.088 20.072 116.936 20.072C116.528 20.072 116.144 20.048 116.048 19.928C115.352 19.424 115.136 18.104 115.136 17.456C115.136 15.128 116.696 13.232 117.56 11.264C117.656 11.12 117.992 10.808 118.184 10.88C118.352 10.952 118.688 11.336 118.688 11.576V11.648C117.704 13.544 116.312 15.488 116.312 17.648C116.312 17.912 116.528 18.968 116.936 18.968C117.2 18.968 117.464 18.92 117.728 18.8C118.4 18.416 119.24 17.624 119.504 17.336C119.888 16.928 120.2 16.352 120.8 15.44C120.968 15.2 120.944 15.224 121.184 15.224C121.472 15.224 121.544 15.416 121.544 15.656Z" fill="white"/>
</svg>
