<svg width="253" height="45" viewBox="0 0 253 45" fill="none" xmlns="http://www.w3.org/2000/svg">
<path d="M25.0442 21.84C25.1242 22.36 24.4842 23.2 23.6442 24C22.5642 25.04 21.1242 25.96 20.4842 25.96C19.1242 25.96 18.4042 25.28 18.0842 24.76C17.4842 25.8 16.8442 27.24 16.0842 28.16C14.9642 29.52 13.0442 31.36 11.2042 31.36H10.8442C9.24422 30.4 8.64422 28.08 8.44422 26.36C8.40422 26.36 7.64422 27.08 7.60422 27.16C6.64422 28.4 5.32422 31.16 2.56422 31.16C1.40422 31.16 0.484219 30.16 0.124219 29.08V27.6C0.124219 23.2 2.00422 20 4.00422 16.32C4.32422 15.76 4.56422 15 5.44422 15C5.88422 15 6.04422 15.16 6.04422 15.6C6.04422 16.28 6.20422 15.8 5.76422 16.72C4.16422 20.08 1.88422 23.36 1.88422 27.12C1.88422 27.36 1.92422 28.4 1.96422 28.64C2.00422 29 3.04422 29 3.16422 29C4.64422 29 7.00422 25.56 7.84422 24.32C9.52422 21.8 10.4442 19.72 11.7642 17C12.0442 16.76 12.2442 16.72 12.6042 16.72C13.1642 16.72 13.4042 17.12 13.4042 17.68L13.3642 18.12L11.7642 21.56C11.2442 22.72 10.3642 24.12 10.3642 25.4C10.3642 26.28 10.4842 28.08 11.0842 28.84C11.1642 28.88 11.6442 28.92 11.7642 28.92C13.2842 28.92 14.8442 26.8 15.6842 25.28L16.7642 23.16L16.8842 23C16.6042 22.16 16.6842 20.88 16.7242 20.04C16.7642 19.28 18.2842 14.68 19.8442 14.68C20.2442 14.68 20.9242 14.88 21.1242 15.24C21.2842 16.16 21.2442 16.6 21.2042 17.4C21.1642 18.8 19.8842 21.16 19.4042 22.4L19.3642 22.76C19.3242 23 19.4842 24.28 20.2442 24.28C22.0442 24.28 23.1242 21.44 24.2842 21.32C24.7242 21.28 25.0042 21.48 25.0442 21.84ZM37.2948 23.76C37.2948 23.92 37.2548 24.12 37.2148 24.28C36.9348 25.4 36.1748 26.88 35.2548 27.88C33.4548 29.76 31.2548 31.2 28.6148 31.2C27.4148 31.2 25.8948 30.96 24.8148 30.16C23.6548 29.36 22.8948 27.92 22.9348 26.64C23.0548 24.04 23.8548 21.28 25.8148 18.88C27.0948 17.32 28.8948 16.04 31.0948 16.04C32.3348 16.04 33.4148 17 33.4148 18.24C33.4148 19.68 32.8148 21 31.8548 22.12C30.8948 23.2 29.6548 24.08 28.2948 24.68C27.6148 25 25.8148 25.8 24.9748 26.12C24.8948 26.48 24.8548 26.8 24.9348 27.16C24.9748 27.64 25.6148 28.52 26.2548 28.84C26.3348 28.88 27.2548 29.56 28.6148 29.56C30.7348 29.32 32.4548 28.12 33.9348 26.56C34.5748 25.88 34.9348 24.92 36.0548 23.4C36.3748 23 36.2948 23.04 36.6948 23.04C37.1748 23.04 37.2948 23.36 37.2948 23.76ZM31.6948 18.72C31.7348 18.44 31.2148 17.84 30.8548 17.92C29.5748 18.08 28.3748 18.72 27.5348 19.6C26.4548 20.68 25.2948 22.32 25.2548 23.6C25.2148 23.8 24.9748 24.28 25.2148 24.24C26.6548 24 28.2148 22.88 29.1348 22.24C30.1748 21.48 30.9748 20.48 31.6548 18.96C31.6948 18.92 31.6948 18.76 31.6948 18.72ZM55.2823 2.44C55.2823 2.52 55.2823 2.92 55.2423 3C54.9223 3.92 54.5623 4.8 54.1623 5.68C52.9623 8.36 50.1623 13.8 48.8823 16.52C47.5623 19.2 46.4423 21.92 45.9623 24.8C45.7623 25.84 45.6823 26.84 45.6823 27.92C45.6823 28.4 46.0023 29.6 46.6823 29.6C48.5223 29.56 49.4023 29.28 51.8823 26.8C52.5223 26.12 53.0423 24.92 54.0423 23.4C54.3223 23 54.2823 23.04 54.6423 23.04C55.1623 23.04 55.2423 23.36 55.2423 23.76C55.2423 23.92 55.2423 24.12 55.2023 24.28C54.9223 25.4 54.1623 26.88 53.2023 27.88C51.2023 30 49.3223 31.32 46.6423 31.32C43.1623 31.32 43.8823 27.92 43.8423 27.4C42.2823 29.12 40.3623 31.12 37.9623 31.12C35.8823 31.12 35.1623 28.72 35.1623 27C35.1623 23.52 39.0823 15.6 43.2423 15.6C45.0023 15.6 45.0023 17.44 45.9623 17.44C46.1623 17.44 46.2823 17.48 46.4023 17.2L51.8423 5.28C52.6023 4.44 53.4023 1.4 54.4423 1.4C55.1223 1.4 55.2823 1.88 55.2823 2.44ZM44.6023 20.56C44.6023 19.48 44.2423 17.88 42.8823 17.88C42.4823 17.88 42.2823 17.92 41.8423 18.12C38.9223 20.36 37.0423 23.56 37.0423 27.2C37.0423 27.4 37.2823 28.88 37.2823 29.08C37.3623 29.4 37.8023 29.32 38.0023 29.32C40.8023 29.32 44.6023 22.92 44.6023 20.56ZM73.2511 2.44C73.2511 2.52 73.2511 2.92 73.2111 3C72.8911 3.92 72.5311 4.8 72.1311 5.68C70.9311 8.36 68.1311 13.8 66.8511 16.52C65.5311 19.2 64.4111 21.92 63.9311 24.8C63.7311 25.84 63.6511 26.84 63.6511 27.92C63.6511 28.4 63.9711 29.6 64.6511 29.6C66.4911 29.56 67.3711 29.28 69.8511 26.8C70.4911 26.12 71.0111 24.92 72.0111 23.4C72.2911 23 72.2511 23.04 72.6111 23.04C73.1311 23.04 73.2111 23.36 73.2111 23.76C73.2111 23.92 73.2111 24.12 73.1711 24.28C72.8911 25.4 72.1311 26.88 71.1711 27.88C69.1711 30 67.2911 31.32 64.6111 31.32C61.1311 31.32 61.8511 27.92 61.8111 27.4C60.2511 29.12 58.3311 31.12 55.9311 31.12C53.8511 31.12 53.1311 28.72 53.1311 27C53.1311 23.52 57.0511 15.6 61.2111 15.6C62.9711 15.6 62.9711 17.44 63.9311 17.44C64.1311 17.44 64.2511 17.48 64.3711 17.2L69.8111 5.28C70.5711 4.44 71.3711 1.4 72.4111 1.4C73.0911 1.4 73.2511 1.88 73.2511 2.44ZM62.5711 20.56C62.5711 19.48 62.2111 17.88 60.8511 17.88C60.4511 17.88 60.2511 17.92 59.8111 18.12C56.8911 20.36 55.0111 23.56 55.0111 27.2C55.0111 27.4 55.2511 28.88 55.2511 29.08C55.3311 29.4 55.7711 29.32 55.9711 29.32C58.7711 29.32 62.5711 22.92 62.5711 20.56ZM79.9798 9.96C79.9798 10.88 79.0598 12.64 77.9798 12.64C77.1798 12.64 76.4198 11.68 76.4198 10.84C76.4198 9.76 77.7398 8.72 78.7798 8.72C79.6198 8.72 79.9798 9.12 79.9798 9.96ZM81.8198 23.76C81.8198 23.92 81.7798 24.12 81.7398 24.28C81.4598 25.4 80.6998 26.88 79.7398 27.88C78.5398 29.16 76.0598 31.12 74.1398 31.12C73.4598 31.12 72.8198 31.08 72.6598 30.88C71.4998 30.04 71.1398 27.84 71.1398 26.76C71.1398 22.88 73.7398 19.72 75.1798 16.44C75.3398 16.2 75.8998 15.68 76.2198 15.8C76.4998 15.92 77.0598 16.56 77.0598 16.96V17.08C75.4198 20.24 73.0998 23.48 73.0998 27.08C73.0998 27.52 73.4598 29.28 74.1398 29.28C74.5798 29.28 75.0198 29.2 75.4598 29C76.5798 28.36 77.9798 27.04 78.4198 26.56C79.0598 25.88 79.5798 24.92 80.5798 23.4C80.8598 23 80.8198 23.04 81.2198 23.04C81.6998 23.04 81.8198 23.36 81.8198 23.76ZM100.01 23.76C100.01 23.92 99.9698 24.12 99.9298 24.32C99.6498 25.44 98.8898 26.96 97.9298 27.96C97.0498 28.88 96.1698 29.84 95.0498 30.52C94.1298 31.12 93.0898 31.48 91.9298 31.48C91.4498 31.48 90.8098 31.48 90.4098 31.28C89.4898 30.84 89.4898 29.64 89.4898 28.76C89.4898 27.32 90.2898 26.2 90.8898 25C91.8098 23.24 92.9698 20.68 93.3698 18.92C93.2098 18.92 93.0098 18.88 93.0098 18.88C91.2898 18.88 89.2498 22.44 88.2898 23.68C88.2098 23.8 87.9698 24.28 87.6498 24.76C87.3298 25.28 86.9698 25.84 86.7298 26.08C86.4498 26.36 86.1298 26.84 85.8098 27.36L84.7698 29.04C84.0898 30.08 83.3698 31.12 82.7698 31.12C82.2098 31.12 82.0098 30.8 81.8498 30.28C82.7298 27.4 84.2098 24.76 85.4898 22.04C85.7298 21.56 86.0098 20.92 86.2498 20.32C86.6498 18.88 86.7298 18.08 86.4898 18C86.0498 17.88 84.6898 19.92 83.9298 21.2C83.6098 21.72 82.7698 23.36 82.4098 24.08C82.0498 24.88 81.6898 25.08 81.4498 25.24C81.1698 25.44 80.5698 25.56 80.3298 25.16C80.0898 24.8 80.2898 23.96 80.4098 23.72L80.6898 23.28C80.8498 23.08 80.8898 22.96 81.2098 22.48C81.8498 21.6 81.9698 21.44 82.8498 19.68C83.6898 18 85.2898 16.2 86.6498 16.2C88.0098 16.2 88.2898 17.16 88.4098 17.92C88.5298 18.56 88.3698 19.16 88.2498 19.56L87.5298 22.08C89.1698 19.48 91.6898 16.88 94.1298 16.4C95.0898 16.76 95.4098 17.64 95.4098 18.56V18.8C94.5698 21.56 93.4098 24.16 92.4498 26.16C92.0898 26.88 91.5298 27.8 91.5298 28.6C91.5298 28.88 91.4498 29.24 91.7298 29.44C91.8098 29.48 92.2498 29.48 92.3698 29.48C92.7698 29.48 93.2098 29.36 93.6098 29.2C94.6498 28.6 95.8898 27.44 96.3298 26.96C96.6898 26.56 97.0098 25.96 97.2498 25.48C97.7298 24.68 98.1698 23.84 98.7698 23.12C98.9298 22.92 99.0498 22.96 99.2898 22.96C99.8898 22.96 100.01 23.32 100.01 23.76ZM114.779 23.76C114.779 23.92 114.779 24.12 114.739 24.28C113.819 28 109.379 31.2 105.739 31.8C104.859 33.72 104.219 36.04 103.299 37.84C103.179 38.08 103.019 38.32 102.859 38.52C100.739 41.48 99.6186 44.8 95.3786 44.8C93.7786 44.8 92.1386 42.68 92.5786 40.68C93.0186 38.68 95.3786 36.64 96.8986 35.56C98.4586 34.44 100.099 33.36 101.699 32.24L103.539 31C103.739 30.76 103.979 30.44 103.979 30.12C103.979 29.76 103.859 29.4 103.859 29.04C102.739 30.16 101.299 31.32 99.8586 31.32C97.4986 31.32 97.2186 29.8 97.2186 27.8C97.2186 25.76 98.4186 22.2 99.8586 20.08C101.499 17.6 103.899 15.64 106.579 15.64C109.539 15.64 109.499 19.36 109.499 21.48C109.499 23.84 106.739 26.68 106.579 29.48C106.859 29.4 107.179 29.4 107.459 29.4C108.419 29.4 110.739 27.28 111.419 26.56C112.259 25.64 112.819 24.4 113.579 23.4C113.819 23.08 113.779 23.04 114.179 23.04C114.659 23.04 114.779 23.32 114.779 23.76ZM107.219 19.68C107.219 18.88 107.179 17.72 106.099 17.72C104.499 17.72 102.779 19.44 101.499 21.48C100.379 23.28 99.2586 26.36 99.2586 27.64C99.2586 28.48 99.0586 29.28 100.179 29.28C101.699 29.28 103.939 27.2 105.219 25.44C106.539 23.64 107.219 21.12 107.219 19.68ZM102.459 33.84C100.819 34.88 94.5386 38.92 94.5386 40.92C94.5386 41.84 95.0586 42.88 96.0186 42.88C98.2986 42.88 101.619 37.44 102.019 35.8C102.059 35.6 102.739 33.88 102.459 33.84ZM132.441 9.96C132.441 10.88 131.521 12.64 130.441 12.64C129.641 12.64 128.881 11.68 128.881 10.84C128.881 9.76 130.201 8.72 131.241 8.72C132.081 8.72 132.441 9.12 132.441 9.96ZM134.281 23.76C134.281 23.92 134.241 24.12 134.201 24.28C133.921 25.4 133.161 26.88 132.201 27.88C131.001 29.16 128.521 31.12 126.601 31.12C125.921 31.12 125.281 31.08 125.121 30.88C123.961 30.04 123.601 27.84 123.601 26.76C123.601 22.88 126.201 19.72 127.641 16.44C127.801 16.2 128.361 15.68 128.681 15.8C128.961 15.92 129.521 16.56 129.521 16.96V17.08C127.881 20.24 125.561 23.48 125.561 27.08C125.561 27.52 125.921 29.28 126.601 29.28C127.041 29.28 127.481 29.2 127.921 29C129.041 28.36 130.441 27.04 130.881 26.56C131.521 25.88 132.041 24.92 133.041 23.4C133.321 23 133.281 23.04 133.681 23.04C134.161 23.04 134.281 23.36 134.281 23.76ZM152.471 23.76C152.471 23.92 152.431 24.12 152.391 24.32C152.111 25.44 151.351 26.96 150.391 27.96C149.511 28.88 148.631 29.84 147.511 30.52C146.591 31.12 145.551 31.48 144.391 31.48C143.911 31.48 143.271 31.48 142.871 31.28C141.951 30.84 141.951 29.64 141.951 28.76C141.951 27.32 142.751 26.2 143.351 25C144.271 23.24 145.431 20.68 145.831 18.92C145.671 18.92 145.471 18.88 145.471 18.88C143.751 18.88 141.711 22.44 140.751 23.68C140.671 23.8 140.431 24.28 140.111 24.76C139.791 25.28 139.431 25.84 139.191 26.08C138.911 26.36 138.591 26.84 138.271 27.36L137.231 29.04C136.551 30.08 135.831 31.12 135.231 31.12C134.671 31.12 134.471 30.8 134.311 30.28C135.191 27.4 136.671 24.76 137.951 22.04C138.191 21.56 138.471 20.92 138.711 20.32C139.111 18.88 139.191 18.08 138.951 18C138.511 17.88 137.151 19.92 136.391 21.2C136.071 21.72 135.231 23.36 134.871 24.08C134.511 24.88 134.151 25.08 133.911 25.24C133.631 25.44 133.031 25.56 132.791 25.16C132.551 24.8 132.751 23.96 132.871 23.72L133.151 23.28C133.311 23.08 133.351 22.96 133.671 22.48C134.311 21.6 134.431 21.44 135.311 19.68C136.151 18 137.751 16.2 139.111 16.2C140.471 16.2 140.751 17.16 140.871 17.92C140.991 18.56 140.831 19.16 140.711 19.56L139.991 22.08C141.631 19.48 144.151 16.88 146.591 16.4C147.551 16.76 147.871 17.64 147.871 18.56V18.8C147.031 21.56 145.871 24.16 144.911 26.16C144.551 26.88 143.991 27.8 143.991 28.6C143.991 28.88 143.911 29.24 144.191 29.44C144.271 29.48 144.711 29.48 144.831 29.48C145.231 29.48 145.671 29.36 146.071 29.2C147.111 28.6 148.351 27.44 148.791 26.96C149.151 26.56 149.471 25.96 149.711 25.48C150.191 24.68 150.631 23.84 151.231 23.12C151.391 22.92 151.511 22.96 151.751 22.96C152.351 22.96 152.471 23.32 152.471 23.76ZM165.64 21.48C165.6 22.68 160.8 25.36 159.68 25.36C159.28 25.36 158.44 25.28 158.2 24.8C157.92 25.32 156.44 27.8 154.76 29.56C153.84 30.56 152.88 32 152 32C151.48 32 151.52 31 151.32 30.6C151.36 30.16 151.08 27.52 151 27.12C150.96 27 150.96 25.64 151 25.6C151.04 23.92 151 23.2 151 21.48C151.04 20.2 150.56 18.88 150.32 17.48C149.92 14.72 151.84 15.44 152.16 15.88C152.24 16.12 152.44 17.16 152.44 17.36C152.52 17.72 152.8 19.24 152.76 19.32C152.8 19.6 152.8 21.72 152.8 22.04C152.72 23.64 152.8 25 153 26.4C153.04 26.76 152.8 27.64 152.84 27.84L152.8 28.24C152.84 28.24 152.96 29.04 153 29C154.04 28.24 155.24 26.44 155.68 25.84L156.88 23.8C156.92 23.76 157.04 23.36 157.08 23.24C156.72 22.44 156.8 20.96 156.84 20.04C156.88 19.28 158.4 14.68 159.96 14.68C160.36 14.68 161.04 14.88 161.24 15.24C161.4 16.16 161.4 16.6 161.36 17.4C161.28 18.8 160.04 21.16 159.52 22.4L159.48 22.76C159.48 23 159.8 23.56 160.12 23.56C161.92 23.56 163.8 20.76 165 20.84C165.4 20.84 165.64 21.08 165.64 21.48ZM172.011 9.96C172.011 10.88 171.091 12.64 170.011 12.64C169.211 12.64 168.451 11.68 168.451 10.84C168.451 9.76 169.771 8.72 170.811 8.72C171.651 8.72 172.011 9.12 172.011 9.96ZM173.851 23.76C173.851 23.92 173.811 24.12 173.771 24.28C173.491 25.4 172.731 26.88 171.771 27.88C170.571 29.16 168.091 31.12 166.171 31.12C165.491 31.12 164.851 31.08 164.691 30.88C163.531 30.04 163.171 27.84 163.171 26.76C163.171 22.88 165.771 19.72 167.211 16.44C167.371 16.2 167.931 15.68 168.251 15.8C168.531 15.92 169.091 16.56 169.091 16.96V17.08C167.451 20.24 165.131 23.48 165.131 27.08C165.131 27.52 165.491 29.28 166.171 29.28C166.611 29.28 167.051 29.2 167.491 29C168.611 28.36 170.011 27.04 170.451 26.56C171.091 25.88 171.611 24.92 172.611 23.4C172.891 23 172.851 23.04 173.251 23.04C173.731 23.04 173.851 23.36 173.851 23.76ZM186.281 12.4C186.281 13.08 185.161 13.48 184.681 13.56C184.161 13.64 178.761 13.6 178.281 13.64C177.361 14.88 175.641 19.88 175.161 21.68C175.081 21.96 174.281 24.16 174.241 24.44C174.241 24.48 173.961 26.6 173.961 27.72C173.961 28.52 174.801 29.48 175.521 29.48C176.561 29.48 177.161 29.32 177.921 29.08C179.121 28.36 180.441 27.12 180.961 26.6C181.721 25.56 182.481 24.44 183.161 23.4C183.441 23 183.401 23.04 183.761 23.04C184.281 23.04 184.361 23.36 184.361 23.76C184.361 23.92 184.361 24.12 184.321 24.28C184.041 25.4 183.281 26.88 182.321 27.88C181.561 28.68 180.801 29.6 179.521 30.28C178.761 30.8 177.041 31.4 175.881 31.4C173.001 31.4 171.881 29.24 171.881 26.72C171.881 26.48 172.121 24.76 172.121 24.52C172.441 23.24 174.241 18.92 174.561 17.64C174.761 16.92 175.761 14.68 176.041 13.64C175.681 13.68 174.361 13.76 174.001 13.64C173.721 13.56 172.121 13.24 172.121 12.48C172.121 11.8 173.041 11.6 173.521 11.56C174.721 11.48 176.001 11.68 176.841 11.52C176.881 11.48 178.081 9.28 178.441 8.48L179.561 5.76L180.721 3.48C180.961 3.04 181.921 0.919999 182.881 0.919999C183.321 0.919999 183.921 1.24 183.921 1.76C183.921 2.68 182.841 3.92 182.441 4.72L179.201 11.48C180.121 11.52 183.601 11.48 185.361 11.48C185.721 11.48 186.281 12.08 186.281 12.4ZM200.913 23.76C200.913 23.92 200.873 24.12 200.833 24.28C200.553 25.4 199.793 26.88 198.833 27.88C197.633 29.16 195.153 31.12 193.273 31.12H193.233C191.633 31.12 190.593 30.12 190.353 27.8C190.233 27.76 188.993 29.08 188.913 29.12C187.633 29.84 186.873 31.32 184.673 31.32C183.633 31.32 182.753 30.2 182.193 29.56V28.32C182.193 26.12 182.833 23.56 183.953 21.36C185.553 18.32 188.153 15.96 191.513 15.96C193.433 15.96 193.353 18.64 193.673 19.96C194.273 19 194.833 19.08 195.273 19.28C195.673 19.48 195.473 20.24 195.193 20.68C194.353 21.92 192.353 25.16 192.153 27.04C191.993 28.44 192.553 29.4 193.553 29.4C194.513 29.4 196.873 27.2 197.513 26.56C198.153 25.88 198.553 24.92 199.673 23.4C199.953 23 199.913 23.04 200.313 23.04C200.793 23.04 200.913 23.36 200.913 23.76ZM191.713 20C191.713 19.4 191.673 17.96 190.673 17.96C188.793 17.96 187.033 19.96 185.793 22.28C184.673 24.4 183.953 26.8 183.953 28.32C183.953 28.64 183.953 28.76 184.233 29.08H184.833C185.673 29.08 186.593 28.64 187.193 28.08C187.673 27.64 190.033 25 190.433 24.48C191.233 23.16 191.713 21.48 191.713 20ZM213 12.4C213 13.08 211.88 13.48 211.4 13.56C210.88 13.64 205.48 13.6 205 13.64C204.08 14.88 202.36 19.88 201.88 21.68C201.8 21.96 201 24.16 200.96 24.44C200.96 24.48 200.68 26.6 200.68 27.72C200.68 28.52 201.52 29.48 202.24 29.48C203.28 29.48 203.88 29.32 204.64 29.08C205.84 28.36 207.16 27.12 207.68 26.6C208.44 25.56 209.2 24.44 209.88 23.4C210.16 23 210.12 23.04 210.48 23.04C211 23.04 211.08 23.36 211.08 23.76C211.08 23.92 211.08 24.12 211.04 24.28C210.76 25.4 210 26.88 209.04 27.88C208.28 28.68 207.52 29.6 206.24 30.28C205.48 30.8 203.76 31.4 202.6 31.4C199.72 31.4 198.6 29.24 198.6 26.72C198.6 26.48 198.84 24.76 198.84 24.52C199.16 23.24 200.96 18.92 201.28 17.64C201.48 16.92 202.48 14.68 202.76 13.64C202.4 13.68 201.08 13.76 200.72 13.64C200.44 13.56 198.84 13.24 198.84 12.48C198.84 11.8 199.76 11.6 200.24 11.56C201.44 11.48 202.72 11.68 203.56 11.52C203.6 11.48 204.8 9.28 205.16 8.48L206.28 5.76L207.44 3.48C207.68 3.04 208.64 0.919999 209.6 0.919999C210.04 0.919999 210.64 1.24 210.64 1.76C210.64 2.68 209.56 3.92 209.16 4.72L205.92 11.48C206.84 11.52 210.32 11.48 212.08 11.48C212.44 11.48 213 12.08 213 12.4ZM217.831 9.96C217.831 10.88 216.911 12.64 215.831 12.64C215.031 12.64 214.271 11.68 214.271 10.84C214.271 9.76 215.591 8.72 216.631 8.72C217.471 8.72 217.831 9.12 217.831 9.96ZM219.671 23.76C219.671 23.92 219.631 24.12 219.591 24.28C219.311 25.4 218.551 26.88 217.591 27.88C216.391 29.16 213.911 31.12 211.991 31.12C211.311 31.12 210.671 31.08 210.511 30.88C209.351 30.04 208.991 27.84 208.991 26.76C208.991 22.88 211.591 19.72 213.031 16.44C213.191 16.2 213.751 15.68 214.071 15.8C214.351 15.92 214.911 16.56 214.911 16.96V17.08C213.271 20.24 210.951 23.48 210.951 27.08C210.951 27.52 211.311 29.28 211.991 29.28C212.431 29.28 212.871 29.2 213.311 29C214.431 28.36 215.831 27.04 216.271 26.56C216.911 25.88 217.431 24.92 218.431 23.4C218.711 23 218.671 23.04 219.071 23.04C219.551 23.04 219.671 23.36 219.671 23.76ZM234.661 24.44C233.981 26.16 233.901 26.2 232.981 27.4C232.541 27.96 231.061 28.8 230.181 28.88C229.421 28.96 228.061 28.64 227.701 28.44C227.301 28.24 226.941 28 226.661 27.72C226.461 27.88 226.541 27.76 226.381 28.16C225.701 29 225.781 28.84 224.821 29.6C223.541 30.56 222.501 31.36 220.781 31.36C219.061 31.36 218.341 30.16 217.741 28.76V27.52C217.741 25.4 218.701 22.32 220.341 19.88C221.861 17.64 223.941 15.88 226.421 15.88C229.341 15.88 229.701 18.96 229.701 21.16C229.701 22.88 228.461 24.88 227.901 25.8C227.781 26.04 228.341 26.44 228.501 26.56C228.741 26.72 229.701 27.12 230.141 27.08C231.101 27 231.301 26.64 232.061 25.76C232.621 25.08 232.621 24.68 232.981 24.08C233.101 23.88 233.541 23.28 233.821 23.12C234.021 23 234.341 22.88 234.661 23.28C234.821 23.48 234.741 24.24 234.661 24.44ZM227.781 20.88C227.781 20.76 227.821 20.36 227.741 20.28C227.701 19.68 227.541 18.36 227.461 18.32C226.861 17.76 227.221 17.72 226.541 17.72C226.261 17.72 225.941 18 225.661 18.08C225.061 18.72 224.621 20.28 224.861 21.96C225.021 23.08 225.581 24.12 226.221 24.84C226.301 24.64 226.781 23.92 226.821 23.72C227.101 23 227.781 21.68 227.781 20.88ZM224.621 26C223.781 25 223.501 24.16 223.141 22.96C222.981 22.36 223.061 20.52 223.301 19.56C222.701 20.04 222.421 20.32 221.941 20.96C220.461 22.96 219.461 25.52 219.461 27.32C219.461 27.8 219.381 29.48 220.221 29.48C221.661 29.48 222.861 28.88 223.821 27.92C224.501 27.28 224.621 27.24 225.101 26.56L224.621 26ZM252.627 23.76C252.627 23.92 252.587 24.12 252.547 24.32C252.267 25.44 251.507 26.96 250.547 27.96C249.667 28.88 248.787 29.84 247.667 30.52C246.747 31.12 245.707 31.48 244.547 31.48C244.067 31.48 243.427 31.48 243.027 31.28C242.107 30.84 242.107 29.64 242.107 28.76C242.107 27.32 242.907 26.2 243.507 25C244.427 23.24 245.587 20.68 245.987 18.92C245.827 18.92 245.627 18.88 245.627 18.88C243.907 18.88 241.867 22.44 240.907 23.68C240.827 23.8 240.587 24.28 240.267 24.76C239.947 25.28 239.587 25.84 239.347 26.08C239.067 26.36 238.747 26.84 238.427 27.36L237.387 29.04C236.707 30.08 235.987 31.12 235.387 31.12C234.827 31.12 234.627 30.8 234.467 30.28C235.347 27.4 236.827 24.76 238.107 22.04C238.347 21.56 238.627 20.92 238.867 20.32C239.267 18.88 239.347 18.08 239.107 18C238.667 17.88 237.307 19.92 236.547 21.2C236.227 21.72 235.387 23.36 235.027 24.08C234.667 24.88 234.307 25.08 234.067 25.24C233.787 25.44 233.187 25.56 232.947 25.16C232.707 24.8 232.907 23.96 233.027 23.72L233.307 23.28C233.467 23.08 233.507 22.96 233.827 22.48C234.467 21.6 234.587 21.44 235.467 19.68C236.307 18 237.907 16.2 239.267 16.2C240.627 16.2 240.907 17.16 241.027 17.92C241.147 18.56 240.987 19.16 240.867 19.56L240.147 22.08C241.787 19.48 244.307 16.88 246.747 16.4C247.707 16.76 248.027 17.64 248.027 18.56V18.8C247.187 21.56 246.027 24.16 245.067 26.16C244.707 26.88 244.147 27.8 244.147 28.6C244.147 28.88 244.067 29.24 244.347 29.44C244.427 29.48 244.867 29.48 244.987 29.48C245.387 29.48 245.827 29.36 246.227 29.2C247.267 28.6 248.507 27.44 248.947 26.96C249.307 26.56 249.627 25.96 249.867 25.48C250.347 24.68 250.787 23.84 251.387 23.12C251.547 22.92 251.667 22.96 251.907 22.96C252.507 22.96 252.627 23.32 252.627 23.76Z" fill="white"/>
</svg>
