<svg width="170" height="63" viewBox="0 0 170 63" fill="none" xmlns="http://www.w3.org/2000/svg">
<path d="M40.712 28.72C40.712 30.064 37.8 35.832 37.016 37.232C35.448 40.032 33.656 42.888 31.864 45.52C28.28 50.84 18.648 53.584 12.544 53.584C8.064 53.584 3.696 50.896 0.896 47.48C0.616 47.144 0.56 46.92 0.56 46.472C0.56 45.52 1.512 45.52 2.184 45.52C5.32 48.264 8.68 51.008 13.048 51.008C15.568 51.008 17.976 49.944 20.384 49.384C26.264 47.984 29.008 45.352 31.864 40.088L32.088 39.416C32.032 39.248 31.808 39.36 31.584 39.472C26.992 42.16 21.56 43 16.296 43C11.592 43 8.736 40.312 7 36.224C6.608 35.384 6.16 34.264 5.992 33.368C5.768 32.024 5.936 30.344 5.936 28.944C5.936 27.208 6.944 25.752 6.944 25.08C4.76 22.952 2.128 20.096 2.128 16.848C2.128 12.816 2.968 11.136 5.656 8.168C6.048 7.72 7.728 5.872 8.4 5.872C8.904 5.872 9.184 6.376 9.184 6.824C9.184 8.84 4.368 11.752 4.368 17.128C4.368 18.472 7.056 22.112 8.288 22.448C9.352 21.272 10.92 18.136 11.76 17.072C14.336 13.712 20.16 7.552 23.576 5.256C25.312 4.08 29.288 3.016 31.416 3.016C36.008 3.016 37.352 7.384 37.352 11.248C37.352 16.344 34.384 19.536 31.248 23.176C27.888 27.096 23.296 29.224 18.088 29.224C15.456 29.224 10.92 27.32 9.352 26.536C8.624 27.32 8.512 29.224 8.512 30.176C8.512 35.72 10.864 40.144 16.968 40.144C20.216 40.144 24.136 39.864 27.104 38.52C29.792 37.288 32.368 36 34.608 34.04C35.448 33.312 37.408 31.184 37.632 28.44C37.688 27.712 38.64 27.712 39.256 27.712C39.928 27.712 40.712 27.824 40.712 28.72ZM34.776 10.072C34.776 8.336 34.104 7.272 32.816 6.208H31.248C24.696 6.208 18.816 12.704 14.952 17.408C13.776 18.864 10.808 22.224 10.36 24.016C12.824 25.472 16.52 26.424 19.32 26.424C24.472 26.424 28.392 22.56 31.416 18.808C32.088 18.024 32.984 17.016 33.488 16.12C34.272 14.72 34.776 11.696 34.776 10.072ZM62.6784 32.864C62.6784 33.088 62.6224 33.368 62.5664 33.592C62.1744 35.16 61.1104 37.232 59.8224 38.632C58.1984 40.312 54.8944 42.944 52.3184 43.168C51.9824 43.224 51.6464 43.28 51.3104 43.28C49.6864 43.28 47.7264 42.608 47.7264 40.536C47.7264 38.688 48.3984 36.28 49.6304 33.984C50.8624 31.632 52.8784 28.888 54.1664 26.928C52.5424 27.32 50.4704 27.04 49.9104 26.928C49.4064 27.32 49.5184 27.432 49.0144 28.104C48.5104 28.72 46.5504 32.584 46.0464 33.424C45.0384 35.048 44.9264 35.944 43.5824 35.944C43.1904 35.944 42.2944 35.72 42.4064 34.992L42.5744 33.984C43.3584 32.92 43.2464 33.144 44.3104 31.352C45.7664 29 46.8864 27.096 47.7824 25.584C47.7264 25.192 47.2784 25.192 47.1664 24.968L46.7184 24.24C46.3824 23.736 46.4944 22.392 46.4944 21.776C46.4944 19.256 49.1264 17.072 51.8144 17.072C52.9344 17.072 53.9984 18.304 53.9984 19.424C53.9984 20.768 53.7744 21.16 53.2704 22.28C52.8224 23.232 52.5424 23.568 51.9824 24.408C52.5424 24.576 53.8864 24.52 54.4464 24.464C55.7344 24.296 56.2384 23.288 57.6944 23.288C58.5904 23.288 58.9264 24.072 58.9264 24.744C58.9264 25.304 58.7024 25.64 58.3104 26.032L58.1424 26.2C56.9104 27.432 53.8864 31.52 53.0464 32.808C51.4784 35.216 50.3024 37.624 50.3024 39.808C50.3024 40.592 51.0864 40.704 52.2624 40.704C53.6064 40.704 57.0784 37.68 57.9184 36.784C58.8144 35.832 59.5424 34.488 60.9424 32.36C61.3344 31.8 61.2784 31.856 61.8384 31.856C62.5104 31.856 62.6784 32.304 62.6784 32.864ZM51.0864 19.536C49.3504 19.424 48.8464 20.712 48.8464 22.168C48.8464 22.728 49.6864 23.344 49.7424 23.344C50.3024 22.896 51.7024 20.6 51.0864 19.536ZM79.6823 32.864C79.6823 33.088 79.6263 33.368 79.5703 33.592C79.1783 35.16 78.1143 37.232 76.8263 38.632C74.3063 41.264 71.2263 43.28 67.5303 43.28C65.8503 43.28 63.7223 42.944 62.2103 41.824C60.5863 40.704 59.5223 38.688 59.5783 36.896C59.7463 33.256 60.8663 29.392 63.6103 26.032C65.4023 23.848 67.9223 22.056 71.0023 22.056C72.7383 22.056 74.2503 23.4 74.2503 25.136C74.2503 27.152 73.4103 29 72.0663 30.568C70.7223 32.08 68.9863 33.312 67.0823 34.152C66.1303 34.6 63.6103 35.72 62.4343 36.168C62.3223 36.672 62.2663 37.12 62.3783 37.624C62.4343 38.296 63.3303 39.528 64.2263 39.976C64.3383 40.032 65.6263 40.984 67.5303 40.984C70.4983 40.648 72.9063 38.968 74.9783 36.784C75.8743 35.832 76.3783 34.488 77.9463 32.36C78.3943 31.8 78.2823 31.856 78.8423 31.856C79.5143 31.856 79.6823 32.304 79.6823 32.864ZM71.8423 25.808C71.8983 25.416 71.1703 24.576 70.6663 24.688C68.8743 24.912 67.1943 25.808 66.0183 27.04C64.5063 28.552 62.8823 30.848 62.8263 32.64C62.7703 32.92 62.4343 33.592 62.7703 33.536C64.7863 33.2 66.9703 31.632 68.2583 30.736C69.7143 29.672 70.8343 28.272 71.7863 26.144C71.8423 26.088 71.8423 25.864 71.8423 25.808ZM96.7448 32.864C96.7448 33.088 96.6888 33.368 96.6328 33.592C96.2408 35.16 95.1768 37.232 93.8888 38.632C91.3688 41.264 88.2888 43.28 84.5928 43.28C82.9128 43.28 80.7848 42.944 79.2728 41.824C77.6488 40.704 76.5848 38.688 76.6408 36.896C76.8088 33.256 77.9288 29.392 80.6728 26.032C82.4648 23.848 84.9848 22.056 88.0648 22.056C89.8008 22.056 91.3128 23.4 91.3128 25.136C91.3128 27.152 90.4728 29 89.1288 30.568C87.7848 32.08 86.0488 33.312 84.1448 34.152C83.1928 34.6 80.6728 35.72 79.4968 36.168C79.3848 36.672 79.3288 37.12 79.4408 37.624C79.4968 38.296 80.3928 39.528 81.2888 39.976C81.4008 40.032 82.6888 40.984 84.5928 40.984C87.5608 40.648 89.9688 38.968 92.0408 36.784C92.9368 35.832 93.4408 34.488 95.0088 32.36C95.4568 31.8 95.3448 31.856 95.9048 31.856C96.5768 31.856 96.7448 32.304 96.7448 32.864ZM88.9048 25.808C88.9608 25.416 88.2328 24.576 87.7288 24.688C85.9368 24.912 84.2568 25.808 83.0808 27.04C81.5688 28.552 79.9448 30.848 79.8888 32.64C79.8328 32.92 79.4968 33.592 79.8328 33.536C81.8488 33.2 84.0328 31.632 85.3208 30.736C86.7768 29.672 87.8968 28.272 88.8488 26.144C88.9048 26.088 88.9048 25.864 88.9048 25.808ZM113.919 16.96C113.919 17.912 112.351 18.472 111.679 18.584C110.951 18.696 103.391 18.64 102.719 18.696C101.431 20.432 99.0233 27.432 98.3513 29.952C98.2393 30.344 97.1193 33.424 97.0633 33.816C97.0633 33.872 96.6713 36.84 96.6713 38.408C96.6713 39.528 97.8473 40.872 98.8553 40.872C100.311 40.872 101.151 40.648 102.215 40.312C103.895 39.304 105.743 37.568 106.471 36.84C107.535 35.384 108.599 33.816 109.551 32.36C109.943 31.8 109.887 31.856 110.391 31.856C111.119 31.856 111.231 32.304 111.231 32.864C111.231 33.088 111.231 33.368 111.175 33.592C110.783 35.16 109.719 37.232 108.375 38.632C107.311 39.752 106.247 41.04 104.455 41.992C103.391 42.72 100.983 43.56 99.3593 43.56C95.3273 43.56 93.7593 40.536 93.7593 37.008C93.7593 36.672 94.0953 34.264 94.0953 33.928C94.5433 32.136 97.0633 26.088 97.5113 24.296C97.7913 23.288 99.1913 20.152 99.5833 18.696C99.0793 18.752 97.2313 18.864 96.7273 18.696C96.3353 18.584 94.0953 18.136 94.0953 17.072C94.0953 16.12 95.3833 15.84 96.0553 15.784C97.7353 15.672 99.5273 15.952 100.703 15.728C100.759 15.672 102.439 12.592 102.943 11.472L104.511 7.664L106.135 4.472C106.471 3.856 107.815 0.887998 109.159 0.887998C109.775 0.887998 110.615 1.336 110.615 2.064C110.615 3.352 109.103 5.088 108.543 6.208L104.007 15.672C105.295 15.728 110.167 15.672 112.631 15.672C113.135 15.672 113.919 16.512 113.919 16.96ZM120.684 13.544C120.684 14.832 119.396 17.296 117.884 17.296C116.764 17.296 115.7 15.952 115.7 14.776C115.7 13.264 117.548 11.808 119.004 11.808C120.18 11.808 120.684 12.368 120.684 13.544ZM123.26 32.864C123.26 33.088 123.204 33.368 123.148 33.592C122.756 35.16 121.692 37.232 120.348 38.632C118.668 40.424 115.196 43.168 112.508 43.168C111.556 43.168 110.66 43.112 110.436 42.832C108.812 41.656 108.308 38.576 108.308 37.064C108.308 31.632 111.948 27.208 113.964 22.616C114.188 22.28 114.972 21.552 115.419 21.72C115.812 21.888 116.596 22.784 116.596 23.344V23.512C114.3 27.936 111.052 32.472 111.052 37.512C111.052 38.128 111.556 40.592 112.508 40.592C113.124 40.592 113.74 40.48 114.356 40.2C115.924 39.304 117.884 37.456 118.5 36.784C119.396 35.832 120.124 34.488 121.524 32.36C121.916 31.8 121.86 31.856 122.42 31.856C123.092 31.856 123.26 32.304 123.26 32.864ZM148.726 32.864C148.726 33.088 148.67 33.368 148.614 33.648C148.221 35.216 147.158 37.344 145.814 38.744C144.582 40.032 143.35 41.376 141.782 42.328C140.494 43.168 139.038 43.672 137.414 43.672C136.742 43.672 135.846 43.672 135.286 43.392C133.998 42.776 133.998 41.096 133.998 39.864C133.998 37.848 135.118 36.28 135.958 34.6C137.246 32.136 138.87 28.552 139.43 26.088C139.206 26.088 138.926 26.032 138.926 26.032C136.518 26.032 133.662 31.016 132.318 32.752C132.206 32.92 131.87 33.592 131.422 34.264C130.974 34.992 130.47 35.776 130.134 36.112C129.742 36.504 129.294 37.176 128.846 37.904L127.39 40.256C126.438 41.712 125.43 43.168 124.59 43.168C123.806 43.168 123.526 42.72 123.302 41.992C124.534 37.96 126.606 34.264 128.398 30.456C128.734 29.784 129.126 28.888 129.462 28.048C130.022 26.032 130.134 24.912 129.798 24.8C129.182 24.632 127.278 27.488 126.214 29.28C125.766 30.008 124.59 32.304 124.086 33.312C123.582 34.432 123.078 34.712 122.742 34.936C122.35 35.216 121.51 35.384 121.174 34.824C120.838 34.32 121.118 33.144 121.285 32.808L121.678 32.192C121.902 31.912 121.958 31.744 122.406 31.072C123.302 29.84 123.47 29.616 124.702 27.152C125.878 24.8 128.118 22.28 130.022 22.28C131.926 22.28 132.318 23.624 132.486 24.688C132.654 25.584 132.43 26.424 132.262 26.984L131.254 30.512C133.55 26.872 137.078 23.232 140.494 22.56C141.838 23.064 142.286 24.296 142.286 25.584V25.92C141.11 29.784 139.486 33.424 138.142 36.224C137.638 37.232 136.854 38.52 136.854 39.64C136.854 40.032 136.742 40.536 137.134 40.816C137.246 40.872 137.862 40.872 138.03 40.872C138.59 40.872 139.206 40.704 139.766 40.48C141.222 39.64 142.958 38.016 143.574 37.344C144.078 36.784 144.526 35.944 144.862 35.272C145.534 34.152 146.15 32.976 146.99 31.968C147.214 31.688 147.382 31.744 147.717 31.744C148.558 31.744 148.726 32.248 148.726 32.864ZM169.402 32.864C169.402 33.088 169.402 33.368 169.346 33.592C168.058 38.8 161.842 43.28 156.746 44.12C155.514 46.808 154.618 50.056 153.33 52.576C153.162 52.912 152.938 53.248 152.714 53.528C149.746 57.672 148.178 62.32 142.242 62.32C140.002 62.32 137.706 59.352 138.322 56.552C138.938 53.752 142.242 50.896 144.37 49.384C146.554 47.816 148.85 46.304 151.09 44.736L153.666 43C153.946 42.664 154.282 42.216 154.282 41.768C154.282 41.264 154.114 40.76 154.114 40.256C152.546 41.824 150.53 43.448 148.514 43.448C145.21 43.448 144.818 41.32 144.818 38.52C144.818 35.664 146.498 30.68 148.514 27.712C150.81 24.24 154.17 21.496 157.922 21.496C162.066 21.496 162.01 26.704 162.01 29.672C162.01 32.976 158.146 36.952 157.922 40.872C158.314 40.76 158.762 40.76 159.154 40.76C160.498 40.76 163.746 37.792 164.698 36.784C165.874 35.496 166.658 33.76 167.722 32.36C168.058 31.912 168.002 31.856 168.562 31.856C169.234 31.856 169.402 32.248 169.402 32.864ZM158.818 27.152C158.818 26.032 158.762 24.408 157.25 24.408C155.01 24.408 152.602 26.816 150.81 29.672C149.242 32.192 147.674 36.504 147.674 38.296C147.674 39.472 147.394 40.592 148.962 40.592C151.09 40.592 154.226 37.68 156.018 35.216C157.866 32.696 158.818 29.168 158.818 27.152ZM152.154 46.976C149.858 48.432 141.066 54.088 141.066 56.888C141.066 58.176 141.794 59.632 143.138 59.632C146.33 59.632 150.978 52.016 151.538 49.72C151.594 49.44 152.546 47.032 152.154 46.976Z" fill="#FEC46E"/>
</svg>
