<svg width="110" height="50" viewBox="0 0 110 50" fill="none" xmlns="http://www.w3.org/2000/svg">
<path d="M51.304 6.8C51.304 6.968 51.248 7.192 51.248 7.416C48.336 10.216 46.488 13.912 44.192 17.16C43.016 18.896 41.84 20.408 40.888 22.256C39.6 24.72 38.48 27.352 37.248 29.928C35.904 32.728 33.608 35.472 33.608 38.608C37.08 38.608 40.44 37.32 43.52 36.144V36.648C43.52 39.84 34.84 41.352 32.376 41.968C31.48 43.928 29.352 48.184 28.008 49.416C27.896 49.36 27.28 49.64 27.168 49.64C26.72 49.64 26.608 49.584 26.16 49.584C25.768 49.584 25.712 49.304 25.712 49.024C25.712 48.128 28.624 43.536 28.736 42.696C26.944 43.144 24.368 43.424 22.912 43.424C20.056 43.424 16.92 42.528 14.344 41.352C13.448 40.96 13.224 40.624 12.272 40.624C10.648 40.624 7.12 47.456 4.824 47.456C3.536 47.456 1.744 46.28 1.8 45.048L2.08 44.768C4.768 44.712 6.616 40.96 8.632 39.336C8.968 39.112 8.968 39.056 8.968 38.664C8.968 37.768 3.928 35.36 3.928 31.552C3.928 25.952 13.392 22.2 18.04 22.256C18.936 21.472 22.296 16.6 22.296 15.48C22.184 15.424 21.848 15.648 21.736 15.648C21.512 15.648 20.336 16.32 19.944 16.488C16.808 17.832 13.336 19.568 9.864 19.568C4.376 19.568 0.456 17.44 0.456 11.448C0.456 8.2 5.104 0.695999 8.688 0.695999C9.192 0.695999 10.592 1.144 10.592 1.536C10.592 2.544 2.808 7.808 2.808 11.448C2.808 15.144 5.944 16.88 9.36 16.88C17.704 16.88 23.528 10.216 28.96 4.784C29.464 4.28 29.744 4.056 30.528 4.056C31.144 4.056 31.704 4.56 31.704 5.232V5.456C31.704 7.416 28.624 9.712 27.616 11.504C26.328 13.744 25.544 16.264 24.256 18.56C23.92 19.176 22.128 21.864 22.464 22.48C22.8 23.096 25.88 23.096 27.056 23.544C28.512 24.104 31.648 26.456 32.152 27.968C32.264 28.248 32.824 30.992 33.048 31.888C33.664 31.16 35.512 26.736 35.848 25.896C36.464 24.328 38.928 20.296 39.936 18.56C42.4 14.36 45.144 10.216 48.224 6.408C48.672 5.904 49.176 5.4 49.904 5.4C50.744 5.4 51.304 5.904 51.304 6.8ZM17.032 25.392C13.896 25.448 6.896 28.192 6.896 31.944C6.896 33.736 9.528 35.304 10.984 35.976H11.32C13.168 34.408 15.688 28.64 16.976 26.288L17.032 25.392ZM30.696 35.248C30.696 33.792 29.968 32.392 29.8 30.936C29.352 27.296 24.536 25.896 21.456 25.896C19.776 25.896 18.992 29.088 18.376 30.32C17.704 31.664 14.344 36.592 14.344 37.656L14.68 37.992C16.192 38.72 19.44 40.064 21.008 40.176C23.528 40.4 27.896 39.952 29.408 39.616C30.416 38.44 30.696 36.592 30.696 35.248ZM72.8032 32.224C74.2592 31.104 75.6032 29.816 76.6112 28.752C77.1712 27.688 77.8992 26.904 78.2912 26.4C78.0672 25.728 77.2272 24.776 77.2272 23.6L77.2832 22.368C78.2912 21.192 79.0752 19.568 81.0352 19.568H81.4832C81.7072 19.904 83.4992 21.08 83.4992 21.864C83.4992 24.16 82.7152 24.664 82.1552 25.448L81.3712 26.512C82.3792 28.304 85.1792 32.672 85.6832 34.8C85.9632 35.92 85.5712 38.104 85.4032 39.224C85.2352 40.288 84.9552 41.352 84.3392 42.36C85.5712 41.408 86.7472 40.288 87.2512 39.784C88.1472 38.832 88.6512 37.488 90.2752 35.36C90.6672 34.8 90.6112 34.856 91.1152 34.856C91.8432 34.856 91.9552 35.304 91.9552 35.864C91.9552 36.088 91.9552 36.368 91.8992 36.592C91.5072 38.16 90.4432 40.232 89.0992 41.632C87.4192 43.424 83.6672 46.168 80.1392 46.168C79.2992 46.168 78.7952 46 78.5152 45.72C77.4512 46.112 77.4512 46.336 76.3312 46.336C73.8672 46.336 72.4672 44.376 72.4672 42.136C72.4672 41.632 72.8032 41.128 73.4192 41.016C75.7712 40.68 76.8912 43.256 79.3552 43.256C82.8272 43.256 83.0512 38.72 83.0512 35.472C83.0512 34.8 80.4752 29.256 79.4672 28.472C79.2432 28.584 79.0192 28.976 78.7392 29.424C78.4032 29.984 77.6752 30.88 76.6112 32.112C76.4992 32.28 75.7152 32.952 73.7552 34.072C70.6192 36.368 67.4272 37.88 63.2832 37.88C62.6112 37.88 62.1072 37.6 61.4912 37.6L61.0432 38.048C58.5792 41.464 55.7792 46.28 50.9632 46.28C48.3872 46.28 47.3232 44.432 46.4272 42.248V40.344C46.4272 33.904 51.7472 22.256 59.4192 22.256C63.7872 22.256 64.6272 26.904 64.6272 30.264C64.6272 32.112 63.0592 33.176 63.0592 34.576C63.0592 35.024 63.3392 35.024 63.6752 35.024C63.8432 35.08 64.0112 35.08 64.1232 35.08C67.2592 35.08 70.3952 34.184 72.8032 32.224ZM81.4272 22.256C81.4272 22.2 80.9232 21.584 80.8112 21.584C80.2512 21.584 79.6352 22.312 79.6352 22.928C79.6352 23.152 80.0272 24.552 80.0832 24.552C80.6992 24.048 81.4272 22.872 81.4272 22.256ZM61.4352 30.04C61.4352 29.816 61.4912 29.2 61.3792 29.088C61.3232 28.136 61.0992 26.064 60.9312 26.008C60.0912 25.168 60.5952 25.448 59.5872 25.448C54.0992 25.448 49.0032 34.856 49.0032 40.008C49.0032 40.792 48.8352 43.368 50.1232 43.368C55.3872 43.368 58.2992 37.6 59.9792 33.176C60.3712 32.056 61.4352 31.272 61.4352 30.04ZM109.583 19.96C109.583 20.912 108.015 21.472 107.343 21.584C106.615 21.696 99.0554 21.64 98.3834 21.696C97.0954 23.432 94.6874 30.432 94.0154 32.952C93.9034 33.344 92.7834 36.424 92.7274 36.816C92.7274 36.872 92.3354 39.84 92.3354 41.408C92.3354 42.528 93.5114 43.872 94.5194 43.872C95.9754 43.872 96.8154 43.648 97.8794 43.312C99.5594 42.304 101.407 40.568 102.135 39.84C103.199 38.384 104.263 36.816 105.215 35.36C105.607 34.8 105.551 34.856 106.055 34.856C106.783 34.856 106.895 35.304 106.895 35.864C106.895 36.088 106.895 36.368 106.839 36.592C106.447 38.16 105.383 40.232 104.039 41.632C102.975 42.752 101.911 44.04 100.119 44.992C99.0554 45.72 96.6474 46.56 95.0234 46.56C90.9914 46.56 89.4234 43.536 89.4234 40.008C89.4234 39.672 89.7594 37.264 89.7594 36.928C90.2074 35.136 92.7274 29.088 93.1754 27.296C93.4554 26.288 94.8554 23.152 95.2474 21.696C94.7434 21.752 92.8954 21.864 92.3914 21.696C91.9994 21.584 89.7594 21.136 89.7594 20.072C89.7594 19.12 91.0474 18.84 91.7194 18.784C93.3994 18.672 95.1914 18.952 96.3674 18.728C96.4234 18.672 98.1034 15.592 98.6074 14.472L100.175 10.664L101.799 7.472C102.135 6.856 103.479 3.888 104.823 3.888C105.439 3.888 106.279 4.336 106.279 5.064C106.279 6.352 104.767 8.088 104.207 9.208L99.6714 18.672C100.959 18.728 105.831 18.672 108.295 18.672C108.799 18.672 109.583 19.512 109.583 19.96Z" fill="#FEC46E"/>
</svg>
