<svg width="70" height="174" viewBox="0 0 70 174" fill="none" xmlns="http://www.w3.org/2000/svg">
<path d="M65.416 164.808C65.416 157.896 56.648 149.768 45.256 143.176C40.648 140.552 36.744 138.248 33.544 136.2C39.56 141.832 45 148.424 45 154.504C45 160.392 41.416 164.936 34.824 164.936C17.8 164.936 0.199997 142.472 0.199997 127.24C0.199997 122.248 2.952 119.24 6.216 119.24C13.896 119.24 20.232 130.44 20.232 136.712C20.232 137.096 20.104 137.288 19.912 137.288C19.72 137.288 19.592 137.032 19.528 136.776C18.44 131.528 12.232 121.928 5.256 121.928C2.632 121.928 1.224 123.208 1.224 126.792C1.224 140.04 19.592 160.008 36.04 160.008C40.2 160.008 43.4 157.896 43.4 153.032C43.4 146.824 35.976 139.272 28.424 132.872C27.4 132.04 26.44 131.016 25.672 130.248C23.944 128.52 22.92 127.048 22.92 126.216C22.92 125.896 23.112 125.704 23.368 125.704C24.008 125.704 23.944 127.048 25.224 128.584C28.168 132.168 38.088 136.84 47.816 141.192C59.016 146.12 69.128 153.288 69.128 162.824C69.128 169.416 63.496 173.128 58.76 173.128C57.8 173.128 57.16 172.936 57.16 172.552C57.16 172.296 57.416 172.104 57.928 172.104C62.088 172.104 65.416 169.864 65.416 164.808ZM37.768 125.866C38.536 126.762 37.768 126.698 37.32 126.25C36.104 124.97 34.44 123.242 33.352 122.218C32.904 122.602 32.328 122.794 31.624 122.794C28.68 122.794 25.352 119.466 25.352 118.122C25.352 117.482 25.736 116.97 26.44 116.97C28.68 116.97 31.432 119.338 33.032 120.81C34.312 119.658 34.376 117.354 35.976 117.354C38.216 117.354 41.928 122.858 45.256 122.858C46.6 122.858 47.24 122.154 47.24 121.002C47.24 117.162 41.352 110.506 37.32 106.09C36.552 105.194 37.32 105.258 37.768 105.706C41.992 110.314 49.16 117.994 49.16 122.474C49.16 124.778 47.752 126.57 45.64 126.57C41.48 126.57 37.768 120.042 35.72 120.042C35.08 120.042 34.568 121.002 33.864 121.77C35.016 122.922 36.552 124.522 37.768 125.866ZM32.264 89.6145C34.952 89.6145 38.792 91.7265 41.736 94.6065C41.928 94.7345 42.184 94.7985 42.376 94.7985C43.4 94.7985 44.424 93.5825 44.424 91.4065C44.424 87.8225 42.12 82.3825 37.32 77.1985C36.552 76.3025 37.32 76.3665 37.768 76.8145C42.44 81.8705 45.32 88.1425 45.32 92.0465C45.32 94.4785 44.808 96.0785 43.784 96.9105C45.256 98.8945 46.28 101.07 46.28 103.054C46.28 105.678 44.808 107.599 41.736 107.599C36.616 107.599 28.552 98.8945 28.552 93.5185C28.552 90.8945 29.768 89.6145 32.264 89.6145ZM32.008 90.8305C30.664 90.8305 29.896 91.4705 29.896 92.6865C29.896 96.8465 38.024 103.758 42.504 103.758C43.976 103.758 44.744 103.054 44.744 101.71C44.744 100.494 43.976 98.8945 42.696 97.3585C42.504 97.4225 42.248 97.4225 41.992 97.4225C40.264 97.4225 38.536 95.5025 38.536 94.2225C38.536 93.9665 38.6 93.7745 38.728 93.5825C36.488 91.9825 34.056 90.8305 32.008 90.8305ZM32.264 60.7395C34.952 60.7395 38.792 62.8515 41.736 65.7315C41.928 65.8595 42.184 65.9235 42.376 65.9235C43.4 65.9235 44.424 64.7075 44.424 62.5315C44.424 58.9475 42.12 53.5075 37.32 48.3235C36.552 47.4275 37.32 47.4915 37.768 47.9395C42.44 52.9955 45.32 59.2675 45.32 63.1715C45.32 65.6035 44.808 67.2035 43.784 68.0355C45.256 70.0195 46.28 72.1955 46.28 74.1795C46.28 76.8035 44.808 78.7235 41.736 78.7235C36.616 78.7235 28.552 70.0195 28.552 64.6435C28.552 62.0195 29.768 60.7395 32.264 60.7395ZM32.008 61.9555C30.664 61.9555 29.896 62.5955 29.896 63.8115C29.896 67.9715 38.024 74.8835 42.504 74.8835C43.976 74.8835 44.744 74.1795 44.744 72.8355C44.744 71.6195 43.976 70.0195 42.696 68.4835C42.504 68.5475 42.248 68.5475 41.992 68.5475C40.264 68.5475 38.536 66.6275 38.536 65.3475C38.536 65.0915 38.6 64.8995 38.728 64.7075C36.488 63.1075 34.056 61.9555 32.008 61.9555ZM38.792 26.1045L38.984 25.8485C37.192 23.4165 32.712 18.4245 32.712 15.0325C32.712 13.6885 33.608 12.8565 34.696 12.8565C37.32 12.8565 40.904 18.4245 44.104 18.4245C45.064 18.4245 45.64 17.7845 45.64 16.4405C45.64 12.9205 40.968 5.8165 37.32 1.8485C36.552 0.952499 37.32 1.0165 37.768 1.4645C41.608 5.6885 47.112 13.5605 47.112 18.1045C47.112 20.1525 45.96 21.7525 44.232 21.7525C40.008 21.7525 36.296 15.0325 34.248 15.0325C33.928 15.0325 33.736 15.2245 33.736 15.6085C33.736 17.9765 38.088 23.4805 40.904 26.9365C41.864 28.1525 42.632 28.6645 42.632 29.3685C42.632 30.0085 41.8 30.8405 40.968 30.8405C38.6 30.8405 31.56 22.0725 28.936 22.0725C28.552 22.0725 28.296 22.3285 28.296 22.7125C28.296 25.4645 36.296 36.1525 43.72 41.9765C44.936 42.8725 45.576 43.2565 45.576 44.1525C45.576 45.1125 44.872 46.0725 43.848 46.0725C40.392 46.0725 32.008 36.3445 30.344 36.3445C30.024 36.3445 29.768 36.5365 29.768 36.9845C29.768 38.2005 31.624 41.2085 37.768 47.9285C38.536 48.8245 37.768 48.7605 37.32 48.3125C31.112 41.5285 28.552 38.0085 28.552 36.2165C28.552 35.1285 29.32 34.2325 30.472 34.2325C32.776 34.2325 36.424 37.8805 39.56 40.1205L39.752 39.9285C35.656 36.0885 27.272 26.1045 27.272 22.3285C27.272 20.7285 28.296 19.6405 29.704 19.6405C32.52 19.6405 36.04 24.1205 38.792 26.1045Z" fill="url(#paint0_linear_610_102)"/>
<defs>
<linearGradient id="paint0_linear_610_102" x1="-16" y1="83" x2="77" y2="83" gradientUnits="userSpaceOnUse">
<stop stop-color="#CAA164"/>
<stop offset="0.48" stop-color="#DEBB88"/>
<stop offset="1" stop-color="#FEE6C2"/>
</linearGradient>
</defs>
</svg>
