<svg width="55" height="149" viewBox="0 0 55 149" fill="none" xmlns="http://www.w3.org/2000/svg">
<path d="M31.128 4.288C25.688 4.288 24.792 7.104 24.408 7.104C24.152 7.104 23.96 6.912 23.96 6.464C23.96 6.016 25.624 3.78714e-07 32.856 3.14082e-07C43.992 2.1456e-07 54.552 19.84 54.552 31.552C54.552 33.856 53.336 35.456 51.352 35.456C46.68 35.456 36.504 26.816 32.472 23.488L32.344 23.552C37.592 28.608 51.8 42.688 51.8 51.52C51.8 54.144 50.008 56.576 46.68 56.576C38.936 56.576 31.32 47.296 27.864 39.04C26.584 43.328 23.64 46.784 19.096 46.784C9.496 46.784 0.536 36.16 0.536 25.088C0.536 19.264 3.352 15.04 7.32 15.04C12.312 15.04 16.728 22.464 16.728 26.368C16.728 26.752 16.6 26.944 16.344 26.944C16.152 26.944 16.024 26.752 15.96 26.432C15.384 23.424 11.416 18.048 6.872 18.048C3.992 18.048 1.752 20.224 1.752 24.704C1.752 34.688 11.416 42.688 19.928 42.688C22.936 42.688 26.072 41.472 27.48 38.016C26.52 35.52 26.008 33.152 26.008 31.232C26.008 29.888 26.392 29.12 27.032 29.12C27.992 29.12 28.696 30.528 28.696 33.536C28.696 33.92 28.632 34.304 28.632 34.752C31.128 41.472 38.808 53.12 48.408 53.12C49.688 53.12 50.648 52.416 50.648 50.816C50.648 43.456 37.08 28.864 27.416 20.672C17.816 12.48 9.944 10.112 9.944 8.896C9.944 8.32 10.776 6.72 13.528 6.72C22.424 6.72 45.656 33.792 51.928 33.792C52.824 33.792 53.592 33.28 53.592 31.68C53.592 21.376 41.752 4.288 31.128 4.288ZM14.232 54.384C13.464 53.488 14.232 53.552 14.68 54C15.896 55.28 17.56 57.008 18.648 58.032C19.096 57.648 19.672 57.456 20.376 57.456C23.32 57.456 26.648 60.784 26.648 62.128C26.648 62.768 26.264 63.28 25.56 63.28C23.32 63.28 20.568 60.912 18.968 59.44C17.688 60.592 17.624 62.896 16.024 62.896C13.784 62.896 10.072 57.392 6.744 57.392C5.4 57.392 4.76 58.096 4.76 59.248C4.76 63.088 10.648 69.744 14.68 74.16C15.448 75.056 14.68 74.992 14.232 74.544C10.008 69.936 2.84 62.256 2.84 57.776C2.84 55.472 4.248 53.68 6.36 53.68C10.52 53.68 14.232 60.208 16.28 60.208C16.92 60.208 17.432 59.248 18.136 58.48C16.984 57.328 15.448 55.728 14.232 54.384ZM30.872 91.5955C30.872 92.4915 30.36 93.0675 29.528 93.0675C28.376 93.0675 26.136 91.4035 26.136 90.1875C26.136 89.4195 26.776 88.7155 27.736 88.7155C29.016 88.7155 30.872 90.6355 30.872 91.5955ZM14.68 74.1875C20.056 80.0755 22.36 82.9555 22.36 84.6835C22.36 86.2195 21.464 86.9235 20.248 86.9235C17.368 86.9235 13.08 81.1635 9.56 81.1635C8.344 81.1635 7.768 81.9315 7.768 83.3395C7.768 86.4115 10.712 91.9155 14.68 96.2035C15.448 97.0995 14.68 97.0355 14.232 96.5875C10.328 92.2355 6.424 86.1555 6.424 81.7395C6.424 79.2435 7.512 77.6435 9.752 77.6435C13.656 77.6435 18.712 84.5555 20.76 84.5555C21.08 84.5555 21.336 84.4275 21.336 83.9795C21.336 83.0195 19.672 80.4595 14.232 74.5715C13.464 73.6755 14.232 73.7395 14.68 74.1875ZM14.68 125.628C15.448 126.524 14.68 126.46 14.232 126.012C10.136 121.532 6.488 115.644 6.488 112.188C6.488 109.756 8.024 108.092 10.456 108.092C12.12 108.092 13.912 108.668 15.384 109.372C7.448 101.948 4.248 98.6835 4.248 96.1875C4.248 94.2675 5.4 92.9875 7.832 92.9875C13.912 92.9875 22.552 103.228 22.552 109.692C22.552 111.356 21.72 112.252 20.76 112.956C22.552 114.3 24.344 115.772 26.712 117.884C29.656 120.572 39.128 128.38 39.128 130.3C39.128 131.324 38.552 131.964 37.656 131.964C36.952 131.964 36.44 131.708 35.032 130.364C32.856 128.316 28.376 123.644 23.704 118.652C18.072 113.532 13.528 110.844 10.2 110.844C8.408 110.844 7.704 111.676 7.704 113.148C7.704 116.156 11.096 121.724 14.68 125.628ZM21.272 110.076C21.272 104.508 12.12 95.9955 7.256 95.9955C6.232 95.9955 5.72 96.3795 5.72 97.0195C5.72 98.4915 9.048 102.332 20.056 112.38C20.696 111.932 21.272 111.292 21.272 110.076ZM10.776 128.377C8.664 128.377 7.256 129.721 7.256 132.537C7.256 137.145 10.904 143.353 14.68 147.449C15.448 148.345 14.68 148.281 14.232 147.833C10.2 143.481 5.72 136.377 5.72 130.617C5.72 126.969 7.64 124.665 11.096 124.665C17.112 124.665 24.216 134.201 24.216 139.193C24.216 141.113 23.384 142.073 21.912 142.073C18.712 142.073 15.512 137.721 13.656 129.017C12.696 128.569 11.672 128.377 10.776 128.377ZM22.936 139.577C22.936 136.377 18.712 131.449 14.488 129.337C15.896 135.033 19.608 140.537 22.104 140.537C22.616 140.537 22.936 140.281 22.936 139.577Z" fill="url(#paint0_linear_610_96)"/>
<defs>
<linearGradient id="paint0_linear_610_96" x1="68" y1="74" x2="-25" y2="74" gradientUnits="userSpaceOnUse">
<stop stop-color="#CAA164"/>
<stop offset="0.48" stop-color="#DEBB88"/>
<stop offset="1" stop-color="#FEE6C2"/>
</linearGradient>
</defs>
</svg>
