<svg width="327" height="71" viewBox="0 0 327 71" fill="none" xmlns="http://www.w3.org/2000/svg">
<path d="M9.57 46.448C19.298 46.448 25.314 33.648 32.29 22.064C35.618 16.56 38.818 11.312 42.274 7.344C37.602 5.872 32.482 4.272 27.554 4.272C20.322 4.272 13.474 9.648 13.474 16.432C13.474 18.48 14.434 20.336 15.074 20.976C15.202 21.104 15.266 21.168 15.266 21.296C15.266 21.488 15.138 21.616 14.882 21.616C13.858 21.616 10.21 18.544 10.21 14.384C10.21 6.768 17.698 1.2 26.722 1.2C33.058 1.2 38.306 4.016 43.426 6C46.69 2.608 50.21 0.495998 54.306 0.495998C57.57 0.495998 58.914 2.032 58.914 4.272C58.914 7.152 55.97 9.52 52.194 9.52C49.89 9.52 47.074 8.816 44.066 7.92C40.866 12.144 38.114 18.032 34.978 24.048C27.554 38.256 22.306 50.16 11.106 50.16C4.322 50.16 0.61 44.528 0.61 39.792C0.61 38.832 0.866 38.192 1.25 38.192C1.506 38.192 1.634 38.32 1.634 38.832C1.634 42.416 3.874 46.448 9.57 46.448ZM51.554 7.856C55.202 7.856 57.89 5.744 57.89 3.696C57.89 2.416 56.61 1.392 54.37 1.392C50.658 1.392 47.714 3.44 45.026 6.64C47.202 7.344 49.314 7.856 51.554 7.856ZM39.0625 38.32C42.7745 34.928 47.4465 30.32 50.3265 27.44C57.4945 20.336 59.2225 18.544 63.4465 15.088C64.5985 14.192 65.5585 13.744 66.1345 13.744C66.9665 13.744 67.4785 14.32 67.4785 15.088C67.4785 17.072 58.7745 24.112 52.1185 29.68C45.9745 37.104 41.4945 43.888 41.4945 44.528C41.4945 44.656 41.5585 44.72 41.6865 44.72C41.7505 44.72 41.8145 44.656 41.9425 44.528C45.3985 41.008 58.0705 29.232 62.6145 29.232C64.1505 29.232 65.0465 30.128 65.0465 31.216C65.0465 34.096 57.8145 38.896 57.8145 42.544C57.8145 43.952 58.7105 44.656 60.4385 44.656C64.2785 44.656 69.1425 41.584 72.7265 38.32C73.6225 37.552 73.5585 38.32 73.1105 38.768C69.2065 42.352 63.4465 46.384 58.6465 46.384C55.8305 46.384 54.2305 44.912 54.2305 42.8C54.2305 38.32 62.1665 33.008 62.1665 30.896C62.1665 30.64 62.0385 30.512 61.7825 30.512C58.3905 30.512 46.2305 41.904 41.6225 46.384C39.8945 48.112 39.1905 49.456 38.3585 49.456C37.7185 49.456 36.8865 48.688 36.8865 47.92C36.8865 45.808 42.0705 38.512 48.2145 30.704C48.3425 30.512 48.2785 30.384 48.0225 30.64C45.2065 33.328 41.6225 36.784 39.4465 38.768C38.5505 39.536 38.6145 38.768 39.0625 38.32ZM87.47 36.592C87.47 36.464 87.342 36.336 87.214 36.336C86.894 36.336 86.638 36.592 85.806 37.424C79.278 44.336 75.118 48.368 71.982 48.368C70.126 48.368 69.038 47.408 69.038 45.552C69.038 39.408 81.198 29.552 89.006 29.552C91.63 29.552 93.23 30.704 93.23 32.496C93.23 33.968 92.014 34.992 91.31 34.992C90.99 34.992 90.798 34.864 90.798 34.544C90.798 34.416 90.862 34.288 90.99 34.16C91.502 33.648 91.822 33.136 91.822 32.432C91.822 31.728 91.246 31.28 89.966 31.28C83.822 31.28 72.366 41.712 72.366 46C72.366 46.704 72.622 46.96 73.134 46.96C75.374 46.96 81.966 40.24 85.358 36.72C86.446 35.568 87.022 34.992 87.982 34.992C88.878 34.992 89.838 35.632 89.838 36.848C89.838 38.32 87.022 41.52 87.022 43.888C87.022 44.848 87.534 45.36 88.43 45.36C90.862 45.36 95.854 42.224 100.078 38.32C100.974 37.552 100.91 38.32 100.462 38.768C96.238 42.608 90.478 46.512 87.406 46.512C85.294 46.512 84.014 45.488 84.014 43.696C84.014 40.88 87.47 37.552 87.47 36.592ZM100.062 38.32C108.127 30.96 111.839 27.632 113.951 27.632C115.167 27.632 116.191 28.592 116.191 30C116.191 32.88 107.807 40.24 106.143 43.76L106.271 43.888C109.343 40.688 118.751 31.664 122.463 31.664C123.999 31.664 125.151 32.624 125.151 33.904C125.151 36.528 123.551 38.96 123.551 41.968C123.551 43.312 124.127 44.272 125.855 44.272C129.119 44.272 134.175 41.008 137.119 38.32C138.015 37.552 137.951 38.32 137.503 38.768C134.367 41.648 128.607 45.616 124.831 45.616C122.143 45.616 120.031 44.208 120.031 41.52C120.031 38.576 122.463 35.632 122.463 33.84C122.463 33.328 122.143 33.072 121.567 33.072C118.431 33.072 109.855 41.52 105.695 45.872C104.991 46.512 104.543 47.024 103.839 47.024C103.007 47.024 101.983 46.256 101.983 45.168C101.983 41.328 114.079 31.408 114.079 29.296C114.079 28.912 113.823 28.592 113.375 28.592C111.903 28.592 108.51 31.408 100.447 38.768C99.5505 39.536 99.6145 38.768 100.062 38.32ZM163.365 16.496C163.365 18.224 157.157 23.856 150.949 28.656C146.981 33.136 142.885 38.256 140.901 41.712C140.773 41.904 141.029 41.904 141.157 41.776C145.765 36.016 152.485 31.152 156.005 31.152C157.861 31.152 159.077 32.176 159.077 33.84C159.077 36.08 155.429 37.744 152.357 39.152C148.901 40.752 147.685 41.328 147.685 42.352C147.685 44.016 149.861 45.808 153.765 45.808C157.285 45.808 158.949 43.952 159.525 43.952C159.653 43.952 159.781 44.08 159.781 44.208C159.781 45.104 156.261 48.176 152.165 48.176C148.453 48.176 145.637 45.488 145.637 43.056C145.637 41.712 146.853 40.944 150.501 38.448C153.125 36.72 156.005 34.928 156.005 33.2C156.005 32.688 155.749 32.432 155.173 32.432C152.485 32.432 146.021 37.104 140.005 44.72C138.917 46.064 138.597 47.024 138.085 47.024C137.445 47.024 136.677 46.32 136.677 45.424C136.677 43.824 139.109 39.856 146.789 30.256L146.597 30.192C143.781 33.008 139.813 36.72 137.509 38.768C136.613 39.536 136.677 38.768 137.125 38.32C140.709 35.056 145.445 30.448 149.925 26.032C153.189 22.192 156.581 18.864 159.461 16.56C160.549 15.664 161.509 15.216 162.085 15.216C162.853 15.216 163.365 15.728 163.365 16.496ZM234.553 43.696C234.553 39.664 241.081 35.44 243.705 30.064C244.153 29.104 244.281 28.912 244.537 28.912C245.369 28.912 246.201 29.616 246.201 30.512C246.201 34.032 237.497 40.176 237.497 44.336C237.497 45.36 238.009 45.744 238.649 45.744C240.505 45.744 244.921 41.648 247.865 38.768C250.809 35.888 252.281 33.136 253.177 33.136C253.817 33.136 254.329 33.648 254.329 34.352C254.329 35.376 251.513 41.712 248.057 48.24C253.881 45.744 259.705 42.608 264.569 38.32C265.465 37.552 265.401 38.32 264.953 38.768C259.897 43.504 253.561 46.832 247.481 49.392C245.689 52.656 243.833 55.856 242.105 58.48C237.497 65.264 231.928 70.32 226.04 70.32C221.88 70.32 219 67.824 219 64.176C219 58.736 225.208 56.368 236.345 52.656C238.713 51.824 241.273 50.992 243.833 49.968C245.817 46.128 247.545 42.16 249.145 38.704C244.985 42.928 240.76 46.96 237.753 46.96C235.769 46.96 234.553 45.744 234.553 43.696ZM237.433 53.296C227.448 56.944 221.112 60.08 221.112 64.688C221.112 67.504 222.776 68.912 225.656 68.912C229.752 68.912 235.065 63.92 239.801 56.944C241.017 55.088 242.169 53.168 243.257 51.12C241.209 51.952 239.225 52.592 237.433 53.296ZM281.01 33.264C281.01 35.952 278.899 39.792 276.019 42.736C275.891 42.928 275.827 43.184 275.827 43.376C275.827 44.4 277.043 45.424 279.219 45.424C282.803 45.424 288.243 43.12 293.427 38.32C294.323 37.552 294.259 38.32 293.811 38.768C288.755 43.44 282.483 46.32 278.579 46.32C276.147 46.32 274.547 45.808 273.715 44.784C271.731 46.256 269.555 47.28 267.571 47.28C264.947 47.28 263.026 45.808 263.026 42.736C263.026 37.616 271.731 29.552 277.107 29.552C279.731 29.552 281.01 30.768 281.01 33.264ZM279.795 33.008C279.795 31.664 279.155 30.896 277.939 30.896C273.779 30.896 266.867 39.024 266.867 43.504C266.867 44.976 267.571 45.744 268.915 45.744C270.131 45.744 271.731 44.976 273.267 43.696C273.203 43.504 273.203 43.248 273.203 42.992C273.203 41.264 275.123 39.536 276.403 39.536C276.659 39.536 276.851 39.6 277.043 39.728C278.643 37.488 279.795 35.056 279.795 33.008ZM293.438 38.32C300.478 31.856 304.062 28.464 306.046 28.464C307.326 28.464 308.158 29.232 308.158 30.512C308.158 34.48 297.086 42.352 297.086 46.64C297.086 47.408 297.534 47.856 298.238 47.856C299.774 47.856 303.358 44.912 308.606 39.792C311.55 36.912 313.47 34.48 314.302 34.48C315.134 34.48 315.902 35.248 315.902 36.08C315.902 36.592 315.518 37.168 314.302 38.64C312.574 40.752 311.614 42.416 311.614 43.952C311.614 45.04 312.126 45.552 313.15 45.552C316.286 45.552 322.238 41.456 325.757 38.32C326.654 37.552 326.59 38.32 326.142 38.768C322.494 42.032 315.902 46.832 311.998 46.832C309.885 46.832 308.798 45.744 308.798 44.016C308.798 42.608 309.246 41.456 310.333 39.664C310.398 39.536 310.27 39.472 310.142 39.6C303.166 46.384 299.518 49.264 297.022 49.264C295.038 49.264 293.822 48.048 293.822 46.128C293.822 40.624 306.238 32.752 306.238 29.872C306.238 29.552 306.11 29.296 305.662 29.296C304.062 29.296 300.478 32.688 293.822 38.768C292.925 39.536 292.989 38.768 293.438 38.32Z" fill="white"/>
</svg>
