<svg width="198" height="48" viewBox="0 0 198 48" fill="none" xmlns="http://www.w3.org/2000/svg">
<path d="M46.928 2.84L46.872 3.176C45.752 6.032 44.464 9.448 43.4 12.416C42.224 15.832 40.656 20.256 38.92 23.448C38.304 24.568 36.736 28.208 36.456 28.656C36.232 28.992 34.384 32.296 34.16 32.576L33.824 33.248C30.744 37.392 27.328 41.592 24.752 43.608C22.568 45.344 19.208 47.416 16.296 47.416C12.264 47.416 6.832 45.568 6.832 40.864C6.832 37.672 10.192 31.736 14 31.736C15.12 31.736 16.464 33.64 16.464 34.648C16.464 35.096 16.128 35.6 15.624 35.6C14.952 35.6 14.448 34.928 13.72 34.928C11.144 34.928 9.352 38.848 9.352 41.032C9.352 42.096 9.856 42.6 10.696 43.272C12.712 44 13.944 44.56 15.736 44.56C18.088 44.56 20.664 43.44 22.512 41.984C23.912 40.864 28.336 36.776 31.136 32.296C33.544 28.432 36.064 23.784 37.968 19.64C38.64 18.184 40.208 13.816 40.488 12.752C40.88 11.24 42.112 9.896 42.112 8.272C42.112 7.824 41.888 7.6 41.44 7.6C39.032 7.6 36.68 9.28 33.824 9.28C28.784 9.28 22.008 6.424 16.856 5.416C16.744 5.36 16.016 5.08 15.904 5.08C15.008 4.912 12.544 4.464 12.376 4.464C9.632 4.464 3.416 7.264 3.416 10.512V15.328C3.416 16.504 6.832 17.624 7.84 17.624C10.472 17.624 11.984 13.368 13.048 11.8C13.272 11.408 13.384 11.464 13.832 11.464C14.616 11.464 14.952 12.136 14.952 12.92C14.952 14.544 13.44 16.448 12.712 17.512C11.368 19.584 9.8 20.48 7.336 20.48C2.464 20.48 0.56 16.784 0.56 12.584C0.56 6.088 6.16 1.832 12.376 1.832C19.992 1.832 26.544 6.368 34.16 6.368C38.584 6.368 42 4.576 45.304 1.552H45.752C46.48 1.552 46.928 2.112 46.928 2.84ZM55.496 14.544C55.496 15.832 54.208 18.296 52.696 18.296C51.576 18.296 50.512 16.952 50.512 15.776C50.512 14.264 52.36 12.808 53.816 12.808C54.992 12.808 55.496 13.368 55.496 14.544ZM58.072 33.864C58.072 34.088 58.016 34.368 57.96 34.592C57.568 36.16 56.504 38.232 55.16 39.632C53.48 41.424 50.008 44.168 47.32 44.168C46.368 44.168 45.472 44.112 45.248 43.832C43.624 42.656 43.12 39.576 43.12 38.064C43.12 32.632 46.76 28.208 48.776 23.616C49 23.28 49.784 22.552 50.232 22.72C50.624 22.888 51.408 23.784 51.408 24.344V24.512C49.112 28.936 45.864 33.472 45.864 38.512C45.864 39.128 46.368 41.592 47.32 41.592C47.936 41.592 48.552 41.48 49.168 41.2C50.736 40.304 52.696 38.456 53.312 37.784C54.208 36.832 54.936 35.488 56.336 33.36C56.728 32.8 56.672 32.856 57.232 32.856C57.904 32.856 58.072 33.304 58.072 33.864ZM91.266 33.864C91.266 34.088 91.21 34.368 91.154 34.592C90.762 36.16 89.698 38.232 88.41 39.632C87.514 40.528 86.226 41.648 84.826 42.6C84.098 43.048 81.186 44.56 80.738 44.56C80.066 44.56 78.442 44.28 78.05 43.72C78.05 43.44 77.658 42.488 77.658 42.264C77.658 40.808 77.938 39.464 78.442 38.12C78.89 36.944 79.45 35.768 80.01 34.648C80.85 32.912 81.746 31.232 82.194 29.496C82.418 28.712 82.586 27.928 82.586 27.088H82.362C82.25 27.088 80.234 28.656 79.506 29.328C78.666 30.112 78.106 31.288 77.546 32.24C77.098 32.968 76.594 33.64 76.09 34.312C75.138 35.6 74.13 36.832 73.402 38.288C73.234 38.68 72.17 40.976 71.946 41.368L69.706 44.84L69.09 45.176H68.922C68.082 45.176 67.746 44.56 67.746 43.888L67.802 43.272C69.65 38.848 70.994 35.04 72.786 30.616C72.842 30.448 73.682 28.936 73.738 28.712C73.738 28.656 74.074 27.536 74.074 27.312L73.962 26.08C68.922 30.728 65.058 37.784 61.25 43.384C60.802 44 60.746 44.112 60.13 44.112C59.346 44.112 58.674 43.44 58.674 42.656C58.674 41.144 59.794 39.968 60.298 38.624C60.466 38.12 62.202 34.368 62.426 33.864C62.818 32.8 63.322 31.792 63.77 30.784C64.554 28.208 65.002 25.912 64.61 25.8C63.994 25.632 62.09 28.488 61.026 30.28C60.578 31.008 59.57 32.912 59.066 33.92C58.562 35.04 57.778 35.656 57.442 35.88C57.05 36.16 56.378 36.16 56.042 35.6C55.706 35.096 56.042 33.808 56.21 33.472L56.602 32.856C56.826 32.576 56.938 32.352 57.386 31.68C58.282 30.448 58.282 30.616 59.514 28.152C60.69 25.8 62.93 23.28 64.834 23.28C65.674 23.28 66.178 23.672 66.626 24.008C66.906 24.232 67.242 25.352 67.298 25.688C67.466 26.584 67.242 27.424 67.074 27.984L66.066 31.568C67.69 30.896 71.778 21.992 75.81 21.992C75.978 21.992 76.818 21.824 76.93 22.328V24.064C76.93 25.464 76.93 26.36 76.594 27.76L75.922 30.28C76.986 28.488 80.402 25.016 81.074 24.568L83.65 23.616C83.65 23.616 83.762 23.56 83.818 23.56C84.994 23.56 85.61 24.848 85.61 25.856C85.61 27.088 85.274 28.376 84.77 29.72C83.37 33.36 80.738 37.28 80.122 40.416C80.066 40.696 80.066 41.088 80.066 41.368C80.122 41.368 81.018 41.872 81.018 41.872C82.026 41.368 83.146 40.696 84.154 39.968C85.106 39.184 86.058 38.4 86.786 37.448C87.85 36.216 88.578 34.648 89.53 33.36C89.978 32.8 89.866 32.856 90.426 32.856C91.098 32.856 91.266 33.304 91.266 33.864ZM108.339 33.864C108.339 34.088 108.283 34.368 108.227 34.592C107.835 36.16 106.771 38.232 105.483 39.632C102.963 42.264 99.8826 44.28 96.1866 44.28C94.5066 44.28 92.3786 43.944 90.8666 42.824C89.2426 41.704 88.1786 39.688 88.2346 37.896C88.4026 34.256 89.5226 30.392 92.2666 27.032C94.0586 24.848 96.5786 23.056 99.6586 23.056C101.395 23.056 102.907 24.4 102.907 26.136C102.907 28.152 102.067 30 100.723 31.568C99.3786 33.08 97.6426 34.312 95.7386 35.152C94.7866 35.6 92.2666 36.72 91.0906 37.168C90.9786 37.672 90.9226 38.12 91.0346 38.624C91.0906 39.296 91.9866 40.528 92.8826 40.976C92.9946 41.032 94.2826 41.984 96.1866 41.984C99.1546 41.648 101.563 39.968 103.635 37.784C104.531 36.832 105.035 35.488 106.603 33.36C107.051 32.8 106.939 32.856 107.499 32.856C108.171 32.856 108.339 33.304 108.339 33.864ZM100.499 26.808C100.555 26.416 99.8266 25.576 99.3226 25.688C97.5306 25.912 95.8506 26.808 94.6746 28.04C93.1626 29.552 91.5386 31.848 91.4826 33.64C91.4266 33.92 91.0906 34.592 91.4266 34.536C93.4426 34.2 95.6266 32.632 96.9146 31.736C98.3706 30.672 99.4906 29.272 100.443 27.144C100.499 27.088 100.499 26.864 100.499 26.808ZM125.513 17.96C125.513 18.912 123.945 19.472 123.273 19.584C122.545 19.696 114.985 19.64 114.313 19.696C113.025 21.432 110.617 28.432 109.945 30.952C109.833 31.344 108.713 34.424 108.657 34.816C108.657 34.872 108.265 37.84 108.265 39.408C108.265 40.528 109.441 41.872 110.449 41.872C111.905 41.872 112.745 41.648 113.809 41.312C115.489 40.304 117.337 38.568 118.065 37.84C119.129 36.384 120.193 34.816 121.145 33.36C121.537 32.8 121.481 32.856 121.985 32.856C122.713 32.856 122.825 33.304 122.825 33.864C122.825 34.088 122.825 34.368 122.769 34.592C122.377 36.16 121.313 38.232 119.969 39.632C118.905 40.752 117.841 42.04 116.049 42.992C114.985 43.72 112.577 44.56 110.953 44.56C106.921 44.56 105.353 41.536 105.353 38.008C105.353 37.672 105.689 35.264 105.689 34.928C106.137 33.136 108.657 27.088 109.105 25.296C109.385 24.288 110.785 21.152 111.177 19.696C110.673 19.752 108.825 19.864 108.321 19.696C107.929 19.584 105.689 19.136 105.689 18.072C105.689 17.12 106.977 16.84 107.649 16.784C109.329 16.672 111.121 16.952 112.297 16.728C112.353 16.672 114.033 13.592 114.537 12.472L116.105 8.664L117.729 5.472C118.065 4.856 119.409 1.888 120.753 1.888C121.369 1.888 122.209 2.336 122.209 3.064C122.209 4.352 120.697 6.088 120.137 7.208L115.601 16.672C116.889 16.728 121.761 16.672 124.225 16.672C124.729 16.672 125.513 17.512 125.513 17.96ZM145.997 33.864C145.997 34.088 145.941 34.368 145.885 34.592C145.493 36.16 144.429 38.232 143.085 39.632C141.405 41.424 137.933 44.168 135.301 44.168H135.245C133.005 44.168 131.549 42.768 131.213 39.52C131.045 39.464 129.309 41.312 129.197 41.368C127.405 42.376 126.341 44.448 123.261 44.448C121.805 44.448 120.573 42.88 119.789 41.984V40.248C119.789 37.168 120.685 33.584 122.253 30.504C124.493 26.248 128.133 22.944 132.837 22.944C135.525 22.944 135.413 26.696 135.861 28.544C136.701 27.2 137.485 27.312 138.101 27.592C138.661 27.872 138.381 28.936 137.989 29.552C136.813 31.288 134.013 35.824 133.733 38.456C133.509 40.416 134.293 41.76 135.693 41.76C137.037 41.76 140.341 38.68 141.237 37.784C142.133 36.832 142.693 35.488 144.261 33.36C144.653 32.8 144.597 32.856 145.157 32.856C145.829 32.856 145.997 33.304 145.997 33.864ZM133.117 28.6C133.117 27.76 133.061 25.744 131.661 25.744C129.029 25.744 126.565 28.544 124.829 31.792C123.261 34.76 122.253 38.12 122.253 40.248C122.253 40.696 122.253 40.864 122.645 41.312H123.485C124.661 41.312 125.949 40.696 126.789 39.912C127.461 39.296 130.765 35.6 131.325 34.872C132.445 33.024 133.117 30.672 133.117 28.6ZM167.567 30.448C167.567 30.728 167.455 31.176 167.175 31.736C166.503 33.08 165.159 34.76 163.647 35.712C162.191 36.608 160.511 36.384 159.895 36.384C159.615 36.384 158.999 36.272 158.495 36.048C157.319 39.24 154.687 42.824 151.775 43.72C151.663 43.776 148.415 44.616 147.911 44.616C144.607 44.616 142.479 39.632 142.479 37.112C142.479 35.096 144.215 32.688 144.831 30.952C146.791 25.576 148.471 20.536 150.823 15.272C153.343 9.56 153.343 8.384 157.599 3.568C158.159 2.952 160.343 0.655997 161.743 0.655997C162.975 0.655997 163.871 2.168 163.983 3.232C164.095 4.408 163.311 5.36 163.031 6.424C161.519 12.472 158.383 18.408 153.959 22.384C152.895 23.336 149.423 27.368 148.583 28.096C147.855 29.944 145.335 35.376 145.335 37.112C145.335 39.352 146.287 41.424 148.695 41.424C152.559 41.424 155.135 38.176 156.255 34.704C156.143 34.536 155.751 34.312 155.751 34.256C154.743 33.752 153.287 31.512 153.119 30.224C152.783 27.704 152.447 25.688 154.239 23.896C154.855 23.28 157.151 23 158.271 23.448C160.511 24.344 160.903 27.2 160.959 28.824C161.071 30.336 160.567 31.848 159.895 33.416C160.007 33.528 160.119 33.584 160.231 33.584C161.183 33.584 162.359 33.64 163.255 32.968C164.263 32.24 164.767 31.064 165.495 30.28C165.831 29.888 166.223 29.608 166.559 29.608C167.175 29.608 167.511 29.888 167.567 30.448ZM160.847 4.856C160.623 4.632 160.511 4.632 160.175 4.856C160.119 4.856 157.935 6.424 157.263 7.376C155.975 9.224 151.439 19.192 150.599 22.384C151.719 21.544 153.791 19.528 155.639 16.616C157.487 13.704 159.167 9.896 160.175 7.488C160.567 6.368 160.847 5.472 160.847 4.856ZM157.655 32.128C158.271 30.672 157.935 27.648 157.655 26.64C157.375 25.632 155.527 25.072 155.303 26.864C154.743 31.232 156.703 31.512 157.655 32.128ZM183.975 5.024C183.975 8.944 182.855 12.864 181.455 16.224C179.439 21.04 176.527 24.176 174.175 26.528C172.383 28.32 169.751 30.784 167.791 31.848C167.567 32.184 166.839 33.528 166.727 33.92C166.223 35.768 165.775 36.888 165.775 38.344C165.775 38.736 165.775 39.24 165.887 39.744C166.111 41.088 167.847 41.76 169.303 41.76C169.975 41.76 170.703 41.704 171.319 41.592C172.887 40.92 175.407 38.568 176.191 37.784C177.087 36.832 177.591 35.488 179.215 33.36C179.551 32.912 179.551 32.856 179.831 32.856C180.783 32.856 180.895 33.248 180.895 33.864C180.895 34.088 180.895 34.368 180.839 34.592C180.447 36.16 179.383 38.232 178.039 39.632C176.359 41.368 172.943 44.224 170.311 44.28C167.287 44.28 164.487 43.16 163.759 41.704C163.311 40.808 162.975 39.8 162.975 39.016C162.975 37.336 163.423 35.656 164.151 33.416C166.167 27.2 168.239 21.656 170.535 15.496C170.871 14.88 172.663 10.4 172.943 9.728C174.119 6.872 176.807 0.767999 180.559 0.767999C182.407 0.767999 183.975 3.176 183.975 5.024ZM181.567 5.64C181.567 4.8 181.511 3.624 180.335 3.624C178.655 3.624 176.863 6.928 175.351 10.4C174.231 12.976 173.895 14.208 173.391 15.552C172.775 17.176 168.855 26.192 168.799 27.984C171.655 25.856 176.079 21.88 178.823 15.944C179.887 13.648 181.567 8.104 181.567 5.64ZM197.971 33.864C197.971 34.088 197.915 34.368 197.859 34.592C197.467 36.16 196.403 38.232 195.115 39.632C192.595 42.264 189.515 44.28 185.819 44.28C184.139 44.28 182.011 43.944 180.499 42.824C178.875 41.704 177.811 39.688 177.867 37.896C178.035 34.256 179.155 30.392 181.899 27.032C183.691 24.848 186.211 23.056 189.291 23.056C191.027 23.056 192.539 24.4 192.539 26.136C192.539 28.152 191.699 30 190.355 31.568C189.011 33.08 187.275 34.312 185.371 35.152C184.419 35.6 181.899 36.72 180.723 37.168C180.611 37.672 180.555 38.12 180.667 38.624C180.723 39.296 181.619 40.528 182.515 40.976C182.627 41.032 183.915 41.984 185.819 41.984C188.787 41.648 191.195 39.968 193.267 37.784C194.163 36.832 194.667 35.488 196.235 33.36C196.683 32.8 196.571 32.856 197.131 32.856C197.803 32.856 197.971 33.304 197.971 33.864ZM190.131 26.808C190.187 26.416 189.459 25.576 188.955 25.688C187.163 25.912 185.483 26.808 184.307 28.04C182.795 29.552 181.171 31.848 181.115 33.64C181.059 33.92 180.723 34.592 181.059 34.536C183.075 34.2 185.259 32.632 186.547 31.736C188.003 30.672 189.123 29.272 190.075 27.144C190.131 27.088 190.131 26.864 190.131 26.808Z" fill="#FEC46E"/>
</svg>
