<svg width="172" height="29" viewBox="0 0 172 29" fill="none" xmlns="http://www.w3.org/2000/svg">
<path d="M15.1565 7.6C15.1565 10.896 13.4605 14.288 11.3165 17.232C9.6525 19.504 7.5085 21.648 5.7485 23.024L6.1005 23.28C6.1325 23.312 7.2845 24.496 7.7645 24.944C8.2765 25.424 9.5565 26.128 10.3245 26.128C11.2845 26.128 12.8525 25.456 13.4605 24.976C13.9085 24.624 13.8765 23.888 14.6125 23.888C14.6445 23.888 14.7085 23.92 14.7085 23.92C14.7405 23.92 14.9005 24.08 14.9325 24.112L14.9645 24.848C14.9645 26.48 12.0525 27.408 10.2925 27.408C9.8445 27.408 8.2445 27.056 7.9885 26.896C6.9325 26.256 6.0685 25.616 5.2045 24.72C5.2045 24.72 4.6925 24.656 4.5005 24.656C3.3165 24.656 2.4205 25.36 1.3005 25.36C0.820499 25.36 0.372499 25.04 0.372499 24.528C0.372499 24.048 0.564499 23.44 1.0125 23.216C1.1405 23.152 2.1965 22.704 2.4845 22.608C5.5565 21.584 8.1485 19.376 9.9405 16.72C11.3805 14.608 12.5965 12.624 13.2045 10L13.4605 8.08V7.92C13.4605 6.448 12.5005 5.936 11.1565 5.936C9.5565 5.936 7.4445 6.864 5.7485 8.176C4.0205 9.52 2.6765 11.28 2.6765 12.912C2.6765 13.776 3.1885 14.224 3.9885 14.224C5.6205 14.224 6.2925 12.016 7.7325 12.016C8.2125 12.016 8.4045 12.112 8.4045 12.624C8.4045 14.224 5.4285 15.888 3.9565 15.888C2.4845 15.888 0.948498 14.544 0.948498 12.976C0.948498 10.736 2.5485 8.528 4.6925 6.832C6.6765 5.264 9.1085 4.24 11.0605 4.24C13.2365 4.24 15.1565 5.328 15.1565 7.6ZM27.9165 10.096C27.9165 14.352 24.9725 22.672 21.6125 25.328C20.6845 26.064 19.1165 26.096 17.9965 26.096C16.0445 26.096 16.0445 22.928 15.6925 21.712V16.944C15.9485 16.08 15.9485 15.12 16.2685 14.256C17.6125 10.64 19.9805 4.912 24.6525 4.912C27.3085 4.912 27.9165 7.888 27.9165 10.096ZM26.1885 10.8C26.1885 9.968 26.2845 8.912 25.6125 8.336C25.4845 8.336 24.9725 7.216 24.8765 7.216C24.0765 7.216 23.3725 7.44 22.7645 8.016C19.7245 10.896 17.4205 14.896 17.4205 19.184C17.4205 20.496 17.2925 23.536 18.3805 24.4L19.1485 24.432C22.7325 24.432 26.1885 13.872 26.1885 10.8ZM42.3752 7.6C42.3752 10.896 40.6792 14.288 38.5352 17.232C36.8712 19.504 34.7272 21.648 32.9672 23.024L33.3192 23.28C33.3512 23.312 34.5032 24.496 34.9832 24.944C35.4952 25.424 36.7752 26.128 37.5432 26.128C38.5032 26.128 40.0712 25.456 40.6792 24.976C41.1272 24.624 41.0952 23.888 41.8312 23.888C41.8632 23.888 41.9272 23.92 41.9272 23.92C41.9592 23.92 42.1192 24.08 42.1512 24.112L42.1832 24.848C42.1832 26.48 39.2712 27.408 37.5112 27.408C37.0632 27.408 35.4632 27.056 35.2072 26.896C34.1512 26.256 33.2872 25.616 32.4232 24.72C32.4232 24.72 31.9112 24.656 31.7192 24.656C30.5352 24.656 29.6392 25.36 28.5192 25.36C28.0392 25.36 27.5912 25.04 27.5912 24.528C27.5912 24.048 27.7832 23.44 28.2312 23.216C28.3592 23.152 29.4152 22.704 29.7032 22.608C32.7752 21.584 35.3672 19.376 37.1592 16.72C38.5992 14.608 39.8152 12.624 40.4232 10L40.6792 8.08V7.92C40.6792 6.448 39.7192 5.936 38.3752 5.936C36.7752 5.936 34.6632 6.864 32.9672 8.176C31.2392 9.52 29.8952 11.28 29.8952 12.912C29.8952 13.776 30.4072 14.224 31.2072 14.224C32.8392 14.224 33.5112 12.016 34.9512 12.016C35.4312 12.016 35.6232 12.112 35.6232 12.624C35.6232 14.224 32.6472 15.888 31.1752 15.888C29.7032 15.888 28.1672 14.544 28.1672 12.976C28.1672 10.736 29.7672 8.528 31.9112 6.832C33.8952 5.264 36.3272 4.24 38.2792 4.24C40.4552 4.24 42.3752 5.328 42.3752 7.6ZM59.0072 6.768C59.0072 7.632 58.3672 8.048 58.0792 8.784L56.0632 13.744C55.3912 15.376 54.7192 15.664 54.7192 17.712C55.9672 17.712 56.8952 17.008 57.5352 17.008C57.7912 17.008 57.8872 17.136 57.8872 17.392V17.552C56.6392 19.376 54.1432 19.216 53.8552 19.76C53.6312 20.176 52.6072 22.224 52.4152 22.672C52.0952 23.44 52.2232 25.968 50.8472 25.968C50.3032 25.968 50.2072 25.552 50.2072 25.104V24.688L52.0312 19.952L52.1912 19.376C50.3672 19.216 47.3592 17.776 46.9752 17.776C46.3032 17.776 45.9192 19.216 44.3512 19.216C43.8392 19.216 42.9112 18.64 42.9112 18.032C42.9112 16.528 46.0472 16.272 46.3672 15.824C47.0072 14.928 47.3272 13.232 47.6472 12.272C48.3192 10.256 50.6232 5.488 52.6712 5.488C53.1192 5.488 53.3432 5.488 53.3432 6C53.3432 6.48 53.2472 6.256 52.7672 6.8C50.7192 9.136 49.7912 10.768 48.7672 13.744C48.5432 14.384 47.9992 15.376 47.9992 16.016C47.9992 16.56 50.9432 17.776 51.9672 17.776L52.6072 17.744C53.0552 17.456 53.0552 16.72 53.3112 16.272C54.8152 13.648 56.0312 10.448 57.1512 7.696C57.3752 7.152 57.5672 6.032 58.3352 6.032C58.8152 6.032 59.0072 6.32 59.0072 6.768ZM62.6872 24.368C62.6872 25.392 61.7272 26.096 60.7672 26.096C59.8712 26.096 59.5512 25.168 59.5512 24.432C59.5512 23.472 60.8312 23.184 61.5992 23.184C62.3672 23.184 62.6872 23.696 62.6872 24.368ZM77.3705 5.52C77.3705 5.904 75.5465 10.32 75.1625 11.184C74.0745 13.648 72.7945 15.984 71.8025 18.48C71.2905 19.792 69.0825 26 67.8025 26C67.1625 26 66.9385 25.776 66.9385 25.136V24.688C69.1465 21.616 70.3945 17.904 71.9625 14.48C72.5065 13.296 73.4025 11.824 73.7865 10.576C73.0825 11.152 71.0345 13.264 70.9065 13.36C70.6825 13.52 68.9545 14.992 68.7305 15.184C68.5705 15.312 68.1865 15.728 68.0265 15.728C67.7705 15.728 67.4185 15.44 67.4505 15.184C67.5785 14.192 68.4105 13.392 69.0825 12.816C69.3705 12.56 70.6185 11.472 70.9065 11.248C71.3225 10.928 73.6905 8.304 74.4265 7.376C74.9385 6.704 75.8345 4.624 76.6345 4.624C77.1145 4.624 77.3705 5.104 77.3705 5.52ZM88.4955 5.52C88.4955 5.904 86.6715 10.32 86.2875 11.184C85.1995 13.648 83.9195 15.984 82.9275 18.48C82.4155 19.792 80.2075 26 78.9275 26C78.2875 26 78.0635 25.776 78.0635 25.136V24.688C80.2715 21.616 81.5195 17.904 83.0875 14.48C83.6315 13.296 84.5275 11.824 84.9115 10.576C84.2075 11.152 82.1595 13.264 82.0315 13.36C81.8075 13.52 80.0795 14.992 79.8555 15.184C79.6955 15.312 79.3115 15.728 79.1515 15.728C78.8955 15.728 78.5435 15.44 78.5755 15.184C78.7035 14.192 79.5355 13.392 80.2075 12.816C80.4955 12.56 81.7435 11.472 82.0315 11.248C82.4475 10.928 84.8155 8.304 85.5515 7.376C86.0635 6.704 86.9595 4.624 87.7595 4.624C88.2395 4.624 88.4955 5.104 88.4955 5.52ZM92.0685 24.368C92.0685 25.392 91.1085 26.096 90.1485 26.096C89.2525 26.096 88.9325 25.168 88.9325 24.432C88.9325 23.472 90.2125 23.184 90.9805 23.184C91.7485 23.184 92.0685 23.696 92.0685 24.368ZM109.888 7.6C109.888 10.896 108.192 14.288 106.048 17.232C104.384 19.504 102.24 21.648 100.48 23.024L100.832 23.28C100.864 23.312 102.016 24.496 102.496 24.944C103.008 25.424 104.288 26.128 105.056 26.128C106.016 26.128 107.584 25.456 108.192 24.976C108.64 24.624 108.608 23.888 109.344 23.888C109.376 23.888 109.44 23.92 109.44 23.92C109.472 23.92 109.632 24.08 109.664 24.112L109.696 24.848C109.696 26.48 106.784 27.408 105.024 27.408C104.576 27.408 102.976 27.056 102.72 26.896C101.664 26.256 100.8 25.616 99.9357 24.72C99.9357 24.72 99.4237 24.656 99.2317 24.656C98.0477 24.656 97.1517 25.36 96.0317 25.36C95.5517 25.36 95.1037 25.04 95.1037 24.528C95.1037 24.048 95.2957 23.44 95.7437 23.216C95.8717 23.152 96.9277 22.704 97.2157 22.608C100.288 21.584 102.88 19.376 104.672 16.72C106.112 14.608 107.328 12.624 107.936 10L108.192 8.08V7.92C108.192 6.448 107.232 5.936 105.888 5.936C104.288 5.936 102.176 6.864 100.48 8.176C98.7517 9.52 97.4077 11.28 97.4077 12.912C97.4077 13.776 97.9197 14.224 98.7197 14.224C100.352 14.224 101.024 12.016 102.464 12.016C102.944 12.016 103.136 12.112 103.136 12.624C103.136 14.224 100.16 15.888 98.6877 15.888C97.2157 15.888 95.6797 14.544 95.6797 12.976C95.6797 10.736 97.2797 8.528 99.4237 6.832C101.408 5.264 103.84 4.24 105.792 4.24C107.968 4.24 109.888 5.328 109.888 7.6ZM124.888 7.6C124.888 10.896 123.192 14.288 121.048 17.232C119.384 19.504 117.24 21.648 115.48 23.024L115.832 23.28C115.864 23.312 117.016 24.496 117.496 24.944C118.008 25.424 119.288 26.128 120.056 26.128C121.016 26.128 122.584 25.456 123.192 24.976C123.64 24.624 123.608 23.888 124.344 23.888C124.376 23.888 124.44 23.92 124.44 23.92C124.472 23.92 124.632 24.08 124.664 24.112L124.696 24.848C124.696 26.48 121.784 27.408 120.024 27.408C119.576 27.408 117.976 27.056 117.72 26.896C116.664 26.256 115.8 25.616 114.936 24.72C114.936 24.72 114.424 24.656 114.232 24.656C113.048 24.656 112.152 25.36 111.032 25.36C110.552 25.36 110.104 25.04 110.104 24.528C110.104 24.048 110.296 23.44 110.744 23.216C110.872 23.152 111.928 22.704 112.216 22.608C115.288 21.584 117.88 19.376 119.672 16.72C121.112 14.608 122.328 12.624 122.936 10L123.192 8.08V7.92C123.192 6.448 122.232 5.936 120.888 5.936C119.288 5.936 117.176 6.864 115.48 8.176C113.752 9.52 112.408 11.28 112.408 12.912C112.408 13.776 112.92 14.224 113.72 14.224C115.352 14.224 116.024 12.016 117.464 12.016C117.944 12.016 118.136 12.112 118.136 12.624C118.136 14.224 115.16 15.888 113.688 15.888C112.216 15.888 110.68 14.544 110.68 12.976C110.68 10.736 112.28 8.528 114.424 6.832C116.408 5.264 118.84 4.24 120.792 4.24C122.968 4.24 124.888 5.328 124.888 7.6ZM129.2 24.368C129.2 25.392 128.24 26.096 127.28 26.096C126.384 26.096 126.064 25.168 126.064 24.432C126.064 23.472 127.344 23.184 128.112 23.184C128.88 23.184 129.2 23.696 129.2 24.368ZM143.211 16.528C142.507 15.12 141.259 12.784 140.747 11.76C140.203 10.672 139.371 8.912 139.307 8.368L139.147 7.248C138.859 3.184 142.571 0.4 146.379 0.4C148.715 0.4 151.019 2.096 151.019 4.144C151.019 5.52 149.771 7.024 148.779 7.472C148.619 7.6 148.459 7.632 148.331 7.632C148.171 7.632 148.043 7.6 147.883 7.536C147.531 7.376 147.275 7.024 147.243 6.704C147.787 6.032 149.323 5.328 149.163 4.176C149.131 3.152 148.043 2.032 146.507 2.032C145.931 2.032 144.523 2.32 143.563 2.736C142.539 3.184 140.875 4.24 140.907 7.12C140.939 9.264 143.531 13.488 144.715 15.664C145.003 16.304 145.387 17.072 145.547 17.968C145.579 18.512 145.643 19.6 145.643 20.368C145.643 24.368 141.867 28.112 136.747 28.112C135.659 28.112 133.259 27.056 132.587 25.808C132.363 25.616 131.915 24.944 131.851 24.816C131.563 24.24 131.243 22.928 131.243 22C131.243 20.752 131.563 19.344 132.459 18.128C133.195 17.104 134.251 16.048 135.947 15.632C136.107 15.6 136.235 15.568 136.363 15.568C137.643 15.568 138.731 16.912 138.859 18C138.987 19.344 138.379 20.688 137.771 20.944C137.547 21.04 137.291 21.232 137.067 21.136C136.779 20.976 136.683 20.72 136.683 20.4C136.683 20.24 136.715 20.048 136.747 19.856C136.907 19.12 137.483 18.352 137.451 18.096C137.387 17.552 136.747 17.136 136.171 17.136C136.011 17.136 135.851 17.168 135.723 17.232C134.251 17.968 132.651 19.568 132.651 21.808C132.651 22.544 132.907 23.344 133.323 24.24C133.835 25.392 135.499 26.544 136.907 26.544C141.035 26.544 143.915 22.96 143.915 19.696C143.915 19.184 143.851 18.704 143.723 18.224C143.691 17.744 143.307 16.464 143.211 16.528ZM161.764 20.208C161.764 20.336 161.732 20.496 161.7 20.624C161.476 21.52 160.868 22.704 160.1 23.504C159.14 24.528 157.156 26.096 155.652 26.096H155.62C154.34 26.096 153.508 25.296 153.316 23.44C153.22 23.408 152.228 24.464 152.164 24.496C151.14 25.072 150.532 26.256 148.772 26.256C147.94 26.256 147.236 25.36 146.788 24.848V23.856C146.788 22.096 147.3 20.048 148.196 18.288C149.476 15.856 151.556 13.968 154.244 13.968C155.78 13.968 155.716 16.112 155.972 17.168C156.452 16.4 156.9 16.464 157.252 16.624C157.572 16.784 157.412 17.392 157.188 17.744C156.516 18.736 154.916 21.328 154.756 22.832C154.628 23.952 155.076 24.72 155.876 24.72C156.644 24.72 158.532 22.96 159.044 22.448C159.556 21.904 159.876 21.136 160.772 19.92C160.996 19.6 160.964 19.632 161.284 19.632C161.668 19.632 161.764 19.888 161.764 20.208ZM154.404 17.2C154.404 16.72 154.372 15.568 153.572 15.568C152.068 15.568 150.66 17.168 149.668 19.024C148.772 20.72 148.196 22.64 148.196 23.856C148.196 24.112 148.196 24.208 148.42 24.464H148.9C149.572 24.464 150.308 24.112 150.788 23.664C151.172 23.312 153.06 21.2 153.38 20.784C154.02 19.728 154.404 18.384 154.404 17.2ZM171.434 11.12C171.434 11.664 170.538 11.984 170.154 12.048C169.738 12.112 165.418 12.08 165.034 12.112C164.298 13.104 162.922 17.104 162.538 18.544C162.474 18.768 161.834 20.528 161.802 20.752C161.802 20.784 161.578 22.48 161.578 23.376C161.578 24.016 162.25 24.784 162.826 24.784C163.658 24.784 164.138 24.656 164.746 24.464C165.706 23.888 166.762 22.896 167.178 22.48C167.786 21.648 168.394 20.752 168.938 19.92C169.162 19.6 169.13 19.632 169.418 19.632C169.834 19.632 169.898 19.888 169.898 20.208C169.898 20.336 169.898 20.496 169.866 20.624C169.642 21.52 169.034 22.704 168.266 23.504C167.658 24.144 167.05 24.88 166.026 25.424C165.418 25.84 164.042 26.32 163.114 26.32C160.81 26.32 159.914 24.592 159.914 22.576C159.914 22.384 160.106 21.008 160.106 20.816C160.362 19.792 161.802 16.336 162.058 15.312C162.218 14.736 163.018 12.944 163.242 12.112C162.954 12.144 161.898 12.208 161.61 12.112C161.386 12.048 160.106 11.792 160.106 11.184C160.106 10.64 160.842 10.48 161.226 10.448C162.186 10.384 163.21 10.544 163.882 10.416C163.914 10.384 164.874 8.624 165.162 7.984L166.058 5.808L166.986 3.984C167.178 3.632 167.946 1.936 168.714 1.936C169.066 1.936 169.546 2.192 169.546 2.608C169.546 3.344 168.682 4.336 168.362 4.976L165.77 10.384C166.506 10.416 169.29 10.384 170.698 10.384C170.986 10.384 171.434 10.864 171.434 11.12Z" fill="white"/>
</svg>
