<svg width="255" height="135" viewBox="0 0 255 135" fill="none" xmlns="http://www.w3.org/2000/svg">
<path d="M84.9144 2.15C84.9144 3.425 81.4644 4.925 78.3894 7.025C77.2644 7.775 75.5394 9.35 75.0144 10.025C70.2894 16.25 67.5894 22.325 64.2894 29.3C62.1894 33.725 59.0394 38 58.2894 43.025L52.2894 54.575C51.7644 55.625 51.3144 55.925 50.4144 55.925C48.3144 55.925 48.0144 53.375 48.0144 51.875C48.0144 49.625 48.9144 47.375 48.9144 45.2C48.9144 44.75 48.4644 41.3 48.4644 40.85C48.4644 39.275 48.5394 30.575 48.9894 28.475C48.4644 28.475 48.6144 28.25 48.3144 28.925C43.2894 39.125 35.9394 49.925 30.9144 60.125L30.0894 60.575H29.8644C28.6644 60.575 27.9144 59.3 27.9144 58.25C27.9144 55.1 29.4894 52.325 30.4644 49.475C32.0394 44.675 32.7894 39.8 33.9144 34.925C35.1144 29.675 37.6644 24.875 37.6644 19.55L37.3644 19.475L36.4644 19.925C31.5894 24.65 25.4394 30.2 18.0894 30.2C14.4894 30.2 9.08936 26.825 9.08936 22.775C9.08936 18.275 9.91436 12.725 12.6144 8.6C15.2394 4.625 19.6644 1.85 24.8394 1.85C27.0894 1.85 29.7144 4.55 29.7144 6.875C29.7144 7.925 29.2644 9.275 27.9144 9.275C25.5144 9.275 27.3894 5.75 23.2644 5.75C20.7894 5.75 17.2644 7.85 15.1644 10.775C12.9144 13.85 12.0894 17.9 12.0894 20.3C12.0894 23.45 14.2644 26.75 17.6394 26.75C25.6644 26.75 32.4894 19.775 37.3644 14.375C39.9894 11.375 41.4894 7.475 44.6394 4.925H45.0144C46.0644 4.925 46.8144 5.6 46.8144 6.65C46.8144 8.6 43.0644 14.825 42.4644 16.925C42.3144 17.6 40.9644 23.45 40.7394 24.2C40.5894 24.8 38.7894 29.6 38.6394 30.2C37.7394 33.05 36.7644 36.2 36.0894 39.2C35.7894 40.325 34.5894 45.125 34.8144 46.55C37.2894 44.675 45.9894 24.575 50.7144 17.675C51.8394 16.025 52.8144 15.575 53.4144 15.575C54.3894 15.575 54.9144 16.625 54.9144 17.45C54.9144 19.1 53.9394 21.5 53.6394 22.925C52.5894 27.725 51.8394 33.35 51.8394 38.225L51.9144 40.85C51.9144 42.05 51.8394 43.85 52.7394 44.75C54.2394 43.85 54.9894 41.675 55.2894 40.025C56.6394 37.025 62.8644 23.225 64.2894 20.3C66.0144 16.7 68.7894 11.6 72.3144 7.475C74.7894 4.625 78.0894 2 81.3144 1.1C82.2144 0.874999 82.6644 1.025 83.5644 1.025C84.5394 1.025 84.9144 1.175 84.9144 2.15ZM97.7716 42.425C97.7716 42.725 97.6966 43.1 97.6216 43.4C97.0966 45.5 95.6716 48.275 93.9466 50.15C90.5716 53.675 86.4466 56.375 81.4966 56.375C79.2466 56.375 76.3966 55.925 74.3716 54.425C72.1966 52.925 70.7716 50.225 70.8466 47.825C71.0716 42.95 72.5716 37.775 76.2466 33.275C78.6466 30.35 82.0216 27.95 86.1466 27.95C88.4716 27.95 90.4966 29.75 90.4966 32.075C90.4966 34.775 89.3716 37.25 87.5716 39.35C85.7716 41.375 83.4466 43.025 80.8966 44.15C79.6216 44.75 76.2466 46.25 74.6716 46.85C74.5216 47.525 74.4466 48.125 74.5966 48.8C74.6716 49.7 75.8716 51.35 77.0716 51.95C77.2216 52.025 78.9466 53.3 81.4966 53.3C85.4716 52.85 88.6966 50.6 91.4716 47.675C92.6716 46.4 93.3466 44.6 95.4466 41.75C96.0466 41 95.8966 41.075 96.6466 41.075C97.5466 41.075 97.7716 41.675 97.7716 42.425ZM87.2716 32.975C87.3466 32.45 86.3716 31.325 85.6966 31.475C83.2966 31.775 81.0466 32.975 79.4716 34.625C77.4466 36.65 75.2716 39.725 75.1966 42.125C75.1216 42.5 74.6716 43.4 75.1216 43.325C77.8216 42.875 80.7466 40.775 82.4716 39.575C84.4216 38.15 85.9216 36.275 87.1966 33.425C87.2716 33.35 87.2716 33.05 87.2716 32.975ZM131.498 2.45C131.498 2.6 131.498 3.35 131.423 3.5C130.823 5.225 130.148 6.875 129.398 8.525C127.148 13.55 121.898 23.75 119.498 28.85C117.023 33.875 114.923 38.975 114.023 44.375C113.648 46.325 113.498 48.2 113.498 50.225C113.498 51.125 114.098 53.375 115.373 53.375C118.823 53.3 120.473 52.775 125.123 48.125C126.323 46.85 127.298 44.6 129.173 41.75C129.698 41 129.623 41.075 130.298 41.075C131.273 41.075 131.423 41.675 131.423 42.425C131.423 42.725 131.423 43.1 131.348 43.4C130.823 45.5 129.398 48.275 127.598 50.15C123.848 54.125 120.323 56.6 115.298 56.6C108.773 56.6 110.123 50.225 110.048 49.25C107.123 52.475 103.523 56.225 99.0231 56.225C95.1231 56.225 93.7731 51.725 93.7731 48.5C93.7731 41.975 101.123 27.125 108.923 27.125C112.223 27.125 112.223 30.575 114.023 30.575C114.398 30.575 114.623 30.65 114.848 30.125L125.048 7.775C126.473 6.2 127.973 0.499999 129.923 0.499999C131.198 0.499999 131.498 1.4 131.498 2.45ZM111.473 36.425C111.473 34.4 110.798 31.4 108.248 31.4C107.498 31.4 107.123 31.475 106.298 31.85C100.823 36.05 97.2981 42.05 97.2981 48.875C97.2981 49.25 97.7481 52.025 97.7481 52.4C97.8981 53 98.7231 52.85 99.0981 52.85C104.348 52.85 111.473 40.85 111.473 36.425ZM165.19 2.45C165.19 2.6 165.19 3.35 165.115 3.5C164.515 5.225 163.84 6.875 163.09 8.525C160.84 13.55 155.59 23.75 153.19 28.85C150.715 33.875 148.615 38.975 147.715 44.375C147.34 46.325 147.19 48.2 147.19 50.225C147.19 51.125 147.79 53.375 149.065 53.375C152.515 53.3 154.165 52.775 158.815 48.125C160.015 46.85 160.99 44.6 162.865 41.75C163.39 41 163.315 41.075 163.99 41.075C164.965 41.075 165.115 41.675 165.115 42.425C165.115 42.725 165.115 43.1 165.04 43.4C164.515 45.5 163.09 48.275 161.29 50.15C157.54 54.125 154.015 56.6 148.99 56.6C142.465 56.6 143.815 50.225 143.74 49.25C140.815 52.475 137.215 56.225 132.715 56.225C128.815 56.225 127.465 51.725 127.465 48.5C127.465 41.975 134.815 27.125 142.615 27.125C145.915 27.125 145.915 30.575 147.715 30.575C148.09 30.575 148.315 30.65 148.54 30.125L158.74 7.775C160.165 6.2 161.665 0.499999 163.615 0.499999C164.89 0.499999 165.19 1.4 165.19 2.45ZM145.165 36.425C145.165 34.4 144.49 31.4 141.94 31.4C141.19 31.4 140.815 31.475 139.99 31.85C134.515 36.05 130.99 42.05 130.99 48.875C130.99 49.25 131.44 52.025 131.44 52.4C131.59 53 132.415 52.85 132.79 52.85C138.04 52.85 145.165 40.85 145.165 36.425ZM177.806 16.55C177.806 18.275 176.081 21.575 174.056 21.575C172.556 21.575 171.131 19.775 171.131 18.2C171.131 16.175 173.606 14.225 175.556 14.225C177.131 14.225 177.806 14.975 177.806 16.55ZM181.256 42.425C181.256 42.725 181.181 43.1 181.106 43.4C180.581 45.5 179.156 48.275 177.356 50.15C175.106 52.55 170.456 56.225 166.856 56.225C165.581 56.225 164.381 56.15 164.081 55.775C161.906 54.2 161.231 50.075 161.231 48.05C161.231 40.775 166.106 34.85 168.806 28.7C169.106 28.25 170.156 27.275 170.756 27.5C171.281 27.725 172.331 28.925 172.331 29.675V29.9C169.256 35.825 164.906 41.9 164.906 48.65C164.906 49.475 165.581 52.775 166.856 52.775C167.681 52.775 168.506 52.625 169.331 52.25C171.431 51.05 174.056 48.575 174.881 47.675C176.081 46.4 177.056 44.6 178.931 41.75C179.456 41 179.381 41.075 180.131 41.075C181.031 41.075 181.256 41.675 181.256 42.425ZM215.362 42.425C215.362 42.725 215.287 43.1 215.212 43.475C214.687 45.575 213.262 48.425 211.462 50.3C209.812 52.025 208.162 53.825 206.062 55.1C204.337 56.225 202.387 56.9 200.212 56.9C199.312 56.9 198.112 56.9 197.362 56.525C195.637 55.7 195.637 53.45 195.637 51.8C195.637 49.1 197.137 47 198.262 44.75C199.987 41.45 202.162 36.65 202.912 33.35C202.612 33.35 202.237 33.275 202.237 33.275C199.012 33.275 195.187 39.95 193.387 42.275C193.237 42.5 192.787 43.4 192.187 44.3C191.587 45.275 190.912 46.325 190.462 46.775C189.937 47.3 189.337 48.2 188.737 49.175L186.787 52.325C185.512 54.275 184.162 56.225 183.037 56.225C181.987 56.225 181.612 55.625 181.312 54.65C182.962 49.25 185.737 44.3 188.137 39.2C188.587 38.3 189.112 37.1 189.562 35.975C190.312 33.275 190.462 31.775 190.012 31.625C189.187 31.4 186.637 35.225 185.212 37.625C184.612 38.6 183.037 41.675 182.362 43.025C181.687 44.525 181.012 44.9 180.562 45.2C180.037 45.575 178.912 45.8 178.462 45.05C178.012 44.375 178.387 42.8 178.612 42.35L179.137 41.525C179.437 41.15 179.512 40.925 180.112 40.025C181.312 38.375 181.537 38.075 183.187 34.775C184.762 31.625 187.762 28.25 190.312 28.25C192.862 28.25 193.387 30.05 193.612 31.475C193.837 32.675 193.537 33.8 193.312 34.55L191.962 39.275C195.037 34.4 199.762 29.525 204.337 28.625C206.137 29.3 206.737 30.95 206.737 32.675V33.125C205.162 38.3 202.987 43.175 201.187 46.925C200.512 48.275 199.462 50 199.462 51.5C199.462 52.025 199.312 52.7 199.837 53.075C199.987 53.15 200.812 53.15 201.037 53.15C201.787 53.15 202.612 52.925 203.362 52.625C205.312 51.5 207.637 49.325 208.462 48.425C209.137 47.675 209.737 46.55 210.187 45.65C211.087 44.15 211.912 42.575 213.037 41.225C213.337 40.85 213.562 40.925 214.012 40.925C215.137 40.925 215.362 41.6 215.362 42.425ZM243.054 42.425C243.054 42.725 243.054 43.1 242.979 43.4C241.254 50.375 232.929 56.375 226.104 57.5C224.454 61.1 223.254 65.45 221.529 68.825C221.304 69.275 221.004 69.725 220.704 70.1C216.729 75.65 214.629 81.875 206.679 81.875C203.679 81.875 200.604 77.9 201.429 74.15C202.254 70.4 206.679 66.575 209.529 64.55C212.454 62.45 215.529 60.425 218.529 58.325L221.979 56C222.354 55.55 222.804 54.95 222.804 54.35C222.804 53.675 222.579 53 222.579 52.325C220.479 54.425 217.779 56.6 215.079 56.6C210.654 56.6 210.129 53.75 210.129 50C210.129 46.175 212.379 39.5 215.079 35.525C218.154 30.875 222.654 27.2 227.679 27.2C233.229 27.2 233.154 34.175 233.154 38.15C233.154 42.575 227.979 47.9 227.679 53.15C228.204 53 228.804 53 229.329 53C231.129 53 235.479 49.025 236.754 47.675C238.329 45.95 239.379 43.625 240.804 41.75C241.254 41.15 241.179 41.075 241.929 41.075C242.829 41.075 243.054 41.6 243.054 42.425ZM228.879 34.775C228.879 33.275 228.804 31.1 226.779 31.1C223.779 31.1 220.554 34.325 218.154 38.15C216.054 41.525 213.954 47.3 213.954 49.7C213.954 51.275 213.579 52.775 215.679 52.775C218.529 52.775 222.729 48.875 225.129 45.575C227.604 42.2 228.879 37.475 228.879 34.775ZM219.954 61.325C216.879 63.275 205.104 70.85 205.104 74.6C205.104 76.325 206.079 78.275 207.879 78.275C212.154 78.275 218.379 68.075 219.129 65C219.204 64.625 220.479 61.4 219.954 61.325ZM37.5967 75.05C39.3967 75.05 39.3217 75.125 39.3217 76.775C39.3217 77.225 39.2467 77.6 39.2467 78.05C37.4467 79.925 33.9967 85.25 33.2467 87.8L31.2967 92.225C29.0467 97.175 27.3967 102.05 25.3717 107.15C24.3967 109.55 22.7467 113.375 22.2967 113.975C21.6217 115.55 20.4217 119.45 19.1467 122.225C15.3217 130.475 12.9967 134.675 6.02168 134.675C3.47168 134.675 0.0966799 132.8 0.0966799 128.975C0.0966799 128.15 0.99668 127.25 1.67168 127.25C4.44668 127.25 2.79668 130.925 5.87168 130.925C7.89668 130.925 9.99668 130.25 11.6467 128.6C13.3717 126.875 17.2717 117.275 18.6217 114.125L20.7217 109.1C21.7717 106.625 27.3217 93.575 28.2217 90.575C28.0717 90.8 27.0967 90.875 26.7217 91.175C24.3217 92.9 18.6217 97.475 15.5467 98.975C13.4467 99.5 11.8717 97.925 13.6717 96.5C17.7967 93.875 26.2717 86.9 27.9217 85.325C30.6217 82.775 33.9967 78.125 35.1217 76.55C36.0217 75.35 36.4717 75.05 37.5967 75.05ZM66.6439 117.425C66.6439 117.725 66.5689 118.1 66.4939 118.475C65.9689 120.575 64.5439 123.425 62.7439 125.3C61.0939 127.025 59.4439 128.825 57.3439 130.1C55.6189 131.225 53.6689 131.9 51.4939 131.9C50.5939 131.9 49.3939 131.9 48.6439 131.525C46.9189 130.7 46.9189 128.45 46.9189 126.8C46.9189 124.1 48.4189 122 49.5439 119.75C51.2689 116.45 53.4439 111.65 54.1939 108.35C53.8939 108.35 53.5189 108.275 53.5189 108.275C50.2939 108.275 46.4689 114.95 44.6689 117.275C44.5189 117.5 44.0689 118.4 43.4689 119.3C42.8689 120.275 42.1939 121.325 41.7439 121.775C41.2189 122.3 40.6189 123.2 40.0189 124.175L38.0689 127.325C36.7939 129.275 35.4439 131.225 34.3189 131.225C33.2689 131.225 32.8939 130.625 32.5939 129.65C34.2439 124.25 37.0189 119.3 39.4189 114.2C39.8689 113.3 40.3939 112.1 40.8439 110.975C41.5939 108.275 41.7439 106.775 41.2939 106.625C40.4689 106.4 37.9189 110.225 36.4939 112.625C35.8939 113.6 34.3189 116.675 33.6439 118.025C32.9689 119.525 32.2939 119.9 31.8439 120.2C31.3189 120.575 30.1939 120.8 29.7439 120.05C29.2939 119.375 29.6689 117.8 29.8939 117.35L30.4189 116.525C30.7189 116.15 30.7939 115.925 31.3939 115.025C32.5939 113.375 32.8189 113.075 34.4689 109.775C36.0439 106.625 39.0439 103.25 41.5939 103.25C44.1439 103.25 44.6689 105.05 44.8939 106.475C45.1189 107.675 44.8189 108.8 44.5939 109.55L43.2439 114.275C46.3189 109.4 51.0439 104.525 55.6189 103.625C57.4189 104.3 58.0189 105.95 58.0189 107.675V108.125C56.4439 113.3 54.2689 118.175 52.4689 121.925C51.7939 123.275 50.7439 125 50.7439 126.5C50.7439 127.025 50.5939 127.7 51.1189 128.075C51.2689 128.15 52.0939 128.15 52.3189 128.15C53.0689 128.15 53.8939 127.925 54.6439 127.625C56.5939 126.5 58.9189 124.325 59.7439 123.425C60.4189 122.675 61.0189 121.55 61.4689 120.65C62.3689 119.15 63.1939 117.575 64.3189 116.225C64.6189 115.85 64.8439 115.925 65.2939 115.925C66.4189 115.925 66.6439 116.6 66.6439 117.425ZM91.3354 113.15C91.2604 115.4 82.2604 120.425 80.1604 120.425C79.4104 120.425 77.8354 120.275 77.3854 119.375C76.8604 120.35 74.0854 125 70.9354 128.3C69.2104 130.175 67.4104 132.875 65.7604 132.875C64.7854 132.875 64.8604 131 64.4854 130.25C64.5604 129.425 64.0354 124.475 63.8854 123.725C63.8104 123.5 63.8104 120.95 63.8854 120.875C63.9604 117.725 63.8854 116.375 63.8854 113.15C63.9604 110.75 63.0604 108.275 62.6104 105.65C61.8604 100.475 65.4604 101.825 66.0604 102.65C66.2104 103.1 66.5854 105.05 66.5854 105.425C66.7354 106.1 67.2604 108.95 67.1854 109.1C67.2604 109.625 67.2604 113.6 67.2604 114.2C67.1104 117.2 67.2604 119.75 67.6354 122.375C67.7104 123.05 67.2604 124.7 67.3354 125.075L67.2604 125.825C67.3354 125.825 67.5604 127.325 67.6354 127.25C69.5854 125.825 71.8354 122.45 72.6604 121.325L74.9104 117.5C74.9854 117.425 75.2104 116.675 75.2854 116.45C74.6104 114.95 74.7604 112.175 74.8354 110.45C74.9104 109.025 77.7604 100.4 80.6854 100.4C81.4354 100.4 82.7104 100.775 83.0854 101.45C83.3854 103.175 83.3854 104 83.3104 105.5C83.1604 108.125 80.8354 112.55 79.8604 114.875L79.7854 115.55C79.7854 116 80.3854 117.05 80.9854 117.05C84.3604 117.05 87.8854 111.8 90.1354 111.95C90.8854 111.95 91.3354 112.4 91.3354 113.15ZM103.282 91.55C103.282 93.275 101.557 96.575 99.532 96.575C98.032 96.575 96.607 94.775 96.607 93.2C96.607 91.175 99.082 89.225 101.032 89.225C102.607 89.225 103.282 89.975 103.282 91.55ZM106.732 117.425C106.732 117.725 106.657 118.1 106.582 118.4C106.057 120.5 104.632 123.275 102.832 125.15C100.582 127.55 95.932 131.225 92.332 131.225C91.057 131.225 89.857 131.15 89.557 130.775C87.382 129.2 86.707 125.075 86.707 123.05C86.707 115.775 91.582 109.85 94.282 103.7C94.582 103.25 95.632 102.275 96.232 102.5C96.757 102.725 97.807 103.925 97.807 104.675V104.9C94.732 110.825 90.382 116.9 90.382 123.65C90.382 124.475 91.057 127.775 92.332 127.775C93.157 127.775 93.982 127.625 94.807 127.25C96.907 126.05 99.532 123.575 100.357 122.675C101.557 121.4 102.532 119.6 104.407 116.75C104.932 116 104.857 116.075 105.607 116.075C106.507 116.075 106.732 116.675 106.732 117.425ZM130.038 96.125C130.038 97.4 127.938 98.15 127.038 98.3C126.063 98.45 115.938 98.375 115.038 98.45C113.313 100.775 110.088 110.15 109.188 113.525C109.038 114.05 107.538 118.175 107.463 118.7C107.463 118.775 106.938 122.75 106.938 124.85C106.938 126.35 108.513 128.15 109.863 128.15C111.813 128.15 112.938 127.85 114.363 127.4C116.613 126.05 119.088 123.725 120.063 122.75C121.488 120.8 122.913 118.7 124.188 116.75C124.713 116 124.638 116.075 125.313 116.075C126.288 116.075 126.438 116.675 126.438 117.425C126.438 117.725 126.438 118.1 126.363 118.4C125.838 120.5 124.413 123.275 122.613 125.15C121.188 126.65 119.763 128.375 117.363 129.65C115.938 130.625 112.713 131.75 110.538 131.75C105.138 131.75 103.038 127.7 103.038 122.975C103.038 122.525 103.488 119.3 103.488 118.85C104.088 116.45 107.463 108.35 108.063 105.95C108.438 104.6 110.313 100.4 110.838 98.45C110.163 98.525 107.688 98.675 107.013 98.45C106.488 98.3 103.488 97.7 103.488 96.275C103.488 95 105.213 94.625 106.113 94.55C108.363 94.4 110.763 94.775 112.338 94.475C112.413 94.4 114.663 90.275 115.338 88.775L117.438 83.675L119.613 79.4C120.063 78.575 121.863 74.6 123.663 74.6C124.488 74.6 125.613 75.2 125.613 76.175C125.613 77.9 123.588 80.225 122.838 81.725L116.763 94.4C118.488 94.475 125.013 94.4 128.313 94.4C128.988 94.4 130.038 95.525 130.038 96.125ZM157.472 117.425C157.472 117.725 157.397 118.1 157.322 118.4C156.797 120.5 155.372 123.275 153.572 125.15C151.322 127.55 146.672 131.225 143.147 131.225H143.072C140.072 131.225 138.122 129.35 137.672 125C137.447 124.925 135.122 127.4 134.972 127.475C132.572 128.825 131.147 131.6 127.022 131.6C125.072 131.6 123.422 129.5 122.372 128.3V125.975C122.372 121.85 123.572 117.05 125.672 112.925C128.672 107.225 133.547 102.8 139.847 102.8C143.447 102.8 143.297 107.825 143.897 110.3C145.022 108.5 146.072 108.65 146.897 109.025C147.647 109.4 147.272 110.825 146.747 111.65C145.172 113.975 141.422 120.05 141.047 123.575C140.747 126.2 141.797 128 143.672 128C145.472 128 149.897 123.875 151.097 122.675C152.297 121.4 153.047 119.6 155.147 116.75C155.672 116 155.597 116.075 156.347 116.075C157.247 116.075 157.472 116.675 157.472 117.425ZM140.222 110.375C140.222 109.25 140.147 106.55 138.272 106.55C134.747 106.55 131.447 110.3 129.122 114.65C127.022 118.625 125.672 123.125 125.672 125.975C125.672 126.575 125.672 126.8 126.197 127.4H127.322C128.897 127.4 130.622 126.575 131.747 125.525C132.647 124.7 137.072 119.75 137.822 118.775C139.322 116.3 140.222 113.15 140.222 110.375ZM180.136 96.125C180.136 97.4 178.036 98.15 177.136 98.3C176.161 98.45 166.036 98.375 165.136 98.45C163.411 100.775 160.186 110.15 159.286 113.525C159.136 114.05 157.636 118.175 157.561 118.7C157.561 118.775 157.036 122.75 157.036 124.85C157.036 126.35 158.611 128.15 159.961 128.15C161.911 128.15 163.036 127.85 164.461 127.4C166.711 126.05 169.186 123.725 170.161 122.75C171.586 120.8 173.011 118.7 174.286 116.75C174.811 116 174.736 116.075 175.411 116.075C176.386 116.075 176.536 116.675 176.536 117.425C176.536 117.725 176.536 118.1 176.461 118.4C175.936 120.5 174.511 123.275 172.711 125.15C171.286 126.65 169.861 128.375 167.461 129.65C166.036 130.625 162.811 131.75 160.636 131.75C155.236 131.75 153.136 127.7 153.136 122.975C153.136 122.525 153.586 119.3 153.586 118.85C154.186 116.45 157.561 108.35 158.161 105.95C158.536 104.6 160.411 100.4 160.936 98.45C160.261 98.525 157.786 98.675 157.111 98.45C156.586 98.3 153.586 97.7 153.586 96.275C153.586 95 155.311 94.625 156.211 94.55C158.461 94.4 160.861 94.775 162.436 94.475C162.511 94.4 164.761 90.275 165.436 88.775L167.536 83.675L169.711 79.4C170.161 78.575 171.961 74.6 173.761 74.6C174.586 74.6 175.711 75.2 175.711 76.175C175.711 77.9 173.686 80.225 172.936 81.725L166.861 94.4C168.586 94.475 175.111 94.4 178.411 94.4C179.086 94.4 180.136 95.525 180.136 96.125ZM189.195 91.55C189.195 93.275 187.47 96.575 185.445 96.575C183.945 96.575 182.52 94.775 182.52 93.2C182.52 91.175 184.995 89.225 186.945 89.225C188.52 89.225 189.195 89.975 189.195 91.55ZM192.645 117.425C192.645 117.725 192.57 118.1 192.495 118.4C191.97 120.5 190.545 123.275 188.745 125.15C186.495 127.55 181.845 131.225 178.245 131.225C176.97 131.225 175.77 131.15 175.47 130.775C173.295 129.2 172.62 125.075 172.62 123.05C172.62 115.775 177.495 109.85 180.195 103.7C180.495 103.25 181.545 102.275 182.145 102.5C182.67 102.725 183.72 103.925 183.72 104.675V104.9C180.645 110.825 176.295 116.9 176.295 123.65C176.295 124.475 176.97 127.775 178.245 127.775C179.07 127.775 179.895 127.625 180.72 127.25C182.82 126.05 185.445 123.575 186.27 122.675C187.47 121.4 188.445 119.6 190.32 116.75C190.845 116 190.77 116.075 191.52 116.075C192.42 116.075 192.645 116.675 192.645 117.425ZM220.751 118.7C219.476 121.925 219.326 122 217.601 124.25C216.776 125.3 214.001 126.875 212.351 127.025C210.926 127.175 208.376 126.575 207.701 126.2C206.951 125.825 206.276 125.375 205.751 124.85C205.376 125.15 205.526 124.925 205.226 125.675C203.951 127.25 204.101 126.95 202.301 128.375C199.901 130.175 197.951 131.675 194.726 131.675C191.501 131.675 190.151 129.425 189.026 126.8V124.475C189.026 120.5 190.826 114.725 193.901 110.15C196.751 105.95 200.651 102.65 205.301 102.65C210.776 102.65 211.451 108.425 211.451 112.55C211.451 115.775 209.126 119.525 208.076 121.25C207.851 121.7 208.901 122.45 209.201 122.675C209.651 122.975 211.451 123.725 212.276 123.65C214.076 123.5 214.451 122.825 215.876 121.175C216.926 119.9 216.926 119.15 217.601 118.025C217.826 117.65 218.651 116.525 219.176 116.225C219.551 116 220.151 115.775 220.751 116.525C221.051 116.9 220.901 118.325 220.751 118.7ZM207.851 112.025C207.851 111.8 207.926 111.05 207.776 110.9C207.701 109.775 207.401 107.3 207.251 107.225C206.126 106.175 206.801 106.1 205.526 106.1C205.001 106.1 204.401 106.625 203.876 106.775C202.751 107.975 201.926 110.9 202.376 114.05C202.676 116.15 203.726 118.1 204.926 119.45C205.076 119.075 205.976 117.725 206.051 117.35C206.576 116 207.851 113.525 207.851 112.025ZM201.926 121.625C200.351 119.75 199.826 118.175 199.151 115.925C198.851 114.8 199.001 111.35 199.451 109.55C198.326 110.45 197.801 110.975 196.901 112.175C194.126 115.925 192.251 120.725 192.251 124.1C192.251 125 192.101 128.15 193.676 128.15C196.376 128.15 198.626 127.025 200.426 125.225C201.701 124.025 201.926 123.95 202.826 122.675L201.926 121.625ZM254.437 117.425C254.437 117.725 254.362 118.1 254.287 118.475C253.762 120.575 252.337 123.425 250.537 125.3C248.887 127.025 247.237 128.825 245.137 130.1C243.412 131.225 241.462 131.9 239.287 131.9C238.387 131.9 237.187 131.9 236.437 131.525C234.712 130.7 234.712 128.45 234.712 126.8C234.712 124.1 236.212 122 237.337 119.75C239.062 116.45 241.237 111.65 241.987 108.35C241.687 108.35 241.312 108.275 241.312 108.275C238.087 108.275 234.262 114.95 232.462 117.275C232.312 117.5 231.862 118.4 231.262 119.3C230.662 120.275 229.987 121.325 229.537 121.775C229.012 122.3 228.412 123.2 227.812 124.175L225.862 127.325C224.587 129.275 223.237 131.225 222.112 131.225C221.062 131.225 220.687 130.625 220.387 129.65C222.037 124.25 224.812 119.3 227.212 114.2C227.662 113.3 228.187 112.1 228.637 110.975C229.387 108.275 229.537 106.775 229.087 106.625C228.262 106.4 225.712 110.225 224.287 112.625C223.687 113.6 222.112 116.675 221.437 118.025C220.762 119.525 220.087 119.9 219.637 120.2C219.112 120.575 217.987 120.8 217.537 120.05C217.087 119.375 217.462 117.8 217.687 117.35L218.212 116.525C218.512 116.15 218.587 115.925 219.187 115.025C220.387 113.375 220.612 113.075 222.262 109.775C223.837 106.625 226.837 103.25 229.387 103.25C231.937 103.25 232.462 105.05 232.687 106.475C232.912 107.675 232.612 108.8 232.387 109.55L231.037 114.275C234.112 109.4 238.837 104.525 243.412 103.625C245.212 104.3 245.812 105.95 245.812 107.675V108.125C244.237 113.3 242.062 118.175 240.262 121.925C239.587 123.275 238.537 125 238.537 126.5C238.537 127.025 238.387 127.7 238.912 128.075C239.062 128.15 239.887 128.15 240.112 128.15C240.862 128.15 241.687 127.925 242.437 127.625C244.387 126.5 246.712 124.325 247.537 123.425C248.212 122.675 248.812 121.55 249.262 120.65C250.162 119.15 250.987 117.575 252.112 116.225C252.412 115.85 252.637 115.925 253.087 115.925C254.212 115.925 254.437 116.6 254.437 117.425Z" fill="white"/>
</svg>
