<svg width="208" height="37" viewBox="0 0 208 37" fill="none" xmlns="http://www.w3.org/2000/svg">
<path d="M36.5967 5C36.5967 5.12 36.5567 5.28 36.5567 5.44C34.4767 7.44 33.1567 10.08 31.5167 12.4C30.6767 13.64 29.8367 14.72 29.1567 16.04C28.2367 17.8 27.4367 19.68 26.5567 21.52C25.5967 23.52 23.9567 25.48 23.9567 27.72C26.4367 27.72 28.8367 26.8 31.0367 25.96V26.32C31.0367 28.6 24.8367 29.68 23.0767 30.12C22.4367 31.52 20.9167 34.56 19.9567 35.44C19.8767 35.4 19.4367 35.6 19.3567 35.6C19.0367 35.6 18.9567 35.56 18.6367 35.56C18.3567 35.56 18.3167 35.36 18.3167 35.16C18.3167 34.52 20.3967 31.24 20.4767 30.64C19.1967 30.96 17.3567 31.16 16.3167 31.16C14.2767 31.16 12.0367 30.52 10.1967 29.68C9.55672 29.4 9.39672 29.16 8.71672 29.16C7.55672 29.16 5.03672 34.04 3.39672 34.04C2.47672 34.04 1.19672 33.2 1.23672 32.32L1.43672 32.12C3.35672 32.08 4.67672 29.4 6.11672 28.24C6.35672 28.08 6.35672 28.04 6.35672 27.76C6.35672 27.12 2.75672 25.4 2.75672 22.68C2.75672 18.68 9.51672 16 12.8367 16.04C13.4767 15.48 15.8767 12 15.8767 11.2C15.7967 11.16 15.5567 11.32 15.4767 11.32C15.3167 11.32 14.4767 11.8 14.1967 11.92C11.9567 12.88 9.47672 14.12 6.99672 14.12C3.07672 14.12 0.276717 12.6 0.276717 8.32C0.276717 6 3.59672 0.639999 6.15672 0.639999C6.51672 0.639999 7.51672 0.959998 7.51672 1.24C7.51672 1.96 1.95672 5.72 1.95672 8.32C1.95672 10.96 4.19672 12.2 6.63672 12.2C12.5967 12.2 16.7567 7.44 20.6367 3.56C20.9967 3.2 21.1967 3.04 21.7567 3.04C22.1967 3.04 22.5967 3.4 22.5967 3.88V4.04C22.5967 5.44 20.3967 7.08 19.6767 8.36C18.7567 9.96 18.1967 11.76 17.2767 13.4C17.0367 13.84 15.7567 15.76 15.9967 16.2C16.2367 16.64 18.4367 16.64 19.2767 16.96C20.3167 17.36 22.5567 19.04 22.9167 20.12C22.9967 20.32 23.3967 22.28 23.5567 22.92C23.9967 22.4 25.3167 19.24 25.5567 18.64C25.9967 17.52 27.7567 14.64 28.4767 13.4C30.2367 10.4 32.1967 7.44 34.3967 4.72C34.7167 4.36 35.0767 4 35.5967 4C36.1967 4 36.5967 4.36 36.5967 5ZM12.1167 18.28C9.87672 18.32 4.87672 20.28 4.87672 22.96C4.87672 24.24 6.75672 25.36 7.79672 25.84H8.03672C9.35672 24.72 11.1567 20.6 12.0767 18.92L12.1167 18.28ZM21.8767 25.32C21.8767 24.28 21.3567 23.28 21.2367 22.24C20.9167 19.64 17.4767 18.64 15.2767 18.64C14.0767 18.64 13.5167 20.92 13.0767 21.8C12.5967 22.76 10.1967 26.28 10.1967 27.04L10.4367 27.28C11.5167 27.8 13.8367 28.76 14.9567 28.84C16.7567 29 19.8767 28.68 20.9567 28.44C21.6767 27.6 21.8767 26.28 21.8767 25.32ZM41.0252 11.96C41.0252 12.88 40.1052 14.64 39.0252 14.64C38.2252 14.64 37.4652 13.68 37.4652 12.84C37.4652 11.76 38.7852 10.72 39.8252 10.72C40.6652 10.72 41.0252 11.12 41.0252 11.96ZM42.8652 25.76C42.8652 25.92 42.8252 26.12 42.7852 26.28C42.5052 27.4 41.7452 28.88 40.7852 29.88C39.5852 31.16 37.1052 33.12 35.1852 33.12C34.5052 33.12 33.8652 33.08 33.7052 32.88C32.5452 32.04 32.1852 29.84 32.1852 28.76C32.1852 24.88 34.7852 21.72 36.2252 18.44C36.3852 18.2 36.9452 17.68 37.2652 17.8C37.5452 17.92 38.1052 18.56 38.1052 18.96V19.08C36.4652 22.24 34.1452 25.48 34.1452 29.08C34.1452 29.52 34.5052 31.28 35.1852 31.28C35.6252 31.28 36.0652 31.2 36.5052 31C37.6252 30.36 39.0252 29.04 39.4652 28.56C40.1052 27.88 40.6252 26.92 41.6252 25.4C41.9052 25 41.8652 25.04 42.2652 25.04C42.7452 25.04 42.8652 25.36 42.8652 25.76ZM60.4152 25.88C60.3352 26.52 59.3752 28.56 59.1352 28.84C57.4552 30.88 56.4952 32.24 53.5352 33C53.0952 33.12 52.5752 33.16 52.1352 33.16C51.6952 33.16 51.4952 33.16 51.0952 33C50.0552 32.64 49.2952 31.04 49.2952 29.64C49.2952 28.24 49.6152 27.96 49.6152 26.52C49.6152 25.44 47.7352 25.6 47.7352 24.2C47.7352 23.4 48.6152 23.2 49.2552 23.2C49.9752 23.2 50.5752 23.68 51.2952 23.68C52.6552 23.68 54.0552 22.28 54.0552 20.96C54.0552 20.4 53.8152 19.92 53.3752 19.92C53.2152 19.92 51.4152 20.52 51.2152 20.64C48.8952 21.96 46.6552 22.6 44.3752 25.84C43.5752 27 43.0152 29.88 41.8152 31.92C41.4152 32.56 41.0152 33 40.6152 33C40.3352 33 40.0952 33.08 39.8152 33.08C39.5752 33.08 39.4152 32.96 39.4152 32.68C39.4152 32 40.5352 29.6 40.8552 28.84C41.5752 27.16 43.9352 20.64 43.9352 19.12C43.7352 18.72 43.6952 18.32 43.6952 17.88C43.6952 17.24 44.3752 17.12 44.7752 16.76C45.6152 13.72 46.3752 10.56 47.4552 7.6C48.0552 5.96 50.3752 2 52.3752 2C53.9752 2 54.1352 4.36 54.1352 5.52C54.1352 9.2 51.7752 14.12 49.1752 16.68C48.2952 17.52 47.2552 18.12 46.2552 18.8C45.9752 19.36 44.6152 22.52 44.5352 23.12C46.8552 20.08 51.4952 18.04 53.8552 18.04C54.9352 18.04 55.9752 18.92 55.9752 19.84C55.9752 23.12 54.0552 24.96 50.9352 25.28C51.2552 25.64 51.3352 26.08 51.3352 26.52C51.3352 27.76 51.0952 27.84 51.0952 29.04C51.0952 30.4 50.8152 31.44 52.6152 31.44C54.6552 31.44 56.4552 29.28 57.7352 27.52C58.2952 26.72 58.8152 25.88 59.1752 25.44C59.4152 25.16 59.5752 25.12 59.8152 25.12C60.2552 25.12 60.4552 25.4 60.4152 25.88ZM52.4552 5.04C52.4552 4.72 52.3752 4.28 51.9752 4.28C49.8952 4.28 47.0152 14.32 47.0152 16.28C47.4552 16.16 48.0552 15.32 48.3752 14.96C50.4552 12.52 51.5752 9.8 52.1752 6.68C52.2952 6.12 52.4552 5.6 52.4552 5.04ZM76.9189 25.76C76.9189 25.92 76.8789 26.12 76.8389 26.28C76.5589 27.4 75.7989 28.88 74.8389 29.88C73.6389 31.16 71.1589 33.12 69.2789 33.12H69.2389C67.6389 33.12 66.5989 32.12 66.3589 29.8C66.2389 29.76 64.9989 31.08 64.9189 31.12C63.6389 31.84 62.8789 33.32 60.6789 33.32C59.6389 33.32 58.7589 32.2 58.1989 31.56V30.32C58.1989 28.12 58.8389 25.56 59.9589 23.36C61.5589 20.32 64.1589 17.96 67.5189 17.96C69.4389 17.96 69.3589 20.64 69.6789 21.96C70.2789 21 70.8389 21.08 71.2789 21.28C71.6789 21.48 71.4789 22.24 71.1989 22.68C70.3589 23.92 68.3589 27.16 68.1589 29.04C67.9989 30.44 68.5589 31.4 69.5589 31.4C70.5189 31.4 72.8789 29.2 73.5189 28.56C74.1589 27.88 74.5589 26.92 75.6789 25.4C75.9589 25 75.9189 25.04 76.3189 25.04C76.7989 25.04 76.9189 25.36 76.9189 25.76ZM67.7189 22C67.7189 21.4 67.6789 19.96 66.6789 19.96C64.7989 19.96 63.0389 21.96 61.7989 24.28C60.6789 26.4 59.9589 28.8 59.9589 30.32C59.9589 30.64 59.9589 30.76 60.2389 31.08H60.8389C61.6789 31.08 62.5989 30.64 63.1989 30.08C63.6789 29.64 66.0389 27 66.4389 26.48C67.2389 25.16 67.7189 23.48 67.7189 22ZM89.0461 25.76C89.0461 25.92 89.0061 26.12 88.9661 26.28C88.6861 27.4 87.9261 28.88 87.0061 29.88C85.8461 31.08 83.4861 32.96 81.6461 33.12C81.4061 33.16 81.1661 33.2 80.9261 33.2C79.7661 33.2 78.3661 32.72 78.3661 31.24C78.3661 29.92 78.8461 28.2 79.7261 26.56C80.6061 24.88 82.0461 22.92 82.9661 21.52C81.8061 21.8 80.3261 21.6 79.9261 21.52C79.5661 21.8 79.6461 21.88 79.2861 22.36C78.9261 22.8 77.5261 25.56 77.1661 26.16C76.4461 27.32 76.3661 27.96 75.4061 27.96C75.1261 27.96 74.4861 27.8 74.5661 27.28L74.6861 26.56C75.2461 25.8 75.1661 25.96 75.9261 24.68C76.9661 23 77.7661 21.64 78.4061 20.56C78.3661 20.28 78.0461 20.28 77.9661 20.12L77.6461 19.6C77.4061 19.24 77.4861 18.28 77.4861 17.84C77.4861 16.04 79.3661 14.48 81.2861 14.48C82.0861 14.48 82.8461 15.36 82.8461 16.16C82.8461 17.12 82.6861 17.4 82.3261 18.2C82.0061 18.88 81.8061 19.12 81.4061 19.72C81.8061 19.84 82.7661 19.8 83.1661 19.76C84.0861 19.64 84.4461 18.92 85.4861 18.92C86.1261 18.92 86.3661 19.48 86.3661 19.96C86.3661 20.36 86.2061 20.6 85.9261 20.88L85.8061 21C84.9261 21.88 82.7661 24.8 82.1661 25.72C81.0461 27.44 80.2061 29.16 80.2061 30.72C80.2061 31.28 80.7661 31.36 81.6061 31.36C82.5661 31.36 85.0461 29.2 85.6461 28.56C86.2861 27.88 86.8061 26.92 87.8061 25.4C88.0861 25 88.0461 25.04 88.4461 25.04C88.9261 25.04 89.0461 25.36 89.0461 25.76ZM80.7661 16.24C79.5261 16.16 79.1661 17.08 79.1661 18.12C79.1661 18.52 79.7661 18.96 79.8061 18.96C80.2061 18.64 81.2061 17 80.7661 16.24ZM103.272 25.76C103.272 25.92 103.232 26.12 103.192 26.28C102.912 27.4 102.152 28.88 101.232 29.88C100.152 31 98.2717 32.52 96.7917 33.04C96.4317 33.12 95.8317 33.28 95.5917 33.28C94.9117 33.28 94.0717 32.72 93.9117 31.92C93.7917 31.32 94.0717 30.24 94.1917 29.24C94.0317 29.24 94.1917 28.8 94.2317 28.64C93.5917 30.16 91.6717 33.24 89.7917 33.2C88.9117 33.2 87.7917 32.92 87.2717 32C86.6717 30.92 86.5117 29.2 86.5917 28.52C86.6717 27.8 87.5117 25.48 87.5117 25.24C87.9117 24.56 88.1517 23.44 88.3517 22.88C88.7517 21.8 90.3517 18.64 91.2317 18.56C91.6717 18.52 91.8717 18.84 91.8717 19.32V19.6C91.0717 21.48 90.7517 21.96 90.1117 23.4C89.5117 24.76 88.8317 26.68 88.5117 28.64C88.3517 29.68 88.5917 30.2 88.8317 30.88C88.9917 31.32 89.4717 31.32 89.8717 31.32C90.6717 31.32 92.2717 28.76 93.5117 26.76C94.2317 25.6 94.8317 24.56 95.0717 24.12C96.2317 22 96.3117 20.36 98.2717 18.88L98.5917 18.84C99.1117 18.84 99.3117 19.16 99.2717 19.64C99.2317 20.28 99.2717 19.88 98.9917 20.48C98.1917 22.2 97.3117 23.76 96.5117 26.04C95.9917 27.52 95.7117 29.2 95.5917 30.44L95.6317 31.28L95.7117 31.4C95.9117 31.4 96.1117 31.48 96.3517 31.4C97.1917 31.04 99.2717 29.2 99.8717 28.56C100.512 27.88 100.912 26.92 102.032 25.4C102.352 25 102.272 25.04 102.672 25.04C103.152 25.04 103.272 25.36 103.272 25.76ZM128.649 32.392C128.745 32.584 128.617 32.744 128.457 32.968C128.233 33.032 127.209 33.288 126.985 33.32H126.889C125.097 33.32 122.697 32.104 121.385 30.728H120.841C119.113 32.136 116.617 33.672 114.313 33.672C112.361 33.672 111.081 32.488 109.897 31.08C109.641 30.792 109.065 30.44 108.969 29.992V28.616C108.969 24.392 111.497 21.64 114.441 18.856C114.921 15.688 114.345 10.408 119.113 10.408L120.105 10.44C121.193 10.728 121.609 12.264 121.609 13.192C121.609 13.896 121.577 14.312 121.193 15.016C119.753 16.712 118.121 17.96 116.649 19.592C116.969 20.68 120.201 27.816 121.129 27.816C121.161 27.816 121.353 27.816 121.385 27.784C122.473 26.568 122.857 25.352 122.857 23.656C122.857 23.432 122.889 22.824 122.569 22.824C122.569 22.824 122.505 22.856 122.473 22.856L121.385 23.944C121.385 23.976 121.161 23.976 121.097 23.976C120.457 23.976 119.753 23.496 119.753 22.792C119.753 21.128 120.649 20.104 122.281 20.104C123.977 20.104 124.489 21.736 124.489 23.304C124.489 24.456 124.393 25.928 123.945 27.08C123.625 27.848 122.665 28.488 122.665 29.352V29.608C123.145 30.344 124.425 30.92 125.705 31.272C127.049 31.656 128.425 31.816 128.649 32.392ZM119.945 13.096C119.945 13 119.945 12.552 119.913 12.456C119.657 12.04 119.209 11.88 118.729 11.88L118.473 11.912C116.777 13.256 116.329 15.144 116.329 17.192H116.649C116.681 17.192 117.577 16.424 117.929 16.104L119.753 14.28C119.977 13.896 119.945 13.512 119.945 13.096ZM119.753 29.064C119.209 28.328 118.985 27.4 118.473 26.696C117.353 25.224 116.617 23.848 115.913 22.12L115.369 21.032C115.241 20.84 115.177 20.84 114.985 20.84H114.825C112.361 22.984 110.409 25.608 110.409 28.968C110.409 30.6 112.905 32.04 114.313 32.04C115.273 32.04 119.753 30.504 119.753 29.256V29.064ZM170.932 32.2C168.652 34.64 167.452 36.84 163.612 36.84C162.052 36.84 161.252 35.96 160.092 34.72C159.092 33.6 158.892 31.32 158.892 29.96C158.892 27.76 160.292 24.8 160.812 22.6C161.412 19.88 161.892 17.6 162.692 14.92C163.132 13.48 165.852 8.56 165.852 6.96C165.812 6.96 165.932 6.08 165.852 6.12C164.812 7.16 160.412 16.08 159.412 17.64C158.812 18.52 154.492 23.96 153.692 23.96C152.932 23.96 152.292 23.32 152.292 22.6C152.292 22 152.572 21.68 152.572 21.04C152.572 20.36 152.532 17.16 152.652 15.96C152.812 14.4 153.652 8.36 153.692 5.8C153.612 5.8 152.372 9.6 152.292 9.64C151.612 9.92 150.972 13.52 150.652 14.08C150.252 14.92 147.932 19.32 147.372 20.36C147.292 20.48 146.892 21.16 146.812 21.24L146.532 21.76C145.532 23.44 142.852 27.84 142.692 28.04C141.252 30.2 139.012 33 136.012 33C132.172 33 132.332 31.88 131.172 28.88C131.172 28.76 130.692 27.92 130.652 27.8V27.52C130.652 26.8 131.452 26.68 132.052 26.68C134.092 26.68 131.852 30.88 135.412 30.88C138.012 30.88 138.652 29.88 140.532 27.84C144.052 22.48 146.732 16.88 149.572 11.08C150.732 8.64 152.092 3.2 154.612 1.64H154.972C155.212 1.64 155.612 1.6 155.652 1.92C155.692 2.2 155.572 3.28 155.692 4C156.012 5.76 155.372 7.52 155.372 9.36C155.372 11.84 154.052 18.32 154.212 21C154.252 21 156.452 18.28 156.812 17.8C157.572 16.8 160.372 11.28 161.332 9.72C161.892 8.8 164.572 4.6 165.172 3.68C165.972 2.76 167.132 1.48 168.492 1.48C169.052 1.48 169.292 1.88 169.292 2.44C169.292 4.16 168.252 5.68 167.652 7.24C165.612 12.64 164.212 18.12 162.732 23.68C162.132 25.88 161.332 27.96 161.332 30.28C161.332 31.16 161.452 32.32 161.932 33.24C162.372 34.08 163.052 34.68 164.172 34.68C166.132 34.68 167.292 33.36 168.612 32.16C169.052 31.76 169.052 30.96 170.492 30.96C171.252 30.96 170.892 31.8 170.932 32.2ZM179.56 11.96C179.56 12.88 178.64 14.64 177.56 14.64C176.76 14.64 176 13.68 176 12.84C176 11.76 177.32 10.72 178.36 10.72C179.2 10.72 179.56 11.12 179.56 11.96ZM181.4 25.76C181.4 25.92 181.36 26.12 181.32 26.28C181.04 27.4 180.28 28.88 179.32 29.88C178.12 31.16 175.64 33.12 173.72 33.12C173.04 33.12 172.4 33.08 172.24 32.88C171.08 32.04 170.72 29.84 170.72 28.76C170.72 24.88 173.32 21.72 174.76 18.44C174.92 18.2 175.48 17.68 175.8 17.8C176.08 17.92 176.64 18.56 176.64 18.96V19.08C175 22.24 172.68 25.48 172.68 29.08C172.68 29.52 173.04 31.28 173.72 31.28C174.16 31.28 174.6 31.2 175.04 31C176.16 30.36 177.56 29.04 178 28.56C178.64 27.88 179.16 26.92 180.16 25.4C180.44 25 180.4 25.04 180.8 25.04C181.28 25.04 181.4 25.36 181.4 25.76ZM198.95 25.88C198.87 26.52 197.91 28.56 197.67 28.84C195.99 30.88 195.03 32.24 192.07 33C191.63 33.12 191.11 33.16 190.67 33.16C190.23 33.16 190.03 33.16 189.63 33C188.59 32.64 187.83 31.04 187.83 29.64C187.83 28.24 188.15 27.96 188.15 26.52C188.15 25.44 186.27 25.6 186.27 24.2C186.27 23.4 187.15 23.2 187.79 23.2C188.51 23.2 189.11 23.68 189.83 23.68C191.19 23.68 192.59 22.28 192.59 20.96C192.59 20.4 192.35 19.92 191.91 19.92C191.75 19.92 189.95 20.52 189.75 20.64C187.43 21.96 185.19 22.6 182.91 25.84C182.11 27 181.55 29.88 180.35 31.92C179.95 32.56 179.55 33 179.15 33C178.87 33 178.63 33.08 178.35 33.08C178.11 33.08 177.95 32.96 177.95 32.68C177.95 32 179.07 29.6 179.39 28.84C180.11 27.16 182.47 20.64 182.47 19.12C182.27 18.72 182.23 18.32 182.23 17.88C182.23 17.24 182.91 17.12 183.31 16.76C184.15 13.72 184.91 10.56 185.99 7.6C186.59 5.96 188.91 2 190.91 2C192.51 2 192.67 4.36 192.67 5.52C192.67 9.2 190.31 14.12 187.71 16.68C186.83 17.52 185.79 18.12 184.79 18.8C184.51 19.36 183.15 22.52 183.07 23.12C185.39 20.08 190.03 18.04 192.39 18.04C193.47 18.04 194.51 18.92 194.51 19.84C194.51 23.12 192.59 24.96 189.47 25.28C189.79 25.64 189.87 26.08 189.87 26.52C189.87 27.76 189.63 27.84 189.63 29.04C189.63 30.4 189.35 31.44 191.15 31.44C193.19 31.44 194.99 29.28 196.27 27.52C196.83 26.72 197.35 25.88 197.71 25.44C197.95 25.16 198.11 25.12 198.35 25.12C198.79 25.12 198.99 25.4 198.95 25.88ZM190.99 5.04C190.99 4.72 190.91 4.28 190.51 4.28C188.43 4.28 185.55 14.32 185.55 16.28C185.99 16.16 186.59 15.32 186.91 14.96C188.99 12.52 190.11 9.8 190.71 6.68C190.83 6.12 190.99 5.6 190.99 5.04ZM205.653 11.96C205.653 12.88 204.733 14.64 203.653 14.64C202.853 14.64 202.093 13.68 202.093 12.84C202.093 11.76 203.413 10.72 204.453 10.72C205.293 10.72 205.653 11.12 205.653 11.96ZM207.493 25.76C207.493 25.92 207.453 26.12 207.413 26.28C207.133 27.4 206.373 28.88 205.413 29.88C204.213 31.16 201.733 33.12 199.813 33.12C199.133 33.12 198.493 33.08 198.333 32.88C197.173 32.04 196.813 29.84 196.813 28.76C196.813 24.88 199.413 21.72 200.853 18.44C201.013 18.2 201.573 17.68 201.893 17.8C202.173 17.92 202.733 18.56 202.733 18.96V19.08C201.093 22.24 198.773 25.48 198.773 29.08C198.773 29.52 199.133 31.28 199.813 31.28C200.253 31.28 200.693 31.2 201.133 31C202.253 30.36 203.653 29.04 204.093 28.56C204.733 27.88 205.253 26.92 206.253 25.4C206.533 25 206.493 25.04 206.893 25.04C207.373 25.04 207.493 25.36 207.493 25.76Z" fill="white"/>
</svg>
